<svg width="200" height="200" viewBox="0 0 200 200" fill="none" xmlns="http://www.w3.org/2000/svg">
<path fill-rule="evenodd" clip-rule="evenodd" d="M169.916 99.4925C169.916 133.637 140.978 164.045 106.779 164.045H81.2562C80.3408 164.045 79.5104 164.566 79.0572 165.36C74.9633 172.535 69.1954 175.012 54.4369 175C52.8046 174.999 51.6858 173.403 52.2126 171.901C52.2537 171.784 52.3268 171.681 52.4147 171.593L66.1367 157.893C66.528 157.502 66.528 156.868 66.1367 156.478L52.0523 142.415C51.9435 142.307 51.8576 142.175 51.8227 142.025C51.486 140.579 52.6072 139.175 54.1369 139.184C66.7771 139.251 73.4741 140.785 79.02 148.426C79.4974 149.084 80.253 149.498 81.0668 149.498H88.8701C111.394 149.498 126.451 137.614 132.094 123.24C132.346 122.599 131.864 121.919 131.175 121.919H112.839C109.157 121.919 106.172 118.934 106.172 115.252C106.172 111.569 109.157 108.584 112.839 108.584H133.486C134.058 108.584 134.515 108.105 134.468 107.535C134.246 104.825 133.692 102.143 132.795 99.5426C132.659 99.1467 132.283 98.8863 131.864 98.8863H106.161C102.479 98.8863 99.4941 95.9012 99.4941 92.2189C99.4941 88.5366 102.479 85.5515 106.161 85.5515H120.789C121.706 85.5515 122.122 84.441 121.398 83.8774C113.273 77.5516 101.248 73.429 84.924 73.429C84.621 73.429 84.3209 73.4258 84.0237 73.4195C83.9225 73.4258 83.8204 73.429 83.7175 73.429H44.849C42.171 73.429 40 71.258 40 68.58C40 65.9019 42.171 63.7309 44.849 63.7309H60.1287C60.9823 63.7309 61.4559 62.7193 60.9463 62.0345C56.2455 55.7193 53.7442 47.775 51.5762 40.8897C50.8264 38.5081 50.1164 36.2533 49.3691 34.2364C48.7873 32.6659 49.9565 31 51.6336 31H107.386C143.364 34.6723 171.753 69.1335 169.916 99.4925ZM104.958 51.0022C104.958 59.0363 98.4346 65.5493 90.3878 65.5493C82.3411 65.5493 75.8179 59.0363 75.8179 51.0022C75.8179 42.9681 82.3411 36.4551 90.3878 36.4551C98.4346 36.4551 104.958 42.9681 104.958 51.0022ZM90.3878 57.0635C93.7406 57.0635 96.4586 54.3498 96.4586 51.0022C96.4586 47.6547 93.7406 44.9409 90.3878 44.9409C87.035 44.9409 84.317 47.6547 84.317 51.0022C84.317 54.3498 87.035 57.0635 90.3878 57.0635Z" fill="url(#paint0_linear_595_224)"/>
<defs>
<linearGradient id="paint0_linear_595_224" x1="105" y1="31" x2="105" y2="175" gradientUnits="userSpaceOnUse">
<stop stop-color="#FF906D"/>
<stop offset="0.515625" stop-color="#FF7171"/>
<stop offset="1" stop-color="#FF5588"/>
</linearGradient>
</defs>
</svg>
