<svg width="120" height="42" viewBox="0 0 120 42" fill="none" xmlns="http://www.w3.org/2000/svg">
<path fill-rule="evenodd" clip-rule="evenodd" d="M32.7466 20.3239C32.7466 27.675 26.6053 34.2214 19.3475 34.2214H13.9309C13.7366 34.2214 13.5604 34.3337 13.4642 34.5046C12.5954 36.0491 11.3713 36.5825 8.23919 36.5799C7.87927 36.5796 7.637 36.2088 7.7818 35.8751L10.8726 32.7446L7.69802 29.5292C7.5885 29.2016 7.83406 28.8671 8.17551 28.869C10.8581 28.8835 12.2794 29.2137 13.4563 30.8588C13.5576 31.0005 13.718 31.0896 13.8907 31.0896H15.5468C20.4726 31.0896 23.7155 28.3727 24.8238 25.1522H20.654C19.8613 25.1522 19.2186 24.5095 19.2186 23.7167C19.2186 22.924 19.8613 22.2813 20.654 22.2813H25.2386C25.2032 21.5719 25.0648 20.8688 24.8191 20.1934H19.2368C18.444 20.1934 17.8014 19.5507 17.8014 18.758C17.8014 17.9652 18.444 17.3225 19.2368 17.3225H22.8753C21.1565 15.7589 18.4705 14.7127 14.7093 14.7127C14.6416 14.7127 14.5745 14.7119 14.5081 14.7104C14.4851 14.7119 14.4618 14.7127 14.4384 14.7127H6.21924C5.64268 14.7127 5.17529 14.2453 5.17529 13.6687C5.17529 13.0922 5.64268 12.6248 6.21924 12.6248H9.90758C8.7211 11.216 8.13442 9.32575 7.63208 7.70727C7.47294 7.19455 7.32227 6.70911 7.16367 6.27488C7.04019 5.93678 7.28834 5.57812 7.64425 5.57812H19.4763C27.1116 6.36874 33.1365 13.7879 32.7466 20.3239ZM18.9609 9.88438C18.9609 11.614 17.5766 13.0162 15.8688 13.0162C14.1611 13.0162 12.7767 11.614 12.7767 9.88438C12.7767 8.15471 14.1611 6.75253 15.8688 6.75253C17.5766 6.75253 18.9609 8.15471 18.9609 9.88438ZM15.8688 11.1894C16.5804 11.1894 17.1572 10.6051 17.1572 9.88444C17.1572 9.16375 16.5804 8.57951 15.8688 8.57951C15.1573 8.57951 14.5804 9.16375 14.5804 9.88444C14.5804 10.6051 15.1573 11.1894 15.8688 11.1894Z" fill="#FF5660"/>
<mask id="path-2-outside-1_565_143" maskUnits="userSpaceOnUse" x="37" y="6" width="79" height="21" fill="black">
<rect fill="white" x="37" y="6" width="79" height="21"/>
<path d="M51.2664 23.4906C51.2665 23.5485 51.2469 23.6048 51.209 23.6485C50.9864 23.9057 50.6925 24.1664 50.3271 24.4307C49.9294 24.7184 49.4596 24.9766 48.918 25.2051C48.3678 25.4421 47.7542 25.6325 47.0771 25.7764C46.4001 25.9202 45.6722 25.9922 44.8936 25.9922C44.2165 25.9922 43.5775 25.9118 42.9766 25.751C42.3841 25.5986 41.8382 25.3743 41.3389 25.0781C40.848 24.7734 40.3994 24.401 39.9932 23.9609C39.5954 23.5208 39.2568 23.0173 38.9775 22.4502C38.6559 21.8239 38.4105 21.1172 38.2412 20.3301C38.0804 19.543 38 18.6882 38 17.7656V15.252C38 14.3717 38.0804 13.555 38.2412 12.8018C38.402 12.04 38.6305 11.3503 38.9268 10.7324C39.2061 10.1823 39.5277 9.68717 39.8916 9.24707C40.264 8.80697 40.6702 8.42611 41.1104 8.10449C41.6266 7.74056 42.1895 7.46549 42.7988 7.2793C43.4082 7.0931 44.0514 7 44.7285 7C45.7695 7 46.6751 7.13118 47.4453 7.39355C48.224 7.65592 48.8799 8.03255 49.4131 8.52344C49.9463 9.02279 50.361 9.62793 50.6572 10.3389C50.9301 10.9755 51.1181 11.6834 51.2213 12.4626C51.2407 12.6097 51.1247 12.7383 50.9763 12.7383H47.9945C47.8691 12.7383 47.7636 12.6452 47.7435 12.5214C47.6847 12.1605 47.6022 11.835 47.4961 11.5449C47.3776 11.1979 47.2126 10.9059 47.001 10.6689C46.764 10.4066 46.4635 10.2119 46.0996 10.085C45.7441 9.94954 45.3167 9.88184 44.8174 9.88184C44.5465 9.88184 44.2842 9.92415 44.0303 10.0088C43.7764 10.0934 43.5394 10.2161 43.3193 10.377C43.0316 10.597 42.7692 10.8848 42.5322 11.2402C42.3037 11.5957 42.1133 12.0146 41.9609 12.4971C41.8424 12.8695 41.7493 13.2842 41.6816 13.7412C41.6224 14.1982 41.5928 14.6934 41.5928 15.2266V17.7656C41.5928 18.4342 41.6351 19.0436 41.7197 19.5938C41.8128 20.1439 41.9398 20.6305 42.1006 21.0537C42.2021 21.2992 42.3164 21.5277 42.4434 21.7393C42.5788 21.9424 42.7269 22.1243 42.8877 22.2852C43.1585 22.556 43.4717 22.7633 43.8271 22.9072C44.1911 23.0426 44.6016 23.1146 45.0586 23.123C45.3379 23.123 45.613 23.1019 45.8838 23.0596C46.1546 23.0173 46.4085 22.958 46.6455 22.8818C46.8825 22.8057 47.0898 22.721 47.2676 22.6279C47.4161 22.5469 47.535 22.4632 47.6242 22.3769C47.6665 22.336 47.6866 22.2783 47.6869 22.2195L47.6983 19.2099C47.6988 19.0715 47.5867 18.959 47.4483 18.959H44.8896C44.7516 18.959 44.6396 18.8471 44.6396 18.709V16.543C44.6396 16.4049 44.7516 16.293 44.8896 16.293H51.0043C51.1422 16.293 51.2541 16.4046 51.2543 16.5425L51.2664 23.4906Z"/>
<path d="M63.3148 22.0616C63.2846 21.9536 63.1861 21.8789 63.074 21.8789H57.9049C57.793 21.8789 57.6948 21.9532 57.6643 22.0609L56.6755 25.5563C56.645 25.664 56.5468 25.7383 56.4349 25.7383H53.2112C53.0411 25.7383 52.9207 25.5721 52.9736 25.4104L58.8655 7.42607C58.8991 7.32336 58.995 7.25391 59.103 7.25391H61.9769C62.0855 7.25391 62.1817 7.32402 62.2149 7.4274L67.9956 25.4118C68.0475 25.5732 67.9271 25.7383 67.7576 25.7383H64.5325C64.4203 25.7383 64.3219 25.6636 64.2917 25.5556L63.3148 22.0616ZM58.6827 18.5261C58.6372 18.6858 58.7571 18.8447 58.9231 18.8447H62.0968C62.2622 18.8447 62.382 18.6871 62.3377 18.5278L60.7719 12.895C60.7043 12.6519 60.3599 12.6507 60.2906 12.8934L58.6827 18.5261Z"/>
<path d="M73.9742 7.25391C74.0887 7.25391 74.1886 7.33171 74.2166 7.44275L75.694 13.299C75.7565 13.5467 76.1063 13.5523 76.1767 13.3069L77.8621 7.43494C77.8929 7.32776 77.9909 7.25391 78.1024 7.25391H82.0947C82.2328 7.25391 82.3447 7.36584 82.3447 7.50391V25.4883C82.3447 25.6264 82.2328 25.7383 82.0947 25.7383H79.3193C79.1813 25.7383 79.0693 25.6264 79.0693 25.4883V20.2666L79.1899 13.4218C79.1951 13.1316 78.7846 13.0672 78.7007 13.345L76.8506 19.4669C76.8187 19.5724 76.7215 19.6445 76.6113 19.6445H75.2214C75.1095 19.6445 75.0112 19.5702 74.9808 19.4625L73.3873 13.8249C73.3076 13.5429 72.8914 13.6045 72.8968 13.8975L73.0137 20.2666V25.4883C73.0137 25.6264 72.9017 25.7383 72.7637 25.7383H69.9883C69.8502 25.7383 69.7383 25.6264 69.7383 25.4883V7.50391C69.7383 7.36584 69.8502 7.25391 69.9883 7.25391H73.9742Z"/>
<path d="M85.6289 25.7383C85.4908 25.7383 85.3789 25.6264 85.3789 25.4883V7.50391C85.3789 7.36584 85.4908 7.25391 85.6289 7.25391H91.5869C92.5941 7.25391 93.5081 7.35547 94.3291 7.55859C95.1585 7.76172 95.8652 8.07064 96.4492 8.48535C97.0332 8.90007 97.4818 9.4248 97.7949 10.0596C98.1165 10.6943 98.2773 11.4434 98.2773 12.3066C98.2689 12.8652 98.1673 13.3942 97.9727 13.8936C97.7865 14.3844 97.5072 14.8161 97.1348 15.1885C96.9316 15.3916 96.6989 15.5778 96.4365 15.7471C96.1841 15.9153 95.9025 16.0585 95.5916 16.1766C95.5882 16.1779 95.5859 16.1811 95.5859 16.1848V16.1848C95.5859 16.1887 95.5886 16.1921 95.5924 16.1932C96.1987 16.3622 96.679 16.5774 97.0332 16.8389C97.3971 17.1012 97.7018 17.4059 97.9473 17.7529C98.2012 18.1253 98.3874 18.5316 98.5059 18.9717C98.6328 19.4033 98.6963 19.8519 98.6963 20.3174C98.6963 21.2061 98.5439 21.9889 98.2393 22.666C97.9346 23.3431 97.4987 23.9102 96.9316 24.3672C96.3646 24.8242 95.6748 25.167 94.8623 25.3955C94.0498 25.624 93.1357 25.7383 92.1201 25.7383H85.6289ZM89.209 17.5879C89.0709 17.5879 88.959 17.6998 88.959 17.8379V22.6064C88.959 22.7445 89.0709 22.8564 89.209 22.8564H92.1328C92.5983 22.8564 93.013 22.7972 93.377 22.6787C93.7493 22.5602 94.0583 22.3994 94.3037 22.1963C94.5745 21.9678 94.7777 21.6927 94.9131 21.3711C95.057 21.0495 95.1289 20.6898 95.1289 20.292C95.1289 19.8773 95.0739 19.5049 94.9639 19.1748C94.8623 18.8447 94.6973 18.5654 94.4688 18.3369C94.2402 18.0999 93.944 17.918 93.5801 17.791C93.2161 17.6641 92.7845 17.5964 92.2852 17.5879H89.209ZM88.959 14.7607C88.959 14.8988 89.0709 15.0107 89.209 15.0107H91.6123C92.154 15.0023 92.6322 14.9388 93.0469 14.8203C93.4616 14.6934 93.7959 14.5072 94.0498 14.2617C94.2614 14.0671 94.4222 13.8301 94.5322 13.5508C94.6507 13.2715 94.71 12.9541 94.71 12.5986C94.71 12.2262 94.6592 11.9004 94.5576 11.6211C94.4645 11.3418 94.3206 11.109 94.126 10.9229C93.8721 10.6605 93.5293 10.4701 93.0977 10.3516C92.6745 10.2331 92.1751 10.1696 91.5996 10.1611H89.209C89.0709 10.1611 88.959 10.2731 88.959 10.4111V14.7607Z"/>
<path d="M110.16 22.0616C110.13 21.9536 110.032 21.8789 109.92 21.8789H104.751C104.639 21.8789 104.541 21.9532 104.51 22.0609L103.521 25.5563C103.491 25.664 103.393 25.7383 103.281 25.7383H100.057C99.8868 25.7383 99.7664 25.5721 99.8193 25.4104L105.711 7.42607C105.745 7.32336 105.841 7.25391 105.949 7.25391H108.823C108.931 7.25391 109.027 7.32402 109.061 7.4274L114.841 25.4118C114.893 25.5732 114.773 25.7383 114.603 25.7383H111.378C111.266 25.7383 111.168 25.6636 111.137 25.5556L110.16 22.0616ZM105.528 18.5261C105.483 18.6858 105.603 18.8447 105.769 18.8447H108.943C109.108 18.8447 109.228 18.6871 109.183 18.5278L107.618 12.895C107.55 12.6519 107.206 12.6507 107.136 12.8934L105.528 18.5261Z"/>
</mask>
<path d="M51.2664 23.4906C51.2665 23.5485 51.2469 23.6048 51.209 23.6485C50.9864 23.9057 50.6925 24.1664 50.3271 24.4307C49.9294 24.7184 49.4596 24.9766 48.918 25.2051C48.3678 25.4421 47.7542 25.6325 47.0771 25.7764C46.4001 25.9202 45.6722 25.9922 44.8936 25.9922C44.2165 25.9922 43.5775 25.9118 42.9766 25.751C42.3841 25.5986 41.8382 25.3743 41.3389 25.0781C40.848 24.7734 40.3994 24.401 39.9932 23.9609C39.5954 23.5208 39.2568 23.0173 38.9775 22.4502C38.6559 21.8239 38.4105 21.1172 38.2412 20.3301C38.0804 19.543 38 18.6882 38 17.7656V15.252C38 14.3717 38.0804 13.555 38.2412 12.8018C38.402 12.04 38.6305 11.3503 38.9268 10.7324C39.2061 10.1823 39.5277 9.68717 39.8916 9.24707C40.264 8.80697 40.6702 8.42611 41.1104 8.10449C41.6266 7.74056 42.1895 7.46549 42.7988 7.2793C43.4082 7.0931 44.0514 7 44.7285 7C45.7695 7 46.6751 7.13118 47.4453 7.39355C48.224 7.65592 48.8799 8.03255 49.4131 8.52344C49.9463 9.02279 50.361 9.62793 50.6572 10.3389C50.9301 10.9755 51.1181 11.6834 51.2213 12.4626C51.2407 12.6097 51.1247 12.7383 50.9763 12.7383H47.9945C47.8691 12.7383 47.7636 12.6452 47.7435 12.5214C47.6847 12.1605 47.6022 11.835 47.4961 11.5449C47.3776 11.1979 47.2126 10.9059 47.001 10.6689C46.764 10.4066 46.4635 10.2119 46.0996 10.085C45.7441 9.94954 45.3167 9.88184 44.8174 9.88184C44.5465 9.88184 44.2842 9.92415 44.0303 10.0088C43.7764 10.0934 43.5394 10.2161 43.3193 10.377C43.0316 10.597 42.7692 10.8848 42.5322 11.2402C42.3037 11.5957 42.1133 12.0146 41.9609 12.4971C41.8424 12.8695 41.7493 13.2842 41.6816 13.7412C41.6224 14.1982 41.5928 14.6934 41.5928 15.2266V17.7656C41.5928 18.4342 41.6351 19.0436 41.7197 19.5938C41.8128 20.1439 41.9398 20.6305 42.1006 21.0537C42.2021 21.2992 42.3164 21.5277 42.4434 21.7393C42.5788 21.9424 42.7269 22.1243 42.8877 22.2852C43.1585 22.556 43.4717 22.7633 43.8271 22.9072C44.1911 23.0426 44.6016 23.1146 45.0586 23.123C45.3379 23.123 45.613 23.1019 45.8838 23.0596C46.1546 23.0173 46.4085 22.958 46.6455 22.8818C46.8825 22.8057 47.0898 22.721 47.2676 22.6279C47.4161 22.5469 47.535 22.4632 47.6242 22.3769C47.6665 22.336 47.6866 22.2783 47.6869 22.2195L47.6983 19.2099C47.6988 19.0715 47.5867 18.959 47.4483 18.959H44.8896C44.7516 18.959 44.6396 18.8471 44.6396 18.709V16.543C44.6396 16.4049 44.7516 16.293 44.8896 16.293H51.0043C51.1422 16.293 51.2541 16.4046 51.2543 16.5425L51.2664 23.4906Z" fill="white"/>
<path d="M63.3148 22.0616C63.2846 21.9536 63.1861 21.8789 63.074 21.8789H57.9049C57.793 21.8789 57.6948 21.9532 57.6643 22.0609L56.6755 25.5563C56.645 25.664 56.5468 25.7383 56.4349 25.7383H53.2112C53.0411 25.7383 52.9207 25.5721 52.9736 25.4104L58.8655 7.42607C58.8991 7.32336 58.995 7.25391 59.103 7.25391H61.9769C62.0855 7.25391 62.1817 7.32402 62.2149 7.4274L67.9956 25.4118C68.0475 25.5732 67.9271 25.7383 67.7576 25.7383H64.5325C64.4203 25.7383 64.3219 25.6636 64.2917 25.5556L63.3148 22.0616ZM58.6827 18.5261C58.6372 18.6858 58.7571 18.8447 58.9231 18.8447H62.0968C62.2622 18.8447 62.382 18.6871 62.3377 18.5278L60.7719 12.895C60.7043 12.6519 60.3599 12.6507 60.2906 12.8934L58.6827 18.5261Z" fill="white"/>
<path d="M73.9742 7.25391C74.0887 7.25391 74.1886 7.33171 74.2166 7.44275L75.694 13.299C75.7565 13.5467 76.1063 13.5523 76.1767 13.3069L77.8621 7.43494C77.8929 7.32776 77.9909 7.25391 78.1024 7.25391H82.0947C82.2328 7.25391 82.3447 7.36584 82.3447 7.50391V25.4883C82.3447 25.6264 82.2328 25.7383 82.0947 25.7383H79.3193C79.1813 25.7383 79.0693 25.6264 79.0693 25.4883V20.2666L79.1899 13.4218C79.1951 13.1316 78.7846 13.0672 78.7007 13.345L76.8506 19.4669C76.8187 19.5724 76.7215 19.6445 76.6113 19.6445H75.2214C75.1095 19.6445 75.0112 19.5702 74.9808 19.4625L73.3873 13.8249C73.3076 13.5429 72.8914 13.6045 72.8968 13.8975L73.0137 20.2666V25.4883C73.0137 25.6264 72.9017 25.7383 72.7637 25.7383H69.9883C69.8502 25.7383 69.7383 25.6264 69.7383 25.4883V7.50391C69.7383 7.36584 69.8502 7.25391 69.9883 7.25391H73.9742Z" fill="white"/>
<path d="M85.6289 25.7383C85.4908 25.7383 85.3789 25.6264 85.3789 25.4883V7.50391C85.3789 7.36584 85.4908 7.25391 85.6289 7.25391H91.5869C92.5941 7.25391 93.5081 7.35547 94.3291 7.55859C95.1585 7.76172 95.8652 8.07064 96.4492 8.48535C97.0332 8.90007 97.4818 9.4248 97.7949 10.0596C98.1165 10.6943 98.2773 11.4434 98.2773 12.3066C98.2689 12.8652 98.1673 13.3942 97.9727 13.8936C97.7865 14.3844 97.5072 14.8161 97.1348 15.1885C96.9316 15.3916 96.6989 15.5778 96.4365 15.7471C96.1841 15.9153 95.9025 16.0585 95.5916 16.1766C95.5882 16.1779 95.5859 16.1811 95.5859 16.1848V16.1848C95.5859 16.1887 95.5886 16.1921 95.5924 16.1932C96.1987 16.3622 96.679 16.5774 97.0332 16.8389C97.3971 17.1012 97.7018 17.4059 97.9473 17.7529C98.2012 18.1253 98.3874 18.5316 98.5059 18.9717C98.6328 19.4033 98.6963 19.8519 98.6963 20.3174C98.6963 21.2061 98.5439 21.9889 98.2393 22.666C97.9346 23.3431 97.4987 23.9102 96.9316 24.3672C96.3646 24.8242 95.6748 25.167 94.8623 25.3955C94.0498 25.624 93.1357 25.7383 92.1201 25.7383H85.6289ZM89.209 17.5879C89.0709 17.5879 88.959 17.6998 88.959 17.8379V22.6064C88.959 22.7445 89.0709 22.8564 89.209 22.8564H92.1328C92.5983 22.8564 93.013 22.7972 93.377 22.6787C93.7493 22.5602 94.0583 22.3994 94.3037 22.1963C94.5745 21.9678 94.7777 21.6927 94.9131 21.3711C95.057 21.0495 95.1289 20.6898 95.1289 20.292C95.1289 19.8773 95.0739 19.5049 94.9639 19.1748C94.8623 18.8447 94.6973 18.5654 94.4688 18.3369C94.2402 18.0999 93.944 17.918 93.5801 17.791C93.2161 17.6641 92.7845 17.5964 92.2852 17.5879H89.209ZM88.959 14.7607C88.959 14.8988 89.0709 15.0107 89.209 15.0107H91.6123C92.154 15.0023 92.6322 14.9388 93.0469 14.8203C93.4616 14.6934 93.7959 14.5072 94.0498 14.2617C94.2614 14.0671 94.4222 13.8301 94.5322 13.5508C94.6507 13.2715 94.71 12.9541 94.71 12.5986C94.71 12.2262 94.6592 11.9004 94.5576 11.6211C94.4645 11.3418 94.3206 11.109 94.126 10.9229C93.8721 10.6605 93.5293 10.4701 93.0977 10.3516C92.6745 10.2331 92.1751 10.1696 91.5996 10.1611H89.209C89.0709 10.1611 88.959 10.2731 88.959 10.4111V14.7607Z" fill="white"/>
<path d="M110.16 22.0616C110.13 21.9536 110.032 21.8789 109.92 21.8789H104.751C104.639 21.8789 104.541 21.9532 104.51 22.0609L103.521 25.5563C103.491 25.664 103.393 25.7383 103.281 25.7383H100.057C99.8868 25.7383 99.7664 25.5721 99.8193 25.4104L105.711 7.42607C105.745 7.32336 105.841 7.25391 105.949 7.25391H108.823C108.931 7.25391 109.027 7.32402 109.061 7.4274L114.841 25.4118C114.893 25.5732 114.773 25.7383 114.603 25.7383H111.378C111.266 25.7383 111.168 25.6636 111.137 25.5556L110.16 22.0616ZM105.528 18.5261C105.483 18.6858 105.603 18.8447 105.769 18.8447H108.943C109.108 18.8447 109.228 18.6871 109.183 18.5278L107.618 12.895C107.55 12.6519 107.206 12.6507 107.136 12.8934L105.528 18.5261Z" fill="white"/>
<path d="M51.2664 23.4906C51.2665 23.5485 51.2469 23.6048 51.209 23.6485C50.9864 23.9057 50.6925 24.1664 50.3271 24.4307C49.9294 24.7184 49.4596 24.9766 48.918 25.2051C48.3678 25.4421 47.7542 25.6325 47.0771 25.7764C46.4001 25.9202 45.6722 25.9922 44.8936 25.9922C44.2165 25.9922 43.5775 25.9118 42.9766 25.751C42.3841 25.5986 41.8382 25.3743 41.3389 25.0781C40.848 24.7734 40.3994 24.401 39.9932 23.9609C39.5954 23.5208 39.2568 23.0173 38.9775 22.4502C38.6559 21.8239 38.4105 21.1172 38.2412 20.3301C38.0804 19.543 38 18.6882 38 17.7656V15.252C38 14.3717 38.0804 13.555 38.2412 12.8018C38.402 12.04 38.6305 11.3503 38.9268 10.7324C39.2061 10.1823 39.5277 9.68717 39.8916 9.24707C40.264 8.80697 40.6702 8.42611 41.1104 8.10449C41.6266 7.74056 42.1895 7.46549 42.7988 7.2793C43.4082 7.0931 44.0514 7 44.7285 7C45.7695 7 46.6751 7.13118 47.4453 7.39355C48.224 7.65592 48.8799 8.03255 49.4131 8.52344C49.9463 9.02279 50.361 9.62793 50.6572 10.3389C50.9301 10.9755 51.1181 11.6834 51.2213 12.4626C51.2407 12.6097 51.1247 12.7383 50.9763 12.7383H47.9945C47.8691 12.7383 47.7636 12.6452 47.7435 12.5214C47.6847 12.1605 47.6022 11.835 47.4961 11.5449C47.3776 11.1979 47.2126 10.9059 47.001 10.6689C46.764 10.4066 46.4635 10.2119 46.0996 10.085C45.7441 9.94954 45.3167 9.88184 44.8174 9.88184C44.5465 9.88184 44.2842 9.92415 44.0303 10.0088C43.7764 10.0934 43.5394 10.2161 43.3193 10.377C43.0316 10.597 42.7692 10.8848 42.5322 11.2402C42.3037 11.5957 42.1133 12.0146 41.9609 12.4971C41.8424 12.8695 41.7493 13.2842 41.6816 13.7412C41.6224 14.1982 41.5928 14.6934 41.5928 15.2266V17.7656C41.5928 18.4342 41.6351 19.0436 41.7197 19.5938C41.8128 20.1439 41.9398 20.6305 42.1006 21.0537C42.2021 21.2992 42.3164 21.5277 42.4434 21.7393C42.5788 21.9424 42.7269 22.1243 42.8877 22.2852C43.1585 22.556 43.4717 22.7633 43.8271 22.9072C44.1911 23.0426 44.6016 23.1146 45.0586 23.123C45.3379 23.123 45.613 23.1019 45.8838 23.0596C46.1546 23.0173 46.4085 22.958 46.6455 22.8818C46.8825 22.8057 47.0898 22.721 47.2676 22.6279C47.4161 22.5469 47.535 22.4632 47.6242 22.3769C47.6665 22.336 47.6866 22.2783 47.6869 22.2195L47.6983 19.2099C47.6988 19.0715 47.5867 18.959 47.4483 18.959H44.8896C44.7516 18.959 44.6396 18.8471 44.6396 18.709V16.543C44.6396 16.4049 44.7516 16.293 44.8896 16.293H51.0043C51.1422 16.293 51.2541 16.4046 51.2543 16.5425L51.2664 23.4906Z" stroke="white" stroke-width="0.4" mask="url(#path-2-outside-1_565_143)"/>
<path d="M63.3148 22.0616C63.2846 21.9536 63.1861 21.8789 63.074 21.8789H57.9049C57.793 21.8789 57.6948 21.9532 57.6643 22.0609L56.6755 25.5563C56.645 25.664 56.5468 25.7383 56.4349 25.7383H53.2112C53.0411 25.7383 52.9207 25.5721 52.9736 25.4104L58.8655 7.42607C58.8991 7.32336 58.995 7.25391 59.103 7.25391H61.9769C62.0855 7.25391 62.1817 7.32402 62.2149 7.4274L67.9956 25.4118C68.0475 25.5732 67.9271 25.7383 67.7576 25.7383H64.5325C64.4203 25.7383 64.3219 25.6636 64.2917 25.5556L63.3148 22.0616ZM58.6827 18.5261C58.6372 18.6858 58.7571 18.8447 58.9231 18.8447H62.0968C62.2622 18.8447 62.382 18.6871 62.3377 18.5278L60.7719 12.895C60.7043 12.6519 60.3599 12.6507 60.2906 12.8934L58.6827 18.5261Z" stroke="white" stroke-width="0.4" mask="url(#path-2-outside-1_565_143)"/>
<path d="M73.9742 7.25391C74.0887 7.25391 74.1886 7.33171 74.2166 7.44275L75.694 13.299C75.7565 13.5467 76.1063 13.5523 76.1767 13.3069L77.8621 7.43494C77.8929 7.32776 77.9909 7.25391 78.1024 7.25391H82.0947C82.2328 7.25391 82.3447 7.36584 82.3447 7.50391V25.4883C82.3447 25.6264 82.2328 25.7383 82.0947 25.7383H79.3193C79.1813 25.7383 79.0693 25.6264 79.0693 25.4883V20.2666L79.1899 13.4218C79.1951 13.1316 78.7846 13.0672 78.7007 13.345L76.8506 19.4669C76.8187 19.5724 76.7215 19.6445 76.6113 19.6445H75.2214C75.1095 19.6445 75.0112 19.5702 74.9808 19.4625L73.3873 13.8249C73.3076 13.5429 72.8914 13.6045 72.8968 13.8975L73.0137 20.2666V25.4883C73.0137 25.6264 72.9017 25.7383 72.7637 25.7383H69.9883C69.8502 25.7383 69.7383 25.6264 69.7383 25.4883V7.50391C69.7383 7.36584 69.8502 7.25391 69.9883 7.25391H73.9742Z" stroke="white" stroke-width="0.4" mask="url(#path-2-outside-1_565_143)"/>
<path d="M85.6289 25.7383C85.4908 25.7383 85.3789 25.6264 85.3789 25.4883V7.50391C85.3789 7.36584 85.4908 7.25391 85.6289 7.25391H91.5869C92.5941 7.25391 93.5081 7.35547 94.3291 7.55859C95.1585 7.76172 95.8652 8.07064 96.4492 8.48535C97.0332 8.90007 97.4818 9.4248 97.7949 10.0596C98.1165 10.6943 98.2773 11.4434 98.2773 12.3066C98.2689 12.8652 98.1673 13.3942 97.9727 13.8936C97.7865 14.3844 97.5072 14.8161 97.1348 15.1885C96.9316 15.3916 96.6989 15.5778 96.4365 15.7471C96.1841 15.9153 95.9025 16.0585 95.5916 16.1766C95.5882 16.1779 95.5859 16.1811 95.5859 16.1848V16.1848C95.5859 16.1887 95.5886 16.1921 95.5924 16.1932C96.1987 16.3622 96.679 16.5774 97.0332 16.8389C97.3971 17.1012 97.7018 17.4059 97.9473 17.7529C98.2012 18.1253 98.3874 18.5316 98.5059 18.9717C98.6328 19.4033 98.6963 19.8519 98.6963 20.3174C98.6963 21.2061 98.5439 21.9889 98.2393 22.666C97.9346 23.3431 97.4987 23.9102 96.9316 24.3672C96.3646 24.8242 95.6748 25.167 94.8623 25.3955C94.0498 25.624 93.1357 25.7383 92.1201 25.7383H85.6289ZM89.209 17.5879C89.0709 17.5879 88.959 17.6998 88.959 17.8379V22.6064C88.959 22.7445 89.0709 22.8564 89.209 22.8564H92.1328C92.5983 22.8564 93.013 22.7972 93.377 22.6787C93.7493 22.5602 94.0583 22.3994 94.3037 22.1963C94.5745 21.9678 94.7777 21.6927 94.9131 21.3711C95.057 21.0495 95.1289 20.6898 95.1289 20.292C95.1289 19.8773 95.0739 19.5049 94.9639 19.1748C94.8623 18.8447 94.6973 18.5654 94.4688 18.3369C94.2402 18.0999 93.944 17.918 93.5801 17.791C93.2161 17.6641 92.7845 17.5964 92.2852 17.5879H89.209ZM88.959 14.7607C88.959 14.8988 89.0709 15.0107 89.209 15.0107H91.6123C92.154 15.0023 92.6322 14.9388 93.0469 14.8203C93.4616 14.6934 93.7959 14.5072 94.0498 14.2617C94.2614 14.0671 94.4222 13.8301 94.5322 13.5508C94.6507 13.2715 94.71 12.9541 94.71 12.5986C94.71 12.2262 94.6592 11.9004 94.5576 11.6211C94.4645 11.3418 94.3206 11.109 94.126 10.9229C93.8721 10.6605 93.5293 10.4701 93.0977 10.3516C92.6745 10.2331 92.1751 10.1696 91.5996 10.1611H89.209C89.0709 10.1611 88.959 10.2731 88.959 10.4111V14.7607Z" stroke="white" stroke-width="0.4" mask="url(#path-2-outside-1_565_143)"/>
<path d="M110.16 22.0616C110.13 21.9536 110.032 21.8789 109.92 21.8789H104.751C104.639 21.8789 104.541 21.9532 104.51 22.0609L103.521 25.5563C103.491 25.664 103.393 25.7383 103.281 25.7383H100.057C99.8868 25.7383 99.7664 25.5721 99.8193 25.4104L105.711 7.42607C105.745 7.32336 105.841 7.25391 105.949 7.25391H108.823C108.931 7.25391 109.027 7.32402 109.061 7.4274L114.841 25.4118C114.893 25.5732 114.773 25.7383 114.603 25.7383H111.378C111.266 25.7383 111.168 25.6636 111.137 25.5556L110.16 22.0616ZM105.528 18.5261C105.483 18.6858 105.603 18.8447 105.769 18.8447H108.943C109.108 18.8447 109.228 18.6871 109.183 18.5278L107.618 12.895C107.55 12.6519 107.206 12.6507 107.136 12.8934L105.528 18.5261Z" stroke="white" stroke-width="0.4" mask="url(#path-2-outside-1_565_143)"/>
<path d="M43.3838 33.8115H40.4443V36.0332H43.877V37H39.2676V29.8906H43.8525V30.8623H40.4443V32.8643H43.3838V33.8115ZM47.5293 32.542L48.9111 29.8906H50.2881L48.2617 33.416L50.3369 37H48.9697L47.5488 34.3047L46.1328 37H44.7461L46.8262 33.416L44.7998 29.8906H46.1719L47.5293 32.542ZM52.4756 34.29V37H51.3037V29.8906H53.6816C54.0397 29.8939 54.3685 29.9476 54.668 30.0518C54.9707 30.1559 55.2311 30.304 55.4492 30.4961C55.6673 30.6882 55.8366 30.9209 55.957 31.1943C56.0775 31.4678 56.1377 31.7754 56.1377 32.1172C56.1377 32.446 56.0775 32.7438 55.957 33.0107C55.8366 33.2744 55.6673 33.5007 55.4492 33.6895C55.2311 33.8815 54.9707 34.0296 54.668 34.1338C54.3685 34.238 54.0397 34.29 53.6816 34.29H52.4756ZM52.4756 33.333H53.6816C53.8802 33.3298 54.0576 33.2988 54.2139 33.2402C54.3734 33.1784 54.5085 33.0938 54.6191 32.9863C54.7298 32.8789 54.8128 32.752 54.8682 32.6055C54.9268 32.459 54.9561 32.2995 54.9561 32.127C54.9561 31.9382 54.9268 31.7673 54.8682 31.6143C54.8128 31.458 54.7298 31.3229 54.6191 31.209C54.5085 31.0951 54.3734 31.0072 54.2139 30.9453C54.0576 30.8835 53.8802 30.8509 53.6816 30.8477H52.4756V33.333ZM58.501 36.0332H61.8945V37H57.3242V29.8906H58.501V36.0332ZM68.0469 33.9189C68.0469 34.2054 68.0208 34.4821 67.9688 34.749C67.9199 35.016 67.8483 35.2682 67.7539 35.5059C67.653 35.7435 67.5277 35.9632 67.3779 36.165C67.2282 36.3636 67.0557 36.5345 66.8604 36.6777C66.6715 36.8079 66.4616 36.9105 66.2305 36.9854C66.0026 37.0602 65.752 37.0977 65.4785 37.0977C65.1953 37.0977 64.9349 37.0586 64.6973 36.9805C64.4629 36.8991 64.2529 36.7884 64.0674 36.6484C63.8786 36.5052 63.7126 36.3327 63.5693 36.1309C63.4294 35.929 63.3122 35.7077 63.2178 35.4668C63.1266 35.2357 63.0583 34.9899 63.0127 34.7295C62.9671 34.4658 62.9443 34.1956 62.9443 33.9189V32.9814C62.9443 32.6917 62.9688 32.4118 63.0176 32.1416C63.0664 31.8714 63.1396 31.6159 63.2373 31.375C63.3317 31.1439 63.4473 30.9323 63.584 30.7402C63.724 30.5449 63.8883 30.3757 64.0771 30.2324C64.2594 30.0924 64.4661 29.985 64.6973 29.9102C64.9316 29.832 65.1888 29.793 65.4688 29.793C65.752 29.793 66.0124 29.832 66.25 29.9102C66.4876 29.9883 66.7008 30.0973 66.8896 30.2373C67.0785 30.3773 67.2428 30.5417 67.3828 30.7305C67.5228 30.9193 67.64 31.126 67.7344 31.3506C67.8385 31.5915 67.9167 31.8503 67.9688 32.127C68.0208 32.4004 68.0469 32.6852 68.0469 32.9814V33.9189ZM66.8652 32.9717C66.862 32.7926 66.8506 32.6169 66.8311 32.4443C66.8148 32.2718 66.7855 32.1074 66.7432 31.9512C66.6943 31.7721 66.6292 31.6094 66.5479 31.4629C66.4697 31.3132 66.3737 31.1862 66.2598 31.082C66.1589 30.9909 66.0433 30.9193 65.9131 30.8672C65.7829 30.8151 65.6348 30.7891 65.4688 30.7891C65.3092 30.7891 65.166 30.8151 65.0391 30.8672C64.9121 30.916 64.8014 30.9844 64.707 31.0723C64.5931 31.1797 64.4971 31.3083 64.4189 31.458C64.3408 31.6045 64.2806 31.7689 64.2383 31.9512C64.1992 32.1074 64.1699 32.2734 64.1504 32.4492C64.1341 32.6217 64.126 32.7959 64.126 32.9717V33.9189C64.126 34.0915 64.1341 34.2624 64.1504 34.4316C64.1667 34.6009 64.1943 34.7637 64.2334 34.9199C64.2757 35.0957 64.3327 35.2601 64.4043 35.4131C64.4792 35.5628 64.5687 35.6898 64.6729 35.7939C64.7738 35.8916 64.8893 35.9697 65.0195 36.0283C65.153 36.0837 65.306 36.1113 65.4785 36.1113C65.6445 36.1113 65.7943 36.0837 65.9277 36.0283C66.0645 35.973 66.1816 35.8981 66.2793 35.8037C66.3932 35.6963 66.4876 35.5693 66.5625 35.4229C66.6406 35.2731 66.7025 35.1087 66.748 34.9297C66.7871 34.7734 66.8148 34.6107 66.8311 34.4414C66.8506 34.2689 66.862 34.0947 66.8652 33.9189V32.9717ZM71.6211 34.2412H70.4199V37H69.248V29.8906H71.5039C71.8717 29.8939 72.2103 29.9411 72.5195 30.0322C72.8288 30.1234 73.0957 30.2568 73.3203 30.4326C73.5417 30.6117 73.7142 30.8346 73.8379 31.1016C73.9616 31.3652 74.0234 31.6745 74.0234 32.0293C74.0234 32.2734 73.9909 32.4948 73.9258 32.6934C73.8639 32.8919 73.776 33.071 73.6621 33.2305C73.5482 33.39 73.4115 33.5299 73.252 33.6504C73.0924 33.7708 72.915 33.875 72.7197 33.9629L74.2383 36.9365V37H72.9834L71.6211 34.2412ZM70.4199 33.2842H71.5186C71.7269 33.2809 71.9141 33.25 72.0801 33.1914C72.2493 33.1296 72.3926 33.0417 72.5098 32.9277C72.6139 32.8301 72.6953 32.7096 72.7539 32.5664C72.8125 32.4232 72.8418 32.2604 72.8418 32.0781C72.8418 31.873 72.8092 31.694 72.7441 31.541C72.6823 31.3848 72.5895 31.2546 72.4658 31.1504C72.3519 31.0527 72.2135 30.9795 72.0508 30.9307C71.888 30.8786 71.7057 30.8509 71.5039 30.8477H70.4199V33.2842ZM79.4189 33.8115H76.4795V36.0332H79.9121V37H75.3027V29.8906H79.8877V30.8623H76.4795V32.8643H79.4189V33.8115ZM83.6328 34.2412H82.4316V37H81.2598V29.8906H83.5156C83.8835 29.8939 84.222 29.9411 84.5312 30.0322C84.8405 30.1234 85.1074 30.2568 85.332 30.4326C85.5534 30.6117 85.7259 30.8346 85.8496 31.1016C85.9733 31.3652 86.0352 31.6745 86.0352 32.0293C86.0352 32.2734 86.0026 32.4948 85.9375 32.6934C85.8757 32.8919 85.7878 33.071 85.6738 33.2305C85.5599 33.39 85.4232 33.5299 85.2637 33.6504C85.1042 33.7708 84.9268 33.875 84.7314 33.9629L86.25 36.9365V37H84.9951L83.6328 34.2412ZM82.4316 33.2842H83.5303C83.7386 33.2809 83.9258 33.25 84.0918 33.1914C84.2611 33.1296 84.4043 33.0417 84.5215 32.9277C84.6257 32.8301 84.707 32.7096 84.7656 32.5664C84.8242 32.4232 84.8535 32.2604 84.8535 32.0781C84.8535 31.873 84.821 31.694 84.7559 31.541C84.694 31.3848 84.6012 31.2546 84.4775 31.1504C84.3636 31.0527 84.2253 30.9795 84.0625 30.9307C83.8997 30.8786 83.7174 30.8509 83.5156 30.8477H82.4316V33.2842Z" fill="white"/>
<path d="M43.3838 33.8115V34.0115H43.5838V33.8115H43.3838ZM40.4443 33.8115V33.6115H40.2443V33.8115H40.4443ZM40.4443 36.0332H40.2443V36.2332H40.4443V36.0332ZM43.877 36.0332H44.077V35.8332H43.877V36.0332ZM43.877 37V37.2H44.077V37H43.877ZM39.2676 37H39.0676V37.2H39.2676V37ZM39.2676 29.8906V29.6906H39.0676V29.8906H39.2676ZM43.8525 29.8906H44.0525V29.6906H43.8525V29.8906ZM43.8525 30.8623V31.0623H44.0525V30.8623H43.8525ZM40.4443 30.8623V30.6623H40.2443V30.8623H40.4443ZM40.4443 32.8643H40.2443V33.0643H40.4443V32.8643ZM43.3838 32.8643H43.5838V32.6643H43.3838V32.8643ZM43.3838 33.6115H40.4443V34.0115H43.3838V33.6115ZM40.2443 33.8115V36.0332H40.6443V33.8115H40.2443ZM40.4443 36.2332H43.877V35.8332H40.4443V36.2332ZM43.677 36.0332V37H44.077V36.0332H43.677ZM43.877 36.8H39.2676V37.2H43.877V36.8ZM39.4676 37V29.8906H39.0676V37H39.4676ZM39.2676 30.0906H43.8525V29.6906H39.2676V30.0906ZM43.6525 29.8906V30.8623H44.0525V29.8906H43.6525ZM43.8525 30.6623H40.4443V31.0623H43.8525V30.6623ZM40.2443 30.8623V32.8643H40.6443V30.8623H40.2443ZM40.4443 33.0643H43.3838V32.6643H40.4443V33.0643ZM43.1838 32.8643V33.8115H43.5838V32.8643H43.1838ZM47.5293 32.542L47.3513 32.6331L47.5277 32.9778L47.7067 32.6344L47.5293 32.542ZM48.9111 29.8906V29.6906H48.7898L48.7338 29.7982L48.9111 29.8906ZM50.2881 29.8906L50.4615 29.9903L50.6337 29.6906H50.2881V29.8906ZM48.2617 33.416L48.0883 33.3163L48.0308 33.4164L48.0886 33.5162L48.2617 33.416ZM50.3369 37V37.2H50.6838L50.51 36.8998L50.3369 37ZM48.9697 37L48.7928 37.0933L48.8491 37.2H48.9697V37ZM47.5488 34.3047L47.7257 34.2114L47.5485 33.8752L47.3718 34.2117L47.5488 34.3047ZM46.1328 37V37.2H46.2537L46.3099 37.093L46.1328 37ZM44.7461 37L44.5731 36.8996L44.3988 37.2H44.7461V37ZM46.8262 33.416L46.9991 33.5164L47.0571 33.4165L46.9996 33.3163L46.8262 33.416ZM44.7998 29.8906V29.6906H44.4542L44.6264 29.9903L44.7998 29.8906ZM46.1719 29.8906L46.3499 29.7995L46.2942 29.6906H46.1719V29.8906ZM47.7067 32.6344L49.0885 29.9831L48.7338 29.7982L47.3519 32.4496L47.7067 32.6344ZM48.9111 30.0906H50.2881V29.6906H48.9111V30.0906ZM50.1147 29.791L48.0883 33.3163L48.4351 33.5157L50.4615 29.9903L50.1147 29.791ZM48.0886 33.5162L50.1638 37.1002L50.51 36.8998L48.4348 33.3158L48.0886 33.5162ZM50.3369 36.8H48.9697V37.2H50.3369V36.8ZM49.1466 36.9067L47.7257 34.2114L47.3719 34.398L48.7928 37.0933L49.1466 36.9067ZM47.3718 34.2117L45.9558 36.907L46.3099 37.093L47.7259 34.3977L47.3718 34.2117ZM46.1328 36.8H44.7461V37.2H46.1328V36.8ZM44.9191 37.1004L46.9991 33.5164L46.6532 33.3156L44.5731 36.8996L44.9191 37.1004ZM46.9996 33.3163L44.9732 29.791L44.6264 29.9903L46.6528 33.5157L46.9996 33.3163ZM44.7998 30.0906H46.1719V29.6906H44.7998V30.0906ZM45.9939 29.9818L47.3513 32.6331L47.7073 32.4508L46.3499 29.7995L45.9939 29.9818ZM52.4756 34.29V34.09H52.2756V34.29H52.4756ZM52.4756 37V37.2H52.6756V37H52.4756ZM51.3037 37H51.1037V37.2H51.3037V37ZM51.3037 29.8906V29.6906H51.1037V29.8906H51.3037ZM53.6816 29.8906L53.6835 29.6906H53.6816V29.8906ZM54.668 30.0518L54.6023 30.2407L54.6029 30.2409L54.668 30.0518ZM55.4492 30.4961L55.317 30.6462L55.4492 30.4961ZM55.957 33.0107L56.139 33.0938L56.1393 33.093L55.957 33.0107ZM55.4492 33.6895L55.3183 33.5382L55.317 33.5394L55.4492 33.6895ZM54.668 34.1338L54.6029 33.9447L54.6023 33.9449L54.668 34.1338ZM52.4756 33.333H52.2756V33.533H52.4756V33.333ZM53.6816 33.333V33.533L53.6849 33.533L53.6816 33.333ZM54.2139 33.2402L54.2841 33.4275L54.2862 33.4267L54.2139 33.2402ZM54.8682 32.6055L54.6824 32.5312L54.6811 32.5348L54.8682 32.6055ZM54.8682 31.6143L54.6796 31.681L54.6814 31.6858L54.8682 31.6143ZM54.2139 30.9453L54.1403 31.1313L54.1416 31.1318L54.2139 30.9453ZM53.6816 30.8477L53.6849 30.6477H53.6816V30.8477ZM52.4756 30.8477V30.6477H52.2756V30.8477H52.4756ZM52.2756 34.29V37H52.6756V34.29H52.2756ZM52.4756 36.8H51.3037V37.2H52.4756V36.8ZM51.5037 37V29.8906H51.1037V37H51.5037ZM51.3037 30.0906H53.6816V29.6906H51.3037V30.0906ZM53.6798 30.0906C54.0189 30.0937 54.3258 30.1445 54.6023 30.2407L54.7337 29.8629C54.4112 29.7507 54.0605 29.6941 53.6835 29.6906L53.6798 30.0906ZM54.6029 30.2409C54.8834 30.3374 55.1205 30.4731 55.317 30.6462L55.5814 30.346C55.3418 30.135 55.058 29.9744 54.733 29.8626L54.6029 30.2409ZM55.317 30.6462C55.5127 30.8185 55.6649 31.0273 55.774 31.275L56.1401 31.1137C56.0083 30.8145 55.8219 30.5578 55.5814 30.346L55.317 30.6462ZM55.774 31.275C55.8818 31.5196 55.9377 31.7992 55.9377 32.1172H56.3377C56.3377 31.7516 56.2732 31.416 56.1401 31.1137L55.774 31.275ZM55.9377 32.1172C55.9377 32.4211 55.8822 32.6904 55.7747 32.9285L56.1393 33.093C56.2728 32.7972 56.3377 32.4708 56.3377 32.1172H55.9377ZM55.7751 32.9276C55.6665 33.1653 55.5146 33.3683 55.3183 33.5382L55.5801 33.8407C55.82 33.633 56.0066 33.3835 56.139 33.0938L55.7751 32.9276ZM55.317 33.5394C55.1205 33.7125 54.8834 33.8481 54.6029 33.9447L54.733 34.3229C55.058 34.2111 55.3418 34.0506 55.5814 33.8396L55.317 33.5394ZM54.6023 33.9449C54.3265 34.0408 54.0202 34.09 53.6816 34.09V34.49C54.0592 34.49 54.4105 34.4351 54.7337 34.3227L54.6023 33.9449ZM53.6816 34.09H52.4756V34.49H53.6816V34.09ZM52.4756 33.533H53.6816V33.133H52.4756V33.533ZM53.6849 33.533C53.9021 33.5294 54.1028 33.4955 54.2841 33.4275L54.1436 33.053C54.0125 33.1022 53.8583 33.1301 53.6784 33.133L53.6849 33.533ZM54.2862 33.4267C54.4679 33.3562 54.6265 33.2579 54.7584 33.1298L54.4798 32.8428C54.3904 32.9296 54.2788 33.0005 54.1416 33.0538L54.2862 33.4267ZM54.7584 33.1298C54.8905 33.0016 54.9897 32.8497 55.0553 32.6761L54.6811 32.5348C54.636 32.6542 54.5691 32.7562 54.4798 32.8428L54.7584 33.1298ZM55.0539 32.6797C55.1228 32.5075 55.1561 32.3225 55.1561 32.127H54.7561C54.7561 32.2764 54.7308 32.4105 54.6825 32.5312L55.0539 32.6797ZM55.1561 32.127C55.1561 31.9174 55.1235 31.7218 55.0549 31.5427L54.6814 31.6858C54.73 31.8127 54.7561 31.9589 54.7561 32.127H55.1561ZM55.0567 31.5475C54.9922 31.3653 54.8942 31.2051 54.7626 31.0696L54.4757 31.3483C54.5654 31.4407 54.6335 31.5507 54.6796 31.681L55.0567 31.5475ZM54.7626 31.0696C54.6304 30.9335 54.4704 30.8303 54.2862 30.7588L54.1416 31.1318C54.2763 31.184 54.3866 31.2566 54.4757 31.3483L54.7626 31.0696ZM54.2875 30.7594C54.1052 30.6872 53.9033 30.6513 53.6849 30.6477L53.6784 31.0476C53.8571 31.0506 54.0101 31.0797 54.1403 31.1313L54.2875 30.7594ZM53.6816 30.6477H52.4756V31.0477H53.6816V30.6477ZM52.2756 30.8477V33.333H52.6756V30.8477H52.2756ZM58.501 36.0332H58.301V36.2332H58.501V36.0332ZM61.8945 36.0332H62.0945V35.8332H61.8945V36.0332ZM61.8945 37V37.2H62.0945V37H61.8945ZM57.3242 37H57.1242V37.2H57.3242V37ZM57.3242 29.8906V29.6906H57.1242V29.8906H57.3242ZM58.501 29.8906H58.701V29.6906H58.501V29.8906ZM58.501 36.2332H61.8945V35.8332H58.501V36.2332ZM61.6945 36.0332V37H62.0945V36.0332H61.6945ZM61.8945 36.8H57.3242V37.2H61.8945V36.8ZM57.5242 37V29.8906H57.1242V37H57.5242ZM57.3242 30.0906H58.501V29.6906H57.3242V30.0906ZM58.301 29.8906V36.0332H58.701V29.8906H58.301ZM67.9688 34.749L67.7724 34.7107L67.772 34.713L67.9688 34.749ZM67.7539 35.5059L67.938 35.5841L67.9398 35.5797L67.7539 35.5059ZM67.3779 36.165L67.5376 36.2855L67.5385 36.2842L67.3779 36.165ZM66.8604 36.6777L66.9739 36.8424L66.9786 36.839L66.8604 36.6777ZM66.2305 36.9854L66.1688 36.7951L66.168 36.7953L66.2305 36.9854ZM64.6973 36.9805L64.6317 37.1694L64.6348 37.1705L64.6973 36.9805ZM64.0674 36.6484L63.9465 36.8078L63.9469 36.8081L64.0674 36.6484ZM63.5693 36.1309L63.405 36.2448L63.4062 36.2466L63.5693 36.1309ZM63.2178 35.4668L63.404 35.3938L63.4038 35.3934L63.2178 35.4668ZM63.0127 34.7295L62.8156 34.7636L62.8157 34.764L63.0127 34.7295ZM63.0176 32.1416L62.8208 32.106L63.0176 32.1416ZM63.2373 31.375L63.0522 31.2994L63.052 31.2999L63.2373 31.375ZM63.584 30.7402L63.4214 30.6237L63.4211 30.6242L63.584 30.7402ZM64.0771 30.2324L64.198 30.3918L64.199 30.3911L64.0771 30.2324ZM64.6973 29.9102L64.7589 30.1004L64.7605 30.0999L64.6973 29.9102ZM67.3828 30.7305L67.2222 30.8496L67.3828 30.7305ZM67.7344 31.3506L67.55 31.4281L67.5508 31.43L67.7344 31.3506ZM67.9688 32.127L67.7722 32.164L67.7723 32.1644L67.9688 32.127ZM66.8652 32.9717H67.0653L67.0652 32.968L66.8652 32.9717ZM66.8311 32.4443L66.6319 32.4631L66.6323 32.4668L66.8311 32.4443ZM66.7432 31.9512L66.9362 31.8989L66.9361 31.8985L66.7432 31.9512ZM66.5479 31.4629L66.3705 31.5554L66.373 31.56L66.5479 31.4629ZM66.2598 31.082L66.3947 30.9344L66.3938 30.9336L66.2598 31.082ZM65.0391 30.8672L65.1109 31.0539L65.115 31.0522L65.0391 30.8672ZM64.707 31.0723L64.5707 30.9259L64.5698 30.9267L64.707 31.0723ZM64.4189 31.458L64.5954 31.5521L64.5963 31.5505L64.4189 31.458ZM64.2383 31.9512L64.4323 31.9997L64.4331 31.9964L64.2383 31.9512ZM64.1504 32.4492L63.9516 32.4271L63.9513 32.4304L64.1504 32.4492ZM64.2334 34.9199L64.4279 34.8731L64.4274 34.8714L64.2334 34.9199ZM64.4043 35.4131L64.2231 35.4979L64.2254 35.5025L64.4043 35.4131ZM64.6729 35.7939L64.5314 35.9354L64.5338 35.9377L64.6729 35.7939ZM65.0195 36.0283L64.9374 36.2108L64.9429 36.2131L65.0195 36.0283ZM65.9277 36.0283L65.8527 35.8429L65.8511 35.8436L65.9277 36.0283ZM66.2793 35.8037L66.1421 35.6582L66.1403 35.6599L66.2793 35.8037ZM66.5625 35.4229L66.3852 35.3303L66.3844 35.3318L66.5625 35.4229ZM66.748 34.9297L66.9419 34.979L66.9421 34.9782L66.748 34.9297ZM66.8311 34.4414L66.6323 34.4189L66.632 34.4223L66.8311 34.4414ZM66.8652 33.9189L67.0652 33.9226V33.9189H66.8652ZM67.8469 33.9189C67.8469 34.1932 67.8219 34.4571 67.7725 34.7107L68.165 34.7873C68.2197 34.5071 68.2469 34.2176 68.2469 33.9189H67.8469ZM67.772 34.713C67.7254 34.9678 67.6573 35.2073 67.568 35.432L67.9398 35.5797C68.0393 35.3291 68.1144 35.0641 68.1655 34.785L67.772 34.713ZM67.5698 35.4277C67.4749 35.6512 67.3574 35.8571 67.2173 36.0459L67.5385 36.2842C67.698 36.0694 67.8311 35.8358 67.938 35.584L67.5698 35.4277ZM67.2182 36.0446C67.0799 36.228 66.9212 36.3851 66.7421 36.5165L66.9786 36.839C67.1901 36.6839 67.3765 36.4992 67.5376 36.2855L67.2182 36.0446ZM66.7468 36.5131C66.5749 36.6317 66.3826 36.7258 66.1688 36.7951L66.2921 37.1756C66.5406 37.0951 66.7682 36.9842 66.9739 36.8424L66.7468 36.5131ZM66.168 36.7953C65.9629 36.8627 65.7337 36.8977 65.4785 36.8977V37.2977C65.7702 37.2977 66.0423 37.2577 66.2929 37.1754L66.168 36.7953ZM65.4785 36.8977C65.2138 36.8977 64.9747 36.8612 64.7597 36.7905L64.6348 37.1705C64.8951 37.256 65.1769 37.2977 65.4785 37.2977V36.8977ZM64.7629 36.7915C64.5469 36.7165 64.3556 36.6154 64.1878 36.4888L63.9469 36.8081C64.1502 36.9615 64.3789 37.0816 64.6317 37.1694L64.7629 36.7915ZM64.1883 36.4891C64.0164 36.3587 63.8644 36.2011 63.7324 36.0151L63.4062 36.2466C63.5607 36.4643 63.7408 36.6517 63.9465 36.8078L64.1883 36.4891ZM63.7337 36.0169C63.603 35.8285 63.493 35.621 63.404 35.3938L63.0316 35.5398C63.1313 35.7944 63.2557 36.0296 63.405 36.2448L63.7337 36.0169ZM63.4038 35.3934C63.3179 35.1756 63.2531 34.943 63.2097 34.695L62.8157 34.764C62.8634 35.0368 62.9353 35.2957 63.0317 35.5402L63.4038 35.3934ZM63.2098 34.6954C63.1662 34.4434 63.1443 34.1846 63.1443 33.9189H62.7443C62.7443 34.2067 62.768 34.4883 62.8156 34.7636L63.2098 34.6954ZM63.1443 33.9189V32.9814H62.7443V33.9189H63.1443ZM63.1443 32.9814C63.1443 32.703 63.1678 32.435 63.2144 32.1772L62.8208 32.106C62.7697 32.3886 62.7443 32.6805 62.7443 32.9814H63.1443ZM63.2144 32.1772C63.2609 31.9198 63.3305 31.6776 63.4227 31.4501L63.052 31.2999C62.9488 31.5542 62.8719 31.8231 62.8208 32.106L63.2144 32.1772ZM63.4225 31.4506C63.5114 31.2329 63.6196 31.035 63.7469 30.8562L63.4211 30.6242C63.2749 30.8296 63.152 31.0548 63.0522 31.2994L63.4225 31.4506ZM63.7465 30.8567C63.875 30.6775 64.0254 30.5227 64.198 30.3918L63.9563 30.0731C63.7513 30.2286 63.5729 30.4124 63.4214 30.6237L63.7465 30.8567ZM64.199 30.3911C64.3621 30.2658 64.5482 30.1687 64.7589 30.1004L64.6356 29.7199C64.384 29.8014 64.1568 29.9191 63.9553 30.0738L64.199 30.3911ZM64.7605 30.0999C64.972 30.0294 65.2075 29.993 65.4688 29.993V29.593C65.1701 29.593 64.8913 29.6347 64.634 29.7204L64.7605 30.0999ZM65.4688 29.993C65.7335 29.993 65.9725 30.0295 66.1875 30.1002L66.3125 29.7202C66.0522 29.6346 65.7704 29.593 65.4688 29.593V29.993ZM66.1875 30.1002C66.4061 30.172 66.6 30.2715 66.7705 30.398L67.0088 30.0766C66.8017 29.9231 66.5691 29.8045 66.3125 29.7202L66.1875 30.1002ZM66.7705 30.398C66.9435 30.5262 67.0939 30.6766 67.2222 30.8496L67.5435 30.6114C67.3918 30.4067 67.2134 30.2283 67.0088 30.0766L66.7705 30.398ZM67.2222 30.8496C67.3522 31.025 67.4616 31.2177 67.55 31.4281L67.9188 31.2731C67.8184 31.0343 67.6933 30.8135 67.5435 30.6114L67.2222 30.8496ZM67.5508 31.43C67.6487 31.6563 67.7227 31.9008 67.7722 32.164L68.1653 32.09C68.1107 31.7997 68.0284 31.5266 67.9179 31.2712L67.5508 31.43ZM67.7723 32.1644C67.8219 32.4247 67.8469 32.697 67.8469 32.9814H68.2469C68.2469 32.6735 68.2198 32.3761 68.1652 32.0895L67.7723 32.1644ZM67.8469 32.9814V33.9189H68.2469V32.9814H67.8469ZM67.0652 32.968C67.0618 32.7829 67.05 32.6008 67.0298 32.4218L66.6323 32.4668C66.6511 32.6329 66.6621 32.8024 66.6653 32.9753L67.0652 32.968ZM67.0302 32.4256C67.0129 32.2425 66.9817 32.0669 66.9362 31.8989L66.5501 32.0035C66.5893 32.148 66.6167 32.3011 66.6319 32.4631L67.0302 32.4256ZM66.9361 31.8985C66.8835 31.7056 66.8127 31.5277 66.7227 31.3658L66.373 31.56C66.4458 31.691 66.5052 31.8386 66.5502 32.0038L66.9361 31.8985ZM66.7252 31.3704C66.6373 31.2019 66.5274 31.0558 66.3947 30.9344L66.1248 31.2296C66.22 31.3166 66.3022 31.4244 66.3705 31.5554L66.7252 31.3704ZM66.3938 30.9336C66.2748 30.8261 66.1388 30.7421 65.9874 30.6815L65.8388 31.0529C65.9477 31.0965 66.0429 31.1557 66.1257 31.2305L66.3938 30.9336ZM65.9874 30.6815C65.8296 30.6184 65.6556 30.5891 65.4688 30.5891V30.9891C65.6139 30.9891 65.7361 31.0118 65.8388 31.0529L65.9874 30.6815ZM65.4688 30.5891C65.2874 30.5891 65.1178 30.6187 64.9632 30.6822L65.115 31.0522C65.2143 31.0115 65.3311 30.9891 65.4688 30.9891V30.5891ZM64.9673 30.6805C64.8178 30.738 64.6849 30.8196 64.5707 30.9259L64.8433 31.2186C64.918 31.1491 65.0065 31.094 65.1109 31.0539L64.9673 30.6805ZM64.5698 30.9267C64.4384 31.0506 64.3293 31.1975 64.2416 31.3655L64.5963 31.5505C64.6649 31.419 64.7478 31.3087 64.8442 31.2178L64.5698 30.9267ZM64.2425 31.3639C64.1552 31.5276 64.0892 31.7088 64.0435 31.9059L64.4331 31.9964C64.472 31.829 64.5265 31.6814 64.5954 31.5521L64.2425 31.3639ZM64.0443 31.9027C64.0028 32.0684 63.972 32.2433 63.9516 32.4271L64.3492 32.4713C64.3678 32.3036 64.3956 32.1464 64.4323 31.9997L64.0443 31.9027ZM63.9513 32.4304C63.9344 32.6093 63.926 32.7897 63.926 32.9717H64.326C64.326 32.8021 64.3338 32.6342 64.3495 32.468L63.9513 32.4304ZM63.926 32.9717V33.9189H64.326V32.9717H63.926ZM63.926 33.9189C63.926 34.0978 63.9344 34.2751 63.9513 34.4508L64.3495 34.4125C64.3338 34.2497 64.326 34.0852 64.326 33.9189H63.926ZM63.9513 34.4508C63.9685 34.6294 63.9978 34.802 64.0394 34.9684L64.4274 34.8714C64.3909 34.7253 64.3648 34.5724 64.3495 34.4125L63.9513 34.4508ZM64.039 34.9667C64.0842 35.1547 64.1455 35.3319 64.2232 35.4979L64.5854 35.3283C64.5199 35.1883 64.4672 35.0367 64.4278 34.8731L64.039 34.9667ZM64.2254 35.5025C64.3086 35.6689 64.4101 35.8141 64.5314 35.9354L64.8143 35.6525C64.7272 35.5655 64.6497 35.4567 64.5832 35.3236L64.2254 35.5025ZM64.5338 35.9377C64.6516 36.0517 64.7865 36.1428 64.9375 36.2107L65.1016 35.8459C64.9921 35.7967 64.8959 35.7315 64.8119 35.6502L64.5338 35.9377ZM64.9429 36.2131C65.1049 36.2802 65.2847 36.3113 65.4785 36.3113V35.9113C65.3273 35.9113 65.2011 35.8871 65.0961 35.8436L64.9429 36.2131ZM65.4785 36.3113C65.6669 36.3113 65.8432 36.2799 66.0043 36.2131L65.8511 35.8436C65.7453 35.8875 65.6221 35.9113 65.4785 35.9113V36.3113ZM66.0028 36.2137C66.1612 36.1496 66.3007 36.0612 66.4183 35.9475L66.1403 35.6599C66.0626 35.735 65.9677 35.7964 65.8527 35.8429L66.0028 36.2137ZM66.4165 35.9492C66.5479 35.8253 66.6558 35.6797 66.7406 35.5139L66.3844 35.3318C66.3194 35.459 66.2386 35.5672 66.1421 35.6582L66.4165 35.9492ZM66.7398 35.5154C66.8257 35.3507 66.8928 35.1717 66.9419 34.979L66.5542 34.8804C66.5121 35.0458 66.4555 35.1955 66.3852 35.3303L66.7398 35.5154ZM66.9421 34.9782C66.9837 34.8118 67.013 34.6392 67.0301 34.4605L66.632 34.4223C66.6166 34.5822 66.5905 34.7351 66.554 34.8812L66.9421 34.9782ZM67.0298 34.4639C67.05 34.2851 67.0618 34.1046 67.0652 33.9226L66.6653 33.9152C66.6621 34.0848 66.6511 34.2527 66.6323 34.4189L67.0298 34.4639ZM67.0652 33.9189V32.9717H66.6652V33.9189H67.0652ZM71.6211 34.2412L71.8004 34.1527L71.7454 34.0412H71.6211V34.2412ZM70.4199 34.2412V34.0412H70.2199V34.2412H70.4199ZM70.4199 37V37.2H70.6199V37H70.4199ZM69.248 37H69.048V37.2H69.248V37ZM69.248 29.8906V29.6906H69.048V29.8906H69.248ZM71.5039 29.8906L71.5057 29.6906H71.5039V29.8906ZM73.3203 30.4326L73.4461 30.2771L73.4436 30.2751L73.3203 30.4326ZM73.8379 31.1016L73.6564 31.1857L73.6568 31.1865L73.8379 31.1016ZM73.9258 32.6934L73.7357 32.631L73.7348 32.6339L73.9258 32.6934ZM72.7197 33.9629L72.6377 33.7805L72.446 33.8667L72.5416 34.0539L72.7197 33.9629ZM74.2383 36.9365H74.4383V36.8884L74.4164 36.8456L74.2383 36.9365ZM74.2383 37V37.2H74.4383V37H74.2383ZM72.9834 37L72.8041 37.0886L72.8591 37.2H72.9834V37ZM70.4199 33.2842H70.2199V33.4842H70.4199V33.2842ZM71.5186 33.2842V33.4842L71.5217 33.4842L71.5186 33.2842ZM72.0801 33.1914L72.1466 33.38L72.1487 33.3793L72.0801 33.1914ZM72.5098 32.9277L72.373 32.7818L72.3703 32.7843L72.5098 32.9277ZM72.7441 31.541L72.5581 31.6146L72.5601 31.6193L72.7441 31.541ZM72.4658 31.1504L72.3357 31.3022L72.337 31.3034L72.4658 31.1504ZM72.0508 30.9307L71.9898 31.1212L71.9933 31.1222L72.0508 30.9307ZM71.5039 30.8477L71.5071 30.6477H71.5039V30.8477ZM70.4199 30.8477V30.6477H70.2199V30.8477H70.4199ZM71.6211 34.0412H70.4199V34.4412H71.6211V34.0412ZM70.2199 34.2412V37H70.6199V34.2412H70.2199ZM70.4199 36.8H69.248V37.2H70.4199V36.8ZM69.448 37V29.8906H69.048V37H69.448ZM69.248 30.0906H71.5039V29.6906H69.248V30.0906ZM71.5021 30.0906C71.854 30.0937 72.1738 30.1388 72.463 30.2241L72.5761 29.8404C72.2467 29.7433 71.8895 29.694 71.5057 29.6906L71.5021 30.0906ZM72.463 30.2241C72.7512 30.309 72.9947 30.4318 73.1971 30.5901L73.4436 30.2751C73.1967 30.0819 72.9064 29.9377 72.5761 29.8404L72.463 30.2241ZM73.1945 30.5881C73.3913 30.7473 73.5451 30.9455 73.6564 31.1857L74.0194 31.0175C73.8832 30.7238 73.692 30.476 73.4461 30.2771L73.1945 30.5881ZM73.6568 31.1865C73.7656 31.4184 73.8234 31.6976 73.8234 32.0293H74.2234C74.2234 31.6514 74.1575 31.312 74.019 31.0166L73.6568 31.1865ZM73.8234 32.0293C73.8234 32.2558 73.7932 32.4557 73.7357 32.631L74.1158 32.7557C74.1885 32.5339 74.2234 32.2911 74.2234 32.0293H73.8234ZM73.7348 32.6339C73.6789 32.8134 73.6002 32.973 73.4994 33.1142L73.8249 33.3467C73.9519 33.1689 74.0489 32.9705 74.1167 32.7528L73.7348 32.6339ZM73.4994 33.1142C73.3975 33.2569 73.2751 33.3823 73.1314 33.4908L73.3725 33.81C73.5478 33.6776 73.6989 33.5231 73.8249 33.3467L73.4994 33.1142ZM73.1314 33.4908C72.9847 33.6016 72.8203 33.6983 72.6377 33.7805L72.8018 34.1453C73.0098 34.0517 73.2002 33.9401 73.3725 33.81L73.1314 33.4908ZM72.5416 34.0539L74.0602 37.0275L74.4164 36.8456L72.8978 33.8719L72.5416 34.0539ZM74.0383 36.9365V37H74.4383V36.9365H74.0383ZM74.2383 36.8H72.9834V37.2H74.2383V36.8ZM73.1627 36.9114L71.8004 34.1527L71.4418 34.3298L72.8041 37.0886L73.1627 36.9114ZM70.4199 33.4842H71.5186V33.0842H70.4199V33.4842ZM71.5217 33.4842C71.7478 33.4806 71.9569 33.447 72.1466 33.38L72.0135 33.0028C71.8712 33.053 71.706 33.0812 71.5154 33.0842L71.5217 33.4842ZM72.1487 33.3793C72.3417 33.3087 72.5098 33.2066 72.6492 33.0711L72.3703 32.7843C72.2753 32.8767 72.157 32.9504 72.0114 33.0036L72.1487 33.3793ZM72.6466 33.0736C72.7734 32.9547 72.8705 32.8097 72.939 32.6421L72.5688 32.4907C72.5202 32.6096 72.4545 32.7054 72.373 32.7818L72.6466 33.0736ZM72.939 32.6421C73.009 32.471 73.0418 32.2818 73.0418 32.0781H72.6418C72.6418 32.239 72.616 32.3754 72.5688 32.4907L72.939 32.6421ZM73.0418 32.0781C73.0418 31.8522 73.006 31.6455 72.9282 31.4627L72.5601 31.6193C72.6125 31.7425 72.6418 31.8939 72.6418 32.0781H73.0418ZM72.9301 31.4674C72.8566 31.2816 72.7447 31.1237 72.5946 30.9974L72.337 31.3034C72.4344 31.3854 72.508 31.4879 72.5582 31.6146L72.9301 31.4674ZM72.596 30.9985C72.4582 30.8805 72.2942 30.7949 72.1083 30.7391L71.9933 31.1222C72.1329 31.1641 72.2456 31.225 72.3357 31.3022L72.596 30.9985ZM72.1117 30.7402C71.9273 30.6812 71.7251 30.6512 71.5071 30.6477L71.5007 31.0476C71.6863 31.0506 71.8488 31.076 71.9898 31.1211L72.1117 30.7402ZM71.5039 30.6477H70.4199V31.0477H71.5039V30.6477ZM70.2199 30.8477V33.2842H70.6199V30.8477H70.2199ZM79.4189 33.8115V34.0115H79.6189V33.8115H79.4189ZM76.4795 33.8115V33.6115H76.2795V33.8115H76.4795ZM76.4795 36.0332H76.2795V36.2332H76.4795V36.0332ZM79.9121 36.0332H80.1121V35.8332H79.9121V36.0332ZM79.9121 37V37.2H80.1121V37H79.9121ZM75.3027 37H75.1027V37.2H75.3027V37ZM75.3027 29.8906V29.6906H75.1027V29.8906H75.3027ZM79.8877 29.8906H80.0877V29.6906H79.8877V29.8906ZM79.8877 30.8623V31.0623H80.0877V30.8623H79.8877ZM76.4795 30.8623V30.6623H76.2795V30.8623H76.4795ZM76.4795 32.8643H76.2795V33.0643H76.4795V32.8643ZM79.4189 32.8643H79.6189V32.6643H79.4189V32.8643ZM79.4189 33.6115H76.4795V34.0115H79.4189V33.6115ZM76.2795 33.8115V36.0332H76.6795V33.8115H76.2795ZM76.4795 36.2332H79.9121V35.8332H76.4795V36.2332ZM79.7121 36.0332V37H80.1121V36.0332H79.7121ZM79.9121 36.8H75.3027V37.2H79.9121V36.8ZM75.5027 37V29.8906H75.1027V37H75.5027ZM75.3027 30.0906H79.8877V29.6906H75.3027V30.0906ZM79.6877 29.8906V30.8623H80.0877V29.8906H79.6877ZM79.8877 30.6623H76.4795V31.0623H79.8877V30.6623ZM76.2795 30.8623V32.8643H76.6795V30.8623H76.2795ZM76.4795 33.0643H79.4189V32.6643H76.4795V33.0643ZM79.2189 32.8643V33.8115H79.6189V32.8643H79.2189ZM83.6328 34.2412L83.8121 34.1527L83.7571 34.0412H83.6328V34.2412ZM82.4316 34.2412V34.0412H82.2316V34.2412H82.4316ZM82.4316 37V37.2H82.6316V37H82.4316ZM81.2598 37H81.0598V37.2H81.2598V37ZM81.2598 29.8906V29.6906H81.0598V29.8906H81.2598ZM83.5156 29.8906L83.5174 29.6906H83.5156V29.8906ZM85.332 30.4326L85.4578 30.2771L85.4553 30.2751L85.332 30.4326ZM85.8496 31.1016L85.6681 31.1857L85.6685 31.1865L85.8496 31.1016ZM85.9375 32.6934L85.7474 32.631L85.7465 32.6339L85.9375 32.6934ZM84.7314 33.9629L84.6494 33.7805L84.4578 33.8667L84.5533 34.0539L84.7314 33.9629ZM86.25 36.9365H86.45V36.8884L86.4281 36.8456L86.25 36.9365ZM86.25 37V37.2H86.45V37H86.25ZM84.9951 37L84.8158 37.0886L84.8708 37.2H84.9951V37ZM82.4316 33.2842H82.2316V33.4842H82.4316V33.2842ZM83.5303 33.2842V33.4842L83.5334 33.4842L83.5303 33.2842ZM84.0918 33.1914L84.1584 33.38L84.1604 33.3793L84.0918 33.1914ZM84.5215 32.9277L84.3847 32.7818L84.3821 32.7843L84.5215 32.9277ZM84.7559 31.541L84.5698 31.6146L84.5718 31.6193L84.7559 31.541ZM84.4775 31.1504L84.3474 31.3022L84.3487 31.3034L84.4775 31.1504ZM84.0625 30.9307L84.0015 31.1212L84.005 31.1222L84.0625 30.9307ZM83.5156 30.8477L83.5189 30.6477H83.5156V30.8477ZM82.4316 30.8477V30.6477H82.2316V30.8477H82.4316ZM83.6328 34.0412H82.4316V34.4412H83.6328V34.0412ZM82.2316 34.2412V37H82.6316V34.2412H82.2316ZM82.4316 36.8H81.2598V37.2H82.4316V36.8ZM81.4598 37V29.8906H81.0598V37H81.4598ZM81.2598 30.0906H83.5156V29.6906H81.2598V30.0906ZM83.5139 30.0906C83.8657 30.0937 84.1856 30.1388 84.4747 30.2241L84.5878 29.8404C84.2585 29.7433 83.9012 29.694 83.5174 29.6906L83.5139 30.0906ZM84.4747 30.2241C84.7629 30.309 85.0065 30.4318 85.2088 30.5901L85.4553 30.2751C85.2084 30.0819 84.9181 29.9377 84.5878 29.8404L84.4747 30.2241ZM85.2063 30.5881C85.403 30.7473 85.5569 30.9455 85.6681 31.1857L86.0311 31.0175C85.895 30.7238 85.7037 30.476 85.4578 30.2771L85.2063 30.5881ZM85.6685 31.1865C85.7774 31.4184 85.8352 31.6976 85.8352 32.0293H86.2352C86.2352 31.6514 86.1693 31.312 86.0307 31.0166L85.6685 31.1865ZM85.8352 32.0293C85.8352 32.2558 85.805 32.4557 85.7475 32.631L86.1275 32.7557C86.2002 32.5339 86.2352 32.2911 86.2352 32.0293H85.8352ZM85.7465 32.6339C85.6906 32.8134 85.6119 32.973 85.5111 33.1142L85.8366 33.3467C85.9636 33.1689 86.0607 32.9705 86.1285 32.7528L85.7465 32.6339ZM85.5111 33.1142C85.4092 33.2569 85.2868 33.3823 85.1432 33.4908L85.3842 33.81C85.5596 33.6776 85.7106 33.5231 85.8366 33.3467L85.5111 33.1142ZM85.1432 33.4908C84.9964 33.6016 84.832 33.6983 84.6494 33.7805L84.8135 34.1453C85.0215 34.0517 85.2119 33.9401 85.3842 33.81L85.1432 33.4908ZM84.5533 34.0539L86.0719 37.0275L86.4281 36.8456L84.9096 33.8719L84.5533 34.0539ZM86.05 36.9365V37H86.45V36.9365H86.05ZM86.25 36.8H84.9951V37.2H86.25V36.8ZM85.1744 36.9114L83.8121 34.1527L83.4535 34.3298L84.8158 37.0886L85.1744 36.9114ZM82.4316 33.4842H83.5303V33.0842H82.4316V33.4842ZM83.5334 33.4842C83.7595 33.4806 83.9686 33.447 84.1584 33.38L84.0252 33.0028C83.883 33.053 83.7177 33.0812 83.5271 33.0842L83.5334 33.4842ZM84.1604 33.3793C84.3534 33.3087 84.5215 33.2066 84.6609 33.0711L84.3821 32.7843C84.2871 32.8767 84.1687 32.9504 84.0232 33.0036L84.1604 33.3793ZM84.6583 33.0736C84.7851 32.9547 84.8822 32.8097 84.9507 32.6421L84.5805 32.4907C84.5319 32.6096 84.4662 32.7054 84.3847 32.7818L84.6583 33.0736ZM84.9507 32.6421C85.0207 32.471 85.0535 32.2818 85.0535 32.0781H84.6535C84.6535 32.239 84.6277 32.3754 84.5805 32.4907L84.9507 32.6421ZM85.0535 32.0781C85.0535 31.8522 85.0177 31.6455 84.9399 31.4627L84.5718 31.6193C84.6242 31.7425 84.6535 31.8939 84.6535 32.0781H85.0535ZM84.9418 31.4674C84.8683 31.2816 84.7564 31.1237 84.6064 30.9974L84.3487 31.3034C84.4461 31.3854 84.5197 31.4879 84.5699 31.6146L84.9418 31.4674ZM84.6077 30.9985C84.4699 30.8805 84.3059 30.7949 84.12 30.7391L84.005 31.1222C84.1446 31.1641 84.2573 31.225 84.3474 31.3022L84.6077 30.9985ZM84.1235 30.7402C83.939 30.6812 83.7368 30.6512 83.5189 30.6477L83.5124 31.0476C83.6981 31.0506 83.8605 31.076 84.0015 31.1211L84.1235 30.7402ZM83.5156 30.6477H82.4316V31.0477H83.5156V30.6477ZM82.2316 30.8477V33.2842H82.6316V30.8477H82.2316Z" fill="white"/>
</svg>
