<svg width="120" height="44" viewBox="0 0 120 44" fill="none" xmlns="http://www.w3.org/2000/svg">
<path d="M48.9419 22.3008C48.1606 22.9648 47.2896 23.4766 46.3286 23.8359C45.3677 24.1875 44.3677 24.3633 43.3286 24.3633C42.5317 24.3633 41.7622 24.2578 41.02 24.0469C40.2856 23.8438 39.5981 23.5547 38.9575 23.1797C38.3169 22.7969 37.731 22.3438 37.1997 21.8203C36.6685 21.2891 36.2153 20.7031 35.8403 20.0625C35.4653 19.4141 35.1724 18.7188 34.9614 17.9766C34.7583 17.2344 34.6567 16.4648 34.6567 15.668C34.6567 14.8711 34.7583 14.1055 34.9614 13.3711C35.1724 12.6367 35.4653 11.9492 35.8403 11.3086C36.2153 10.6602 36.6685 10.0742 37.1997 9.55078C37.731 9.01953 38.3169 8.56641 38.9575 8.19141C39.5981 7.81641 40.2856 7.52734 41.02 7.32422C41.7622 7.11328 42.5317 7.00781 43.3286 7.00781C44.3677 7.00781 45.3677 7.1875 46.3286 7.54688C47.2896 7.89844 48.1606 8.40625 48.9419 9.07031L47.1841 12C46.6763 11.4844 46.0903 11.082 45.4263 10.793C44.7622 10.4961 44.063 10.3477 43.3286 10.3477C42.5942 10.3477 41.9028 10.4883 41.2544 10.7695C40.6138 11.0508 40.0513 11.4336 39.5669 11.918C39.0825 12.3945 38.6997 12.957 38.4185 13.6055C38.1372 14.2461 37.9966 14.9336 37.9966 15.668C37.9966 16.4102 38.1372 17.1055 38.4185 17.7539C38.6997 18.4023 39.0825 18.9688 39.5669 19.4531C40.0513 19.9375 40.6138 20.3203 41.2544 20.6016C41.9028 20.8828 42.5942 21.0234 43.3286 21.0234C43.7505 21.0234 44.1606 20.9727 44.5591 20.8711C44.9575 20.7695 45.3364 20.6289 45.6958 20.4492V15.668H48.9419V22.3008ZM61.4224 17.2852V13.9219C61.4224 13.4609 61.3325 13.0273 61.1528 12.6211C60.981 12.207 60.7427 11.8477 60.438 11.543C60.1333 11.2383 59.7739 11 59.3599 10.8281C58.9536 10.6484 58.52 10.5586 58.0591 10.5586C57.5981 10.5586 57.1606 10.6484 56.7466 10.8281C56.3403 11 55.9849 11.2383 55.6802 11.543C55.3755 11.8477 55.1333 12.207 54.9536 12.6211C54.7817 13.0273 54.6958 13.4609 54.6958 13.9219V17.2852H61.4224ZM64.7856 24H61.4224V20.6367H54.6958V24H51.3442V13.9219C51.3442 12.9922 51.52 12.1211 51.8716 11.3086C52.2231 10.4883 52.6997 9.77344 53.3013 9.16406C53.9106 8.55469 54.6216 8.07422 55.4341 7.72266C56.2544 7.37109 57.1294 7.19531 58.0591 7.19531C58.9888 7.19531 59.8599 7.37109 60.6724 7.72266C61.4927 8.07422 62.2075 8.55469 62.8169 9.16406C63.4263 9.77344 63.9067 10.4883 64.2583 11.3086C64.6099 12.1211 64.7856 12.9922 64.7856 13.9219V24ZM84.3794 24H81.0278V12C81.0278 11.7656 80.981 11.5469 80.8872 11.3438C80.8013 11.1406 80.6802 10.9648 80.5239 10.8164C80.3755 10.6602 80.1997 10.5391 79.9966 10.4531C79.7935 10.3672 79.5747 10.3242 79.3403 10.3242C79.106 10.3242 78.8872 10.3672 78.6841 10.4531C78.481 10.5391 78.3013 10.6602 78.145 10.8164C77.9966 10.9648 77.8794 11.1406 77.7935 11.3438C77.7075 11.5469 77.6646 11.7656 77.6646 12V24H74.3013V12C74.3013 11.7656 74.2583 11.5469 74.1724 11.3438C74.0864 11.1406 73.9653 10.9648 73.8091 10.8164C73.6606 10.6602 73.4849 10.5391 73.2817 10.4531C73.0786 10.3672 72.8599 10.3242 72.6255 10.3242C72.3911 10.3242 72.1724 10.3672 71.9692 10.4531C71.7661 10.5391 71.5864 10.6602 71.4302 10.8164C71.2817 10.9648 71.1646 11.1406 71.0786 11.3438C70.9927 11.5469 70.9497 11.7656 70.9497 12V24H67.5864V12C67.5864 11.3047 67.7153 10.6523 67.9731 10.043C68.2388 9.42578 68.5981 8.89062 69.0513 8.4375C69.5122 7.97656 70.0474 7.61719 70.6567 7.35938C71.2739 7.09375 71.9302 6.96094 72.6255 6.96094C73.2505 6.96094 73.8521 7.07422 74.4302 7.30078C75.0083 7.51953 75.5278 7.83984 75.9888 8.26172C76.4497 7.83984 76.9653 7.51953 77.5356 7.30078C78.1138 7.07422 78.7153 6.96094 79.3403 6.96094C80.0356 6.96094 80.688 7.09375 81.2974 7.35938C81.9146 7.61719 82.4497 7.97656 82.9028 8.4375C83.3638 8.89062 83.7231 9.42578 83.981 10.043C84.2466 10.6523 84.3794 11.3047 84.3794 12V24ZM100.833 18.9609C100.833 19.6562 100.7 20.3086 100.434 20.918C100.168 21.5273 99.8052 22.0625 99.3442 22.5234C98.8911 22.9766 98.3599 23.3359 97.7505 23.6016C97.1411 23.8672 96.4888 24 95.7935 24H87.3911V7.19531H95.7935C96.4888 7.19531 97.1411 7.32812 97.7505 7.59375C98.3599 7.85938 98.8911 8.22266 99.3442 8.68359C99.8052 9.13672 100.168 9.66797 100.434 10.2773C100.7 10.8867 100.833 11.5391 100.833 12.2344C100.833 12.5469 100.79 12.8672 100.704 13.1953C100.618 13.5234 100.497 13.8398 100.34 14.1445C100.184 14.4492 99.9966 14.7266 99.7778 14.9766C99.5591 15.2266 99.3169 15.4336 99.0513 15.5977C99.3247 15.7461 99.5708 15.9492 99.7896 16.207C100.008 16.457 100.196 16.7344 100.352 17.0391C100.508 17.3438 100.625 17.6641 100.704 18C100.79 18.3281 100.833 18.6484 100.833 18.9609ZM90.7544 20.6367H95.7935C96.0278 20.6367 96.2466 20.5938 96.4497 20.5078C96.6528 20.4219 96.8286 20.3047 96.9771 20.1562C97.1333 20 97.2544 19.8203 97.3403 19.6172C97.4263 19.4141 97.4692 19.1953 97.4692 18.9609C97.4692 18.7266 97.4263 18.5078 97.3403 18.3047C97.2544 18.1016 97.1333 17.9258 96.9771 17.7773C96.8286 17.6211 96.6528 17.5 96.4497 17.4141C96.2466 17.3281 96.0278 17.2852 95.7935 17.2852H90.7544V20.6367ZM90.7544 13.9219H95.7935C96.0278 13.9219 96.2466 13.8789 96.4497 13.793C96.6528 13.707 96.8286 13.5898 96.9771 13.4414C97.1333 13.2852 97.2544 13.1055 97.3403 12.9023C97.4263 12.6914 97.4692 12.4688 97.4692 12.2344C97.4692 12 97.4263 11.7812 97.3403 11.5781C97.2544 11.375 97.1333 11.1992 96.9771 11.0508C96.8286 10.8945 96.6528 10.7734 96.4497 10.6875C96.2466 10.6016 96.0278 10.5586 95.7935 10.5586H90.7544V13.9219ZM113.266 17.2852V13.9219C113.266 13.4609 113.176 13.0273 112.997 12.6211C112.825 12.207 112.586 11.8477 112.282 11.543C111.977 11.2383 111.618 11 111.204 10.8281C110.797 10.6484 110.364 10.5586 109.903 10.5586C109.442 10.5586 109.004 10.6484 108.59 10.8281C108.184 11 107.829 11.2383 107.524 11.543C107.219 11.8477 106.977 12.207 106.797 12.6211C106.625 13.0273 106.54 13.4609 106.54 13.9219V17.2852H113.266ZM116.629 24H113.266V20.6367H106.54V24H103.188V13.9219C103.188 12.9922 103.364 12.1211 103.715 11.3086C104.067 10.4883 104.543 9.77344 105.145 9.16406C105.754 8.55469 106.465 8.07422 107.278 7.72266C108.098 7.37109 108.973 7.19531 109.903 7.19531C110.833 7.19531 111.704 7.37109 112.516 7.72266C113.336 8.07422 114.051 8.55469 114.661 9.16406C115.27 9.77344 115.75 10.4883 116.102 11.3086C116.454 12.1211 116.629 12.9922 116.629 13.9219V24Z" fill="white"/>
<path d="M3.49587 31.2051C3.49587 31.2051 7.24024 27.0749 13.1056 27.13C13.1056 27.13 12.8055 25.0375 13.5115 23.3934C13.5115 23.3934 6.80817 21.6654 6.50295 14.0166C6.50295 14.0166 -1.14722 20.4719 3.49587 31.2051Z" fill="url(#paint0_linear_638_1075)"/>
<path d="M4.52832 32.7907C7.64542 37.7586 13.502 39.3278 13.502 39.3278L13.5137 39.1971C12.8489 35.5076 16.148 31.5183 16.148 31.5183C14.7509 30.6491 13.83 28.9644 13.83 28.9644C13.7469 28.9675 13.6802 28.9618 13.6134 28.9561C8.13325 28.9693 4.52832 32.7907 4.52832 32.7907Z" fill="url(#paint1_linear_638_1075)"/>
<path d="M15.5101 39.7623C20.4435 40.6766 23.9384 38.6557 23.9384 38.6557C21.2597 36.4284 21.1228 32.8562 21.1228 32.8562C18.9607 32.9156 17.8942 32.3867 17.8942 32.3867C14.6631 35.4273 15.5101 39.7623 15.5101 39.7623Z" fill="url(#paint2_linear_638_1075)"/>
<path d="M24.9065 32.2161L23.0313 32.7653C23.0313 32.7653 23.027 35.4856 25.9407 37.7408C25.9407 37.7408 28.074 36.327 28.1982 36.0944C28.1982 36.0944 35.4298 34.2497 36.0003 25.2294C36.0003 25.2294 34.4224 25.2872 32.2456 26.4338L33.111 22.5254C33.111 22.5254 25.6221 24.8193 24.9065 32.2161Z" fill="url(#paint3_linear_638_1075)"/>
<path d="M22.6092 13.2843C22.6092 14.1084 21.927 14.7765 21.0854 14.7765C20.2438 14.7765 19.5615 14.1084 19.5615 13.2843C19.5615 12.4601 20.2438 11.792 21.0854 11.792C21.927 11.792 22.6092 12.4601 22.6092 13.2843Z" fill="url(#paint4_linear_638_1075)"/>
<path d="M24.9841 5.03441C23.8004 5.83516 22.5085 6.63173 21.1451 7.3006C19.7818 7.96948 18.3723 8.51788 16.9802 8.87017L13.9648 9.61581C13.2651 9.80432 12.5475 9.96089 11.8551 10.1247C11.1302 10.306 9.54409 10.8038 8.39536 12.0838C8.39536 12.0838 7.3188 17.4333 12.164 20.8313C12.164 20.8313 14.0292 22.1964 17.4354 21.8844C18.985 21.7381 20.4644 21.2767 21.8173 20.5512C22.9167 19.9408 24.4695 19.0044 25.454 17.9992C25.5414 17.8901 25.6376 17.797 25.7339 17.7039C25.8064 17.6442 25.9027 17.5511 26.0063 17.4333L32.1846 11.0908C31.807 10.5671 31.0623 10.4478 30.5275 10.8175L27.1484 13.1483C27.5109 10.8791 25.8196 5.35403 25.8196 5.35403C25.7168 5.05645 25.4482 4.99299 25.2406 5.00059C25.0908 4.99793 24.9841 5.03441 24.9841 5.03441ZM18.1045 13.2677C18.0928 11.6555 19.4403 10.352 21.0865 10.3406C22.7254 10.3539 24.0729 11.6646 24.0593 13.2696C24.0709 14.8817 22.7324 16.2012 21.0772 16.1966C19.4473 16.1993 18.0998 14.8885 18.1045 13.2677Z" fill="url(#paint5_linear_638_1075)"/>
<path d="M22.6092 13.2833C22.6092 14.1075 21.927 14.7756 21.0854 14.7756C20.2438 14.7756 19.5615 14.1075 19.5615 13.2833C19.5615 12.4591 20.2438 11.791 21.0854 11.791C21.927 11.791 22.6092 12.4591 22.6092 13.2833Z" fill="url(#paint6_linear_638_1075)"/>
<path d="M22.6092 13.2833C22.6092 14.1075 21.927 14.7756 21.0854 14.7756C20.2438 14.7756 19.5615 14.1075 19.5615 13.2833C19.5615 12.4591 20.2438 11.791 21.0854 11.791C21.927 11.791 22.6092 12.4591 22.6092 13.2833Z" fill="url(#paint7_linear_638_1075)"/>
<rect x="57" y="27" width="61" height="13" rx="6.5" fill="#FF4B54"/>
<path d="M68.1467 37H63.3469V29.998H68.1467V31.3994H64.7483V32.8008H67.0481V34.2021H64.7483V35.5986H68.1467V37ZM74.5676 37H72.8684L71.5208 34.7393L70.1682 37H68.4788L70.6272 33.499L68.4788 29.998H70.1682L71.5208 32.2588L72.8684 29.998H74.5676L72.4192 33.499L74.5676 37ZM76.6233 31.3994V34.2021H78.0247C78.2167 34.2021 78.3974 34.1663 78.5667 34.0947C78.7359 34.0199 78.884 33.9189 79.011 33.792C79.1379 33.665 79.2372 33.5169 79.3088 33.3477C79.3837 33.1751 79.4211 32.9928 79.4211 32.8008C79.4211 32.6087 79.3837 32.4281 79.3088 32.2588C79.2372 32.0863 79.1379 31.9365 79.011 31.8096C78.884 31.6826 78.7359 31.5833 78.5667 31.5117C78.3974 31.4368 78.2167 31.3994 78.0247 31.3994H76.6233ZM76.6233 37H75.2219V29.998H78.0247C78.2818 29.998 78.5292 30.0322 78.7668 30.1006C79.0045 30.1657 79.2258 30.2601 79.4309 30.3838C79.6392 30.5042 79.828 30.6507 79.9973 30.8232C80.1698 30.9925 80.3163 31.1813 80.4368 31.3896C80.5605 31.598 80.6549 31.821 80.72 32.0586C80.7883 32.2962 80.8225 32.5436 80.8225 32.8008C80.8225 33.1849 80.7493 33.5479 80.6028 33.8896C80.4563 34.2282 80.2561 34.5244 80.0022 34.7783C79.7483 35.0322 79.4504 35.2324 79.1086 35.3789C78.7701 35.5254 78.4088 35.5986 78.0247 35.5986H76.6233V37ZM86.55 37H81.6477V29.998H83.0491V35.5986H86.55V37ZM93.8987 33.5283C93.8987 33.8604 93.8547 34.181 93.7668 34.4902C93.6822 34.7962 93.5618 35.0843 93.4055 35.3545C93.2493 35.6214 93.0605 35.8656 92.8391 36.0869C92.6178 36.3083 92.3736 36.4987 92.1067 36.6582C91.8398 36.8145 91.5517 36.9349 91.2424 37.0195C90.9332 37.1074 90.6125 37.1514 90.2805 37.1514C89.9485 37.1514 89.6278 37.1074 89.3186 37.0195C89.0126 36.9349 88.7245 36.8145 88.4543 36.6582C88.1874 36.4987 87.9433 36.3083 87.7219 36.0869C87.5006 35.8656 87.3101 35.6214 87.1506 35.3545C86.9944 35.0843 86.8723 34.7962 86.7844 34.4902C86.6998 34.181 86.6575 33.8604 86.6575 33.5283C86.6575 33.1963 86.6998 32.8757 86.7844 32.5664C86.8723 32.2572 86.9944 31.9691 87.1506 31.7021C87.3101 31.4352 87.5006 31.1911 87.7219 30.9697C87.9433 30.7484 88.1874 30.5596 88.4543 30.4033C88.7245 30.2471 89.0126 30.1266 89.3186 30.042C89.6278 29.9541 89.9485 29.9102 90.2805 29.9102C90.6125 29.9102 90.9332 29.9541 91.2424 30.042C91.5517 30.1266 91.8398 30.2471 92.1067 30.4033C92.3736 30.5596 92.6178 30.7484 92.8391 30.9697C93.0605 31.1911 93.2493 31.4352 93.4055 31.7021C93.5618 31.9691 93.6822 32.2572 93.7668 32.5664C93.8547 32.8757 93.8987 33.1963 93.8987 33.5283ZM92.5071 33.5283C92.5071 33.2223 92.4485 32.9342 92.3313 32.6641C92.2141 32.3906 92.0546 32.1546 91.8528 31.9561C91.6542 31.7542 91.4182 31.5947 91.1448 31.4775C90.8746 31.3604 90.5865 31.3018 90.2805 31.3018C89.9713 31.3018 89.6816 31.3604 89.4114 31.4775C89.1412 31.5947 88.9052 31.7542 88.7034 31.9561C88.5015 32.1546 88.342 32.3906 88.2249 32.6641C88.1077 32.9342 88.0491 33.2223 88.0491 33.5283C88.0491 33.8343 88.1077 34.1224 88.2249 34.3926C88.342 34.6595 88.5015 34.8939 88.7034 35.0957C88.9052 35.2975 89.1412 35.457 89.4114 35.5742C89.6816 35.6914 89.9713 35.75 90.2805 35.75C90.5865 35.75 90.8746 35.6914 91.1448 35.5742C91.4182 35.457 91.6542 35.2975 91.8528 35.0957C92.0546 34.8939 92.2141 34.6595 92.3313 34.3926C92.4485 34.1224 92.5071 33.8343 92.5071 33.5283ZM96.2229 31.3994V34.2021H97.6243C97.8163 34.2021 97.997 34.1663 98.1663 34.0947C98.3355 34.0199 98.4836 33.9189 98.6106 33.792C98.7375 33.665 98.8368 33.5169 98.9084 33.3477C98.9833 33.1751 99.0208 32.9928 99.0208 32.8008C99.0208 32.6087 98.9833 32.4281 98.9084 32.2588C98.8368 32.0863 98.7375 31.9365 98.6106 31.8096C98.4836 31.6826 98.3355 31.5833 98.1663 31.5117C97.997 31.4368 97.8163 31.3994 97.6243 31.3994H96.2229ZM96.2229 37H94.8215V29.998H97.6243C97.8814 29.998 98.1288 30.0322 98.3665 30.1006C98.6041 30.1657 98.8254 30.2601 99.0305 30.3838C99.2389 30.5042 99.4277 30.6507 99.5969 30.8232C99.7694 30.9925 99.9159 31.1813 100.036 31.3896C100.16 31.598 100.254 31.821 100.32 32.0586C100.388 32.2962 100.422 32.5436 100.422 32.8008C100.422 33.0417 100.391 33.276 100.329 33.5039C100.271 33.7318 100.184 33.9482 100.071 34.1533C99.9599 34.3584 99.8232 34.5472 99.6604 34.7197C99.4976 34.8923 99.3153 35.042 99.1135 35.1689L99.8899 37H98.4006L97.7903 35.5889L96.2229 35.5986V37ZM106.145 37H101.345V29.998H106.145V31.3994H102.746V32.8008H105.046V34.2021H102.746V35.5986H106.145V37ZM108.528 31.3994V34.2021H109.929C110.121 34.2021 110.302 34.1663 110.471 34.0947C110.64 34.0199 110.788 33.9189 110.915 33.792C111.042 33.665 111.142 33.5169 111.213 33.3477C111.288 33.1751 111.325 32.9928 111.325 32.8008C111.325 32.6087 111.288 32.4281 111.213 32.2588C111.142 32.0863 111.042 31.9365 110.915 31.8096C110.788 31.6826 110.64 31.5833 110.471 31.5117C110.302 31.4368 110.121 31.3994 109.929 31.3994H108.528ZM108.528 37H107.126V29.998H109.929C110.186 29.998 110.434 30.0322 110.671 30.1006C110.909 30.1657 111.13 30.2601 111.335 30.3838C111.544 30.5042 111.732 30.6507 111.902 30.8232C112.074 30.9925 112.221 31.1813 112.341 31.3896C112.465 31.598 112.559 31.821 112.624 32.0586C112.693 32.2962 112.727 32.5436 112.727 32.8008C112.727 33.0417 112.696 33.276 112.634 33.5039C112.575 33.7318 112.489 33.9482 112.375 34.1533C112.265 34.3584 112.128 34.5472 111.965 34.7197C111.802 34.8923 111.62 35.042 111.418 35.1689L112.195 37H110.705L110.095 35.5889L108.528 35.5986V37Z" fill="black"/>
<defs>
<linearGradient id="paint0_linear_638_1075" x1="14.7589" y1="38.4885" x2="6.11725" y2="22.3742" gradientUnits="userSpaceOnUse">
<stop stop-color="#FF1653"/>
<stop offset="1" stop-color="#FF7A53"/>
</linearGradient>
<linearGradient id="paint1_linear_638_1075" x1="14.0822" y1="38.8496" x2="5.44057" y2="22.7353" gradientUnits="userSpaceOnUse">
<stop stop-color="#FF1653"/>
<stop offset="1" stop-color="#FF7A53"/>
</linearGradient>
<linearGradient id="paint2_linear_638_1075" x1="18.4369" y1="36.5161" x2="9.7953" y2="20.4018" gradientUnits="userSpaceOnUse">
<stop stop-color="#FF1653"/>
<stop offset="1" stop-color="#FF7A53"/>
</linearGradient>
<linearGradient id="paint3_linear_638_1075" x1="29.9524" y1="30.3391" x2="21.3108" y2="14.2248" gradientUnits="userSpaceOnUse">
<stop stop-color="#FF1653"/>
<stop offset="1" stop-color="#FF7A53"/>
</linearGradient>
<linearGradient id="paint4_linear_638_1075" x1="30.4723" y1="30.0638" x2="21.8307" y2="13.9495" gradientUnits="userSpaceOnUse">
<stop stop-color="#FF1653"/>
<stop offset="1" stop-color="#FF7A53"/>
</linearGradient>
<linearGradient id="paint5_linear_638_1075" x1="29.7403" y1="30.4519" x2="21.0987" y2="14.3376" gradientUnits="userSpaceOnUse">
<stop stop-color="#FF1653"/>
<stop offset="1" stop-color="#FF7A53"/>
</linearGradient>
<linearGradient id="paint6_linear_638_1075" x1="30.4723" y1="30.0628" x2="21.8307" y2="13.9485" gradientUnits="userSpaceOnUse">
<stop stop-color="#FF1653"/>
<stop offset="1" stop-color="#FF7A53"/>
</linearGradient>
<linearGradient id="paint7_linear_638_1075" x1="30.4723" y1="30.0628" x2="21.8307" y2="13.9485" gradientUnits="userSpaceOnUse">
<stop stop-color="#FF1653"/>
<stop offset="1" stop-color="#FF7A53"/>
</linearGradient>
</defs>
</svg>
