<svg width="120" height="42" viewBox="0 0 120 42" fill="none" xmlns="http://www.w3.org/2000/svg">
<path fill-rule="evenodd" clip-rule="evenodd" d="M32.7466 20.3239C32.7466 27.675 26.6053 34.2214 19.3475 34.2214H13.9309C13.7366 34.2214 13.5604 34.3337 13.4642 34.5046C12.5954 36.0491 11.3713 36.5825 8.23919 36.5799C7.87927 36.5796 7.637 36.2088 7.7818 35.8751L10.8726 32.7446L7.69802 29.5292C7.5885 29.2016 7.83406 28.8671 8.17551 28.869C10.8581 28.8835 12.2794 29.2137 13.4563 30.8588C13.5576 31.0005 13.718 31.0896 13.8907 31.0896H15.5468C20.4726 31.0896 23.7155 28.3727 24.8238 25.1522H20.654C19.8613 25.1522 19.2186 24.5095 19.2186 23.7167C19.2186 22.924 19.8613 22.2813 20.654 22.2813H25.2386C25.2032 21.5719 25.0648 20.8688 24.8191 20.1934H19.2368C18.444 20.1934 17.8014 19.5507 17.8014 18.758C17.8014 17.9652 18.444 17.3225 19.2368 17.3225H22.8753C21.1565 15.7589 18.4705 14.7127 14.7093 14.7127C14.6416 14.7127 14.5745 14.7119 14.5081 14.7104C14.4851 14.7119 14.4618 14.7127 14.4384 14.7127H6.21924C5.64268 14.7127 5.17529 14.2453 5.17529 13.6687C5.17529 13.0922 5.64268 12.6248 6.21924 12.6248H9.90758C8.7211 11.216 8.13442 9.32575 7.63208 7.70727C7.47294 7.19455 7.32227 6.70911 7.16367 6.27488C7.04019 5.93678 7.28834 5.57812 7.64425 5.57812H19.4763C27.1116 6.36874 33.1365 13.7879 32.7466 20.3239ZM18.9609 9.88438C18.9609 11.614 17.5766 13.0162 15.8688 13.0162C14.1611 13.0162 12.7767 11.614 12.7767 9.88438C12.7767 8.15471 14.1611 6.75253 15.8688 6.75253C17.5766 6.75253 18.9609 8.15471 18.9609 9.88438ZM15.8688 11.1894C16.5804 11.1894 17.1572 10.6051 17.1572 9.88444C17.1572 9.16375 16.5804 8.57951 15.8688 8.57951C15.1573 8.57951 14.5804 9.16375 14.5804 9.88444C14.5804 10.6051 15.1573 11.1894 15.8688 11.1894Z" fill="url(#paint0_linear_565_143)"/>
<mask id="path-2-outside-1_565_143" maskUnits="userSpaceOnUse" x="37" y="6" width="79" height="21" fill="black">
<rect fill="white" x="37" y="6" width="79" height="21"/>
<path d="M51.2664 23.4906C51.2665 23.5485 51.2469 23.6048 51.209 23.6485C50.9864 23.9057 50.6925 24.1664 50.3271 24.4307C49.9294 24.7184 49.4596 24.9766 48.918 25.2051C48.3678 25.4421 47.7542 25.6325 47.0771 25.7764C46.4001 25.9202 45.6722 25.9922 44.8936 25.9922C44.2165 25.9922 43.5775 25.9118 42.9766 25.751C42.3841 25.5986 41.8382 25.3743 41.3389 25.0781C40.848 24.7734 40.3994 24.401 39.9932 23.9609C39.5954 23.5208 39.2568 23.0173 38.9775 22.4502C38.6559 21.8239 38.4105 21.1172 38.2412 20.3301C38.0804 19.543 38 18.6882 38 17.7656V15.252C38 14.3717 38.0804 13.555 38.2412 12.8018C38.402 12.04 38.6305 11.3503 38.9268 10.7324C39.2061 10.1823 39.5277 9.68717 39.8916 9.24707C40.264 8.80697 40.6702 8.42611 41.1104 8.10449C41.6266 7.74056 42.1895 7.46549 42.7988 7.2793C43.4082 7.0931 44.0514 7 44.7285 7C45.7695 7 46.6751 7.13118 47.4453 7.39355C48.224 7.65592 48.8799 8.03255 49.4131 8.52344C49.9463 9.02279 50.361 9.62793 50.6572 10.3389C50.9301 10.9755 51.1181 11.6834 51.2213 12.4626C51.2407 12.6097 51.1247 12.7383 50.9763 12.7383H47.9945C47.8691 12.7383 47.7636 12.6452 47.7435 12.5214C47.6847 12.1605 47.6022 11.835 47.4961 11.5449C47.3776 11.1979 47.2126 10.9059 47.001 10.6689C46.764 10.4066 46.4635 10.2119 46.0996 10.085C45.7441 9.94954 45.3167 9.88184 44.8174 9.88184C44.5465 9.88184 44.2842 9.92415 44.0303 10.0088C43.7764 10.0934 43.5394 10.2161 43.3193 10.377C43.0316 10.597 42.7692 10.8848 42.5322 11.2402C42.3037 11.5957 42.1133 12.0146 41.9609 12.4971C41.8424 12.8695 41.7493 13.2842 41.6816 13.7412C41.6224 14.1982 41.5928 14.6934 41.5928 15.2266V17.7656C41.5928 18.4342 41.6351 19.0436 41.7197 19.5938C41.8128 20.1439 41.9398 20.6305 42.1006 21.0537C42.2021 21.2992 42.3164 21.5277 42.4434 21.7393C42.5788 21.9424 42.7269 22.1243 42.8877 22.2852C43.1585 22.556 43.4717 22.7633 43.8271 22.9072C44.1911 23.0426 44.6016 23.1146 45.0586 23.123C45.3379 23.123 45.613 23.1019 45.8838 23.0596C46.1546 23.0173 46.4085 22.958 46.6455 22.8818C46.8825 22.8057 47.0898 22.721 47.2676 22.6279C47.4161 22.5469 47.535 22.4632 47.6242 22.3769C47.6665 22.336 47.6866 22.2783 47.6869 22.2195L47.6983 19.2099C47.6988 19.0715 47.5867 18.959 47.4483 18.959H44.8896C44.7516 18.959 44.6396 18.8471 44.6396 18.709V16.543C44.6396 16.4049 44.7516 16.293 44.8896 16.293H51.0043C51.1422 16.293 51.2541 16.4046 51.2543 16.5425L51.2664 23.4906Z"/>
<path d="M63.3148 22.0616C63.2846 21.9536 63.1861 21.8789 63.074 21.8789H57.9049C57.793 21.8789 57.6948 21.9532 57.6643 22.0609L56.6755 25.5563C56.645 25.664 56.5468 25.7383 56.4349 25.7383H53.2112C53.0411 25.7383 52.9207 25.5721 52.9736 25.4104L58.8655 7.42607C58.8991 7.32336 58.995 7.25391 59.103 7.25391H61.9769C62.0855 7.25391 62.1817 7.32402 62.2149 7.4274L67.9956 25.4118C68.0475 25.5732 67.9271 25.7383 67.7576 25.7383H64.5325C64.4203 25.7383 64.3219 25.6636 64.2917 25.5556L63.3148 22.0616ZM58.6827 18.5261C58.6372 18.6858 58.7571 18.8447 58.9231 18.8447H62.0968C62.2622 18.8447 62.382 18.6871 62.3377 18.5278L60.7719 12.895C60.7043 12.6519 60.3599 12.6507 60.2906 12.8934L58.6827 18.5261Z"/>
<path d="M73.9742 7.25391C74.0887 7.25391 74.1886 7.33171 74.2166 7.44275L75.694 13.299C75.7565 13.5467 76.1063 13.5523 76.1767 13.3069L77.8621 7.43494C77.8929 7.32776 77.9909 7.25391 78.1024 7.25391H82.0947C82.2328 7.25391 82.3447 7.36584 82.3447 7.50391V25.4883C82.3447 25.6264 82.2328 25.7383 82.0947 25.7383H79.3193C79.1813 25.7383 79.0693 25.6264 79.0693 25.4883V20.2666L79.1899 13.4218C79.1951 13.1316 78.7846 13.0672 78.7007 13.345L76.8506 19.4669C76.8187 19.5724 76.7215 19.6445 76.6113 19.6445H75.2214C75.1095 19.6445 75.0112 19.5702 74.9808 19.4625L73.3873 13.8249C73.3076 13.5429 72.8914 13.6045 72.8968 13.8975L73.0137 20.2666V25.4883C73.0137 25.6264 72.9017 25.7383 72.7637 25.7383H69.9883C69.8502 25.7383 69.7383 25.6264 69.7383 25.4883V7.50391C69.7383 7.36584 69.8502 7.25391 69.9883 7.25391H73.9742Z"/>
<path d="M85.6289 25.7383C85.4908 25.7383 85.3789 25.6264 85.3789 25.4883V7.50391C85.3789 7.36584 85.4908 7.25391 85.6289 7.25391H91.5869C92.5941 7.25391 93.5081 7.35547 94.3291 7.55859C95.1585 7.76172 95.8652 8.07064 96.4492 8.48535C97.0332 8.90007 97.4818 9.4248 97.7949 10.0596C98.1165 10.6943 98.2773 11.4434 98.2773 12.3066C98.2689 12.8652 98.1673 13.3942 97.9727 13.8936C97.7865 14.3844 97.5072 14.8161 97.1348 15.1885C96.9316 15.3916 96.6989 15.5778 96.4365 15.7471C96.1841 15.9153 95.9025 16.0585 95.5916 16.1766C95.5882 16.1779 95.5859 16.1811 95.5859 16.1848C95.5859 16.1887 95.5886 16.1921 95.5924 16.1932C96.1987 16.3622 96.679 16.5774 97.0332 16.8389C97.3971 17.1012 97.7018 17.4059 97.9473 17.7529C98.2012 18.1253 98.3874 18.5316 98.5059 18.9717C98.6328 19.4033 98.6963 19.8519 98.6963 20.3174C98.6963 21.2061 98.5439 21.9889 98.2393 22.666C97.9346 23.3431 97.4987 23.9102 96.9316 24.3672C96.3646 24.8242 95.6748 25.167 94.8623 25.3955C94.0498 25.624 93.1357 25.7383 92.1201 25.7383H85.6289ZM89.209 17.5879C89.0709 17.5879 88.959 17.6998 88.959 17.8379V22.6064C88.959 22.7445 89.0709 22.8564 89.209 22.8564H92.1328C92.5983 22.8564 93.013 22.7972 93.377 22.6787C93.7493 22.5602 94.0583 22.3994 94.3037 22.1963C94.5745 21.9678 94.7777 21.6927 94.9131 21.3711C95.057 21.0495 95.1289 20.6898 95.1289 20.292C95.1289 19.8773 95.0739 19.5049 94.9639 19.1748C94.8623 18.8447 94.6973 18.5654 94.4688 18.3369C94.2402 18.0999 93.944 17.918 93.5801 17.791C93.2161 17.6641 92.7845 17.5964 92.2852 17.5879H89.209ZM88.959 14.7607C88.959 14.8988 89.0709 15.0107 89.209 15.0107H91.6123C92.154 15.0023 92.6322 14.9388 93.0469 14.8203C93.4616 14.6934 93.7959 14.5072 94.0498 14.2617C94.2614 14.0671 94.4222 13.8301 94.5322 13.5508C94.6507 13.2715 94.71 12.9541 94.71 12.5986C94.71 12.2262 94.6592 11.9004 94.5576 11.6211C94.4645 11.3418 94.3206 11.109 94.126 10.9229C93.8721 10.6605 93.5293 10.4701 93.0977 10.3516C92.6745 10.2331 92.1751 10.1696 91.5996 10.1611H89.209C89.0709 10.1611 88.959 10.2731 88.959 10.4111V14.7607Z"/>
<path d="M110.16 22.0616C110.13 21.9536 110.032 21.8789 109.92 21.8789H104.751C104.639 21.8789 104.541 21.9532 104.51 22.0609L103.521 25.5563C103.491 25.664 103.393 25.7383 103.281 25.7383H100.057C99.8868 25.7383 99.7664 25.5721 99.8193 25.4104L105.711 7.42607C105.745 7.32336 105.841 7.25391 105.949 7.25391H108.823C108.931 7.25391 109.027 7.32402 109.061 7.4274L114.841 25.4118C114.893 25.5732 114.773 25.7383 114.603 25.7383H111.378C111.266 25.7383 111.168 25.6636 111.137 25.5556L110.16 22.0616ZM105.528 18.5261C105.483 18.6858 105.603 18.8447 105.769 18.8447H108.943C109.108 18.8447 109.228 18.6871 109.183 18.5278L107.618 12.895C107.55 12.6519 107.206 12.6507 107.136 12.8934L105.528 18.5261Z"/>
</mask>
<path d="M51.2664 23.4906C51.2665 23.5485 51.2469 23.6048 51.209 23.6485C50.9864 23.9057 50.6925 24.1664 50.3271 24.4307C49.9294 24.7184 49.4596 24.9766 48.918 25.2051C48.3678 25.4421 47.7542 25.6325 47.0771 25.7764C46.4001 25.9202 45.6722 25.9922 44.8936 25.9922C44.2165 25.9922 43.5775 25.9118 42.9766 25.751C42.3841 25.5986 41.8382 25.3743 41.3389 25.0781C40.848 24.7734 40.3994 24.401 39.9932 23.9609C39.5954 23.5208 39.2568 23.0173 38.9775 22.4502C38.6559 21.8239 38.4105 21.1172 38.2412 20.3301C38.0804 19.543 38 18.6882 38 17.7656V15.252C38 14.3717 38.0804 13.555 38.2412 12.8018C38.402 12.04 38.6305 11.3503 38.9268 10.7324C39.2061 10.1823 39.5277 9.68717 39.8916 9.24707C40.264 8.80697 40.6702 8.42611 41.1104 8.10449C41.6266 7.74056 42.1895 7.46549 42.7988 7.2793C43.4082 7.0931 44.0514 7 44.7285 7C45.7695 7 46.6751 7.13118 47.4453 7.39355C48.224 7.65592 48.8799 8.03255 49.4131 8.52344C49.9463 9.02279 50.361 9.62793 50.6572 10.3389C50.9301 10.9755 51.1181 11.6834 51.2213 12.4626C51.2407 12.6097 51.1247 12.7383 50.9763 12.7383H47.9945C47.8691 12.7383 47.7636 12.6452 47.7435 12.5214C47.6847 12.1605 47.6022 11.835 47.4961 11.5449C47.3776 11.1979 47.2126 10.9059 47.001 10.6689C46.764 10.4066 46.4635 10.2119 46.0996 10.085C45.7441 9.94954 45.3167 9.88184 44.8174 9.88184C44.5465 9.88184 44.2842 9.92415 44.0303 10.0088C43.7764 10.0934 43.5394 10.2161 43.3193 10.377C43.0316 10.597 42.7692 10.8848 42.5322 11.2402C42.3037 11.5957 42.1133 12.0146 41.9609 12.4971C41.8424 12.8695 41.7493 13.2842 41.6816 13.7412C41.6224 14.1982 41.5928 14.6934 41.5928 15.2266V17.7656C41.5928 18.4342 41.6351 19.0436 41.7197 19.5938C41.8128 20.1439 41.9398 20.6305 42.1006 21.0537C42.2021 21.2992 42.3164 21.5277 42.4434 21.7393C42.5788 21.9424 42.7269 22.1243 42.8877 22.2852C43.1585 22.556 43.4717 22.7633 43.8271 22.9072C44.1911 23.0426 44.6016 23.1146 45.0586 23.123C45.3379 23.123 45.613 23.1019 45.8838 23.0596C46.1546 23.0173 46.4085 22.958 46.6455 22.8818C46.8825 22.8057 47.0898 22.721 47.2676 22.6279C47.4161 22.5469 47.535 22.4632 47.6242 22.3769C47.6665 22.336 47.6866 22.2783 47.6869 22.2195L47.6983 19.2099C47.6988 19.0715 47.5867 18.959 47.4483 18.959H44.8896C44.7516 18.959 44.6396 18.8471 44.6396 18.709V16.543C44.6396 16.4049 44.7516 16.293 44.8896 16.293H51.0043C51.1422 16.293 51.2541 16.4046 51.2543 16.5425L51.2664 23.4906Z" fill="white"/>
<path d="M63.3148 22.0616C63.2846 21.9536 63.1861 21.8789 63.074 21.8789H57.9049C57.793 21.8789 57.6948 21.9532 57.6643 22.0609L56.6755 25.5563C56.645 25.664 56.5468 25.7383 56.4349 25.7383H53.2112C53.0411 25.7383 52.9207 25.5721 52.9736 25.4104L58.8655 7.42607C58.8991 7.32336 58.995 7.25391 59.103 7.25391H61.9769C62.0855 7.25391 62.1817 7.32402 62.2149 7.4274L67.9956 25.4118C68.0475 25.5732 67.9271 25.7383 67.7576 25.7383H64.5325C64.4203 25.7383 64.3219 25.6636 64.2917 25.5556L63.3148 22.0616ZM58.6827 18.5261C58.6372 18.6858 58.7571 18.8447 58.9231 18.8447H62.0968C62.2622 18.8447 62.382 18.6871 62.3377 18.5278L60.7719 12.895C60.7043 12.6519 60.3599 12.6507 60.2906 12.8934L58.6827 18.5261Z" fill="white"/>
<path d="M73.9742 7.25391C74.0887 7.25391 74.1886 7.33171 74.2166 7.44275L75.694 13.299C75.7565 13.5467 76.1063 13.5523 76.1767 13.3069L77.8621 7.43494C77.8929 7.32776 77.9909 7.25391 78.1024 7.25391H82.0947C82.2328 7.25391 82.3447 7.36584 82.3447 7.50391V25.4883C82.3447 25.6264 82.2328 25.7383 82.0947 25.7383H79.3193C79.1813 25.7383 79.0693 25.6264 79.0693 25.4883V20.2666L79.1899 13.4218C79.1951 13.1316 78.7846 13.0672 78.7007 13.345L76.8506 19.4669C76.8187 19.5724 76.7215 19.6445 76.6113 19.6445H75.2214C75.1095 19.6445 75.0112 19.5702 74.9808 19.4625L73.3873 13.8249C73.3076 13.5429 72.8914 13.6045 72.8968 13.8975L73.0137 20.2666V25.4883C73.0137 25.6264 72.9017 25.7383 72.7637 25.7383H69.9883C69.8502 25.7383 69.7383 25.6264 69.7383 25.4883V7.50391C69.7383 7.36584 69.8502 7.25391 69.9883 7.25391H73.9742Z" fill="white"/>
<path d="M85.6289 25.7383C85.4908 25.7383 85.3789 25.6264 85.3789 25.4883V7.50391C85.3789 7.36584 85.4908 7.25391 85.6289 7.25391H91.5869C92.5941 7.25391 93.5081 7.35547 94.3291 7.55859C95.1585 7.76172 95.8652 8.07064 96.4492 8.48535C97.0332 8.90007 97.4818 9.4248 97.7949 10.0596C98.1165 10.6943 98.2773 11.4434 98.2773 12.3066C98.2689 12.8652 98.1673 13.3942 97.9727 13.8936C97.7865 14.3844 97.5072 14.8161 97.1348 15.1885C96.9316 15.3916 96.6989 15.5778 96.4365 15.7471C96.1841 15.9153 95.9025 16.0585 95.5916 16.1766C95.5882 16.1779 95.5859 16.1811 95.5859 16.1848C95.5859 16.1887 95.5886 16.1921 95.5924 16.1932C96.1987 16.3622 96.679 16.5774 97.0332 16.8389C97.3971 17.1012 97.7018 17.4059 97.9473 17.7529C98.2012 18.1253 98.3874 18.5316 98.5059 18.9717C98.6328 19.4033 98.6963 19.8519 98.6963 20.3174C98.6963 21.2061 98.5439 21.9889 98.2393 22.666C97.9346 23.3431 97.4987 23.9102 96.9316 24.3672C96.3646 24.8242 95.6748 25.167 94.8623 25.3955C94.0498 25.624 93.1357 25.7383 92.1201 25.7383H85.6289ZM89.209 17.5879C89.0709 17.5879 88.959 17.6998 88.959 17.8379V22.6064C88.959 22.7445 89.0709 22.8564 89.209 22.8564H92.1328C92.5983 22.8564 93.013 22.7972 93.377 22.6787C93.7493 22.5602 94.0583 22.3994 94.3037 22.1963C94.5745 21.9678 94.7777 21.6927 94.9131 21.3711C95.057 21.0495 95.1289 20.6898 95.1289 20.292C95.1289 19.8773 95.0739 19.5049 94.9639 19.1748C94.8623 18.8447 94.6973 18.5654 94.4688 18.3369C94.2402 18.0999 93.944 17.918 93.5801 17.791C93.2161 17.6641 92.7845 17.5964 92.2852 17.5879H89.209ZM88.959 14.7607C88.959 14.8988 89.0709 15.0107 89.209 15.0107H91.6123C92.154 15.0023 92.6322 14.9388 93.0469 14.8203C93.4616 14.6934 93.7959 14.5072 94.0498 14.2617C94.2614 14.0671 94.4222 13.8301 94.5322 13.5508C94.6507 13.2715 94.71 12.9541 94.71 12.5986C94.71 12.2262 94.6592 11.9004 94.5576 11.6211C94.4645 11.3418 94.3206 11.109 94.126 10.9229C93.8721 10.6605 93.5293 10.4701 93.0977 10.3516C92.6745 10.2331 92.1751 10.1696 91.5996 10.1611H89.209C89.0709 10.1611 88.959 10.2731 88.959 10.4111V14.7607Z" fill="white"/>
<path d="M110.16 22.0616C110.13 21.9536 110.032 21.8789 109.92 21.8789H104.751C104.639 21.8789 104.541 21.9532 104.51 22.0609L103.521 25.5563C103.491 25.664 103.393 25.7383 103.281 25.7383H100.057C99.8868 25.7383 99.7664 25.5721 99.8193 25.4104L105.711 7.42607C105.745 7.32336 105.841 7.25391 105.949 7.25391H108.823C108.931 7.25391 109.027 7.32402 109.061 7.4274L114.841 25.4118C114.893 25.5732 114.773 25.7383 114.603 25.7383H111.378C111.266 25.7383 111.168 25.6636 111.137 25.5556L110.16 22.0616ZM105.528 18.5261C105.483 18.6858 105.603 18.8447 105.769 18.8447H108.943C109.108 18.8447 109.228 18.6871 109.183 18.5278L107.618 12.895C107.55 12.6519 107.206 12.6507 107.136 12.8934L105.528 18.5261Z" fill="white"/>
<path d="M51.2664 23.4906C51.2665 23.5485 51.2469 23.6048 51.209 23.6485C50.9864 23.9057 50.6925 24.1664 50.3271 24.4307C49.9294 24.7184 49.4596 24.9766 48.918 25.2051C48.3678 25.4421 47.7542 25.6325 47.0771 25.7764C46.4001 25.9202 45.6722 25.9922 44.8936 25.9922C44.2165 25.9922 43.5775 25.9118 42.9766 25.751C42.3841 25.5986 41.8382 25.3743 41.3389 25.0781C40.848 24.7734 40.3994 24.401 39.9932 23.9609C39.5954 23.5208 39.2568 23.0173 38.9775 22.4502C38.6559 21.8239 38.4105 21.1172 38.2412 20.3301C38.0804 19.543 38 18.6882 38 17.7656V15.252C38 14.3717 38.0804 13.555 38.2412 12.8018C38.402 12.04 38.6305 11.3503 38.9268 10.7324C39.2061 10.1823 39.5277 9.68717 39.8916 9.24707C40.264 8.80697 40.6702 8.42611 41.1104 8.10449C41.6266 7.74056 42.1895 7.46549 42.7988 7.2793C43.4082 7.0931 44.0514 7 44.7285 7C45.7695 7 46.6751 7.13118 47.4453 7.39355C48.224 7.65592 48.8799 8.03255 49.4131 8.52344C49.9463 9.02279 50.361 9.62793 50.6572 10.3389C50.9301 10.9755 51.1181 11.6834 51.2213 12.4626C51.2407 12.6097 51.1247 12.7383 50.9763 12.7383H47.9945C47.8691 12.7383 47.7636 12.6452 47.7435 12.5214C47.6847 12.1605 47.6022 11.835 47.4961 11.5449C47.3776 11.1979 47.2126 10.9059 47.001 10.6689C46.764 10.4066 46.4635 10.2119 46.0996 10.085C45.7441 9.94954 45.3167 9.88184 44.8174 9.88184C44.5465 9.88184 44.2842 9.92415 44.0303 10.0088C43.7764 10.0934 43.5394 10.2161 43.3193 10.377C43.0316 10.597 42.7692 10.8848 42.5322 11.2402C42.3037 11.5957 42.1133 12.0146 41.9609 12.4971C41.8424 12.8695 41.7493 13.2842 41.6816 13.7412C41.6224 14.1982 41.5928 14.6934 41.5928 15.2266V17.7656C41.5928 18.4342 41.6351 19.0436 41.7197 19.5938C41.8128 20.1439 41.9398 20.6305 42.1006 21.0537C42.2021 21.2992 42.3164 21.5277 42.4434 21.7393C42.5788 21.9424 42.7269 22.1243 42.8877 22.2852C43.1585 22.556 43.4717 22.7633 43.8271 22.9072C44.1911 23.0426 44.6016 23.1146 45.0586 23.123C45.3379 23.123 45.613 23.1019 45.8838 23.0596C46.1546 23.0173 46.4085 22.958 46.6455 22.8818C46.8825 22.8057 47.0898 22.721 47.2676 22.6279C47.4161 22.5469 47.535 22.4632 47.6242 22.3769C47.6665 22.336 47.6866 22.2783 47.6869 22.2195L47.6983 19.2099C47.6988 19.0715 47.5867 18.959 47.4483 18.959H44.8896C44.7516 18.959 44.6396 18.8471 44.6396 18.709V16.543C44.6396 16.4049 44.7516 16.293 44.8896 16.293H51.0043C51.1422 16.293 51.2541 16.4046 51.2543 16.5425L51.2664 23.4906Z" stroke="white" stroke-width="0.4" mask="url(#path-2-outside-1_565_143)"/>
<path d="M63.3148 22.0616C63.2846 21.9536 63.1861 21.8789 63.074 21.8789H57.9049C57.793 21.8789 57.6948 21.9532 57.6643 22.0609L56.6755 25.5563C56.645 25.664 56.5468 25.7383 56.4349 25.7383H53.2112C53.0411 25.7383 52.9207 25.5721 52.9736 25.4104L58.8655 7.42607C58.8991 7.32336 58.995 7.25391 59.103 7.25391H61.9769C62.0855 7.25391 62.1817 7.32402 62.2149 7.4274L67.9956 25.4118C68.0475 25.5732 67.9271 25.7383 67.7576 25.7383H64.5325C64.4203 25.7383 64.3219 25.6636 64.2917 25.5556L63.3148 22.0616ZM58.6827 18.5261C58.6372 18.6858 58.7571 18.8447 58.9231 18.8447H62.0968C62.2622 18.8447 62.382 18.6871 62.3377 18.5278L60.7719 12.895C60.7043 12.6519 60.3599 12.6507 60.2906 12.8934L58.6827 18.5261Z" stroke="white" stroke-width="0.4" mask="url(#path-2-outside-1_565_143)"/>
<path d="M73.9742 7.25391C74.0887 7.25391 74.1886 7.33171 74.2166 7.44275L75.694 13.299C75.7565 13.5467 76.1063 13.5523 76.1767 13.3069L77.8621 7.43494C77.8929 7.32776 77.9909 7.25391 78.1024 7.25391H82.0947C82.2328 7.25391 82.3447 7.36584 82.3447 7.50391V25.4883C82.3447 25.6264 82.2328 25.7383 82.0947 25.7383H79.3193C79.1813 25.7383 79.0693 25.6264 79.0693 25.4883V20.2666L79.1899 13.4218C79.1951 13.1316 78.7846 13.0672 78.7007 13.345L76.8506 19.4669C76.8187 19.5724 76.7215 19.6445 76.6113 19.6445H75.2214C75.1095 19.6445 75.0112 19.5702 74.9808 19.4625L73.3873 13.8249C73.3076 13.5429 72.8914 13.6045 72.8968 13.8975L73.0137 20.2666V25.4883C73.0137 25.6264 72.9017 25.7383 72.7637 25.7383H69.9883C69.8502 25.7383 69.7383 25.6264 69.7383 25.4883V7.50391C69.7383 7.36584 69.8502 7.25391 69.9883 7.25391H73.9742Z" stroke="white" stroke-width="0.4" mask="url(#path-2-outside-1_565_143)"/>
<path d="M85.6289 25.7383C85.4908 25.7383 85.3789 25.6264 85.3789 25.4883V7.50391C85.3789 7.36584 85.4908 7.25391 85.6289 7.25391H91.5869C92.5941 7.25391 93.5081 7.35547 94.3291 7.55859C95.1585 7.76172 95.8652 8.07064 96.4492 8.48535C97.0332 8.90007 97.4818 9.4248 97.7949 10.0596C98.1165 10.6943 98.2773 11.4434 98.2773 12.3066C98.2689 12.8652 98.1673 13.3942 97.9727 13.8936C97.7865 14.3844 97.5072 14.8161 97.1348 15.1885C96.9316 15.3916 96.6989 15.5778 96.4365 15.7471C96.1841 15.9153 95.9025 16.0585 95.5916 16.1766C95.5882 16.1779 95.5859 16.1811 95.5859 16.1848C95.5859 16.1887 95.5886 16.1921 95.5924 16.1932C96.1987 16.3622 96.679 16.5774 97.0332 16.8389C97.3971 17.1012 97.7018 17.4059 97.9473 17.7529C98.2012 18.1253 98.3874 18.5316 98.5059 18.9717C98.6328 19.4033 98.6963 19.8519 98.6963 20.3174C98.6963 21.2061 98.5439 21.9889 98.2393 22.666C97.9346 23.3431 97.4987 23.9102 96.9316 24.3672C96.3646 24.8242 95.6748 25.167 94.8623 25.3955C94.0498 25.624 93.1357 25.7383 92.1201 25.7383H85.6289ZM89.209 17.5879C89.0709 17.5879 88.959 17.6998 88.959 17.8379V22.6064C88.959 22.7445 89.0709 22.8564 89.209 22.8564H92.1328C92.5983 22.8564 93.013 22.7972 93.377 22.6787C93.7493 22.5602 94.0583 22.3994 94.3037 22.1963C94.5745 21.9678 94.7777 21.6927 94.9131 21.3711C95.057 21.0495 95.1289 20.6898 95.1289 20.292C95.1289 19.8773 95.0739 19.5049 94.9639 19.1748C94.8623 18.8447 94.6973 18.5654 94.4688 18.3369C94.2402 18.0999 93.944 17.918 93.5801 17.791C93.2161 17.6641 92.7845 17.5964 92.2852 17.5879H89.209ZM88.959 14.7607C88.959 14.8988 89.0709 15.0107 89.209 15.0107H91.6123C92.154 15.0023 92.6322 14.9388 93.0469 14.8203C93.4616 14.6934 93.7959 14.5072 94.0498 14.2617C94.2614 14.0671 94.4222 13.8301 94.5322 13.5508C94.6507 13.2715 94.71 12.9541 94.71 12.5986C94.71 12.2262 94.6592 11.9004 94.5576 11.6211C94.4645 11.3418 94.3206 11.109 94.126 10.9229C93.8721 10.6605 93.5293 10.4701 93.0977 10.3516C92.6745 10.2331 92.1751 10.1696 91.5996 10.1611H89.209C89.0709 10.1611 88.959 10.2731 88.959 10.4111V14.7607Z" stroke="white" stroke-width="0.4" mask="url(#path-2-outside-1_565_143)"/>
<path d="M110.16 22.0616C110.13 21.9536 110.032 21.8789 109.92 21.8789H104.751C104.639 21.8789 104.541 21.9532 104.51 22.0609L103.521 25.5563C103.491 25.664 103.393 25.7383 103.281 25.7383H100.057C99.8868 25.7383 99.7664 25.5721 99.8193 25.4104L105.711 7.42607C105.745 7.32336 105.841 7.25391 105.949 7.25391H108.823C108.931 7.25391 109.027 7.32402 109.061 7.4274L114.841 25.4118C114.893 25.5732 114.773 25.7383 114.603 25.7383H111.378C111.266 25.7383 111.168 25.6636 111.137 25.5556L110.16 22.0616ZM105.528 18.5261C105.483 18.6858 105.603 18.8447 105.769 18.8447H108.943C109.108 18.8447 109.228 18.6871 109.183 18.5278L107.618 12.895C107.55 12.6519 107.206 12.6507 107.136 12.8934L105.528 18.5261Z" stroke="white" stroke-width="0.4" mask="url(#path-2-outside-1_565_143)"/>
<path d="M42.9072 33.8115H39.9678V36.0332H43.4004V37H38.791V29.8906H43.376V30.8623H39.9678V32.8643H42.9072V33.8115ZM47.0527 32.542L48.4346 29.8906H49.8115L47.7852 33.416L49.8604 37H48.4932L47.0723 34.3047L45.6562 37H44.2695L46.3496 33.416L44.3232 29.8906H45.6953L47.0527 32.542ZM51.999 34.29V37H50.8271V29.8906H53.2051C53.5632 29.8939 53.8919 29.9476 54.1914 30.0518C54.4941 30.1559 54.7546 30.304 54.9727 30.4961C55.1908 30.6882 55.36 30.9209 55.4805 31.1943C55.6009 31.4678 55.6611 31.7754 55.6611 32.1172C55.6611 32.446 55.6009 32.7438 55.4805 33.0107C55.36 33.2744 55.1908 33.5007 54.9727 33.6895C54.7546 33.8815 54.4941 34.0296 54.1914 34.1338C53.8919 34.238 53.5632 34.29 53.2051 34.29H51.999ZM51.999 33.333H53.2051C53.4036 33.3298 53.5811 33.2988 53.7373 33.2402C53.8968 33.1784 54.0319 33.0938 54.1426 32.9863C54.2533 32.8789 54.3363 32.752 54.3916 32.6055C54.4502 32.459 54.4795 32.2995 54.4795 32.127C54.4795 31.9382 54.4502 31.7673 54.3916 31.6143C54.3363 31.458 54.2533 31.3229 54.1426 31.209C54.0319 31.0951 53.8968 31.0072 53.7373 30.9453C53.5811 30.8835 53.4036 30.8509 53.2051 30.8477H51.999V33.333ZM58.0244 36.0332H61.418V37H56.8477V29.8906H58.0244V36.0332ZM67.5703 33.9189C67.5703 34.2054 67.5443 34.4821 67.4922 34.749C67.4434 35.016 67.3717 35.2682 67.2773 35.5059C67.1764 35.7435 67.0511 35.9632 66.9014 36.165C66.7516 36.3636 66.5791 36.5345 66.3838 36.6777C66.195 36.8079 65.985 36.9105 65.7539 36.9854C65.526 37.0602 65.2754 37.0977 65.002 37.0977C64.7188 37.0977 64.4583 37.0586 64.2207 36.9805C63.9863 36.8991 63.7764 36.7884 63.5908 36.6484C63.402 36.5052 63.236 36.3327 63.0928 36.1309C62.9528 35.929 62.8356 35.7077 62.7412 35.4668C62.6501 35.2357 62.5817 34.9899 62.5361 34.7295C62.4906 34.4658 62.4678 34.1956 62.4678 33.9189V32.9814C62.4678 32.6917 62.4922 32.4118 62.541 32.1416C62.5898 31.8714 62.6631 31.6159 62.7607 31.375C62.8551 31.1439 62.9707 30.9323 63.1074 30.7402C63.2474 30.5449 63.4118 30.3757 63.6006 30.2324C63.7829 30.0924 63.9896 29.985 64.2207 29.9102C64.4551 29.832 64.7122 29.793 64.9922 29.793C65.2754 29.793 65.5358 29.832 65.7734 29.9102C66.0111 29.9883 66.2243 30.0973 66.4131 30.2373C66.6019 30.3773 66.7663 30.5417 66.9062 30.7305C67.0462 30.9193 67.1634 31.126 67.2578 31.3506C67.362 31.5915 67.4401 31.8503 67.4922 32.127C67.5443 32.4004 67.5703 32.6852 67.5703 32.9814V33.9189ZM66.3887 32.9717C66.3854 32.7926 66.374 32.6169 66.3545 32.4443C66.3382 32.2718 66.3089 32.1074 66.2666 31.9512C66.2178 31.7721 66.1527 31.6094 66.0713 31.4629C65.9932 31.3132 65.8971 31.1862 65.7832 31.082C65.6823 30.9909 65.5667 30.9193 65.4365 30.8672C65.3063 30.8151 65.1582 30.7891 64.9922 30.7891C64.8327 30.7891 64.6895 30.8151 64.5625 30.8672C64.4355 30.916 64.3249 30.9844 64.2305 31.0723C64.1165 31.1797 64.0205 31.3083 63.9424 31.458C63.8643 31.6045 63.804 31.7689 63.7617 31.9512C63.7227 32.1074 63.6934 32.2734 63.6738 32.4492C63.6576 32.6217 63.6494 32.7959 63.6494 32.9717V33.9189C63.6494 34.0915 63.6576 34.2624 63.6738 34.4316C63.6901 34.6009 63.7178 34.7637 63.7568 34.9199C63.7992 35.0957 63.8561 35.2601 63.9277 35.4131C64.0026 35.5628 64.0921 35.6898 64.1963 35.7939C64.2972 35.8916 64.4128 35.9697 64.543 36.0283C64.6764 36.0837 64.8294 36.1113 65.002 36.1113C65.168 36.1113 65.3177 36.0837 65.4512 36.0283C65.5879 35.973 65.7051 35.8981 65.8027 35.8037C65.9167 35.6963 66.0111 35.5693 66.0859 35.4229C66.1641 35.2731 66.2259 35.1087 66.2715 34.9297C66.3105 34.7734 66.3382 34.6107 66.3545 34.4414C66.374 34.2689 66.3854 34.0947 66.3887 33.9189V32.9717ZM71.1445 34.2412H69.9434V37H68.7715V29.8906H71.0273C71.3952 29.8939 71.7337 29.9411 72.043 30.0322C72.3522 30.1234 72.6191 30.2568 72.8438 30.4326C73.0651 30.6117 73.2376 30.8346 73.3613 31.1016C73.485 31.3652 73.5469 31.6745 73.5469 32.0293C73.5469 32.2734 73.5143 32.4948 73.4492 32.6934C73.3874 32.8919 73.2995 33.071 73.1855 33.2305C73.0716 33.39 72.9349 33.5299 72.7754 33.6504C72.6159 33.7708 72.4385 33.875 72.2432 33.9629L73.7617 36.9365V37H72.5068L71.1445 34.2412ZM69.9434 33.2842H71.042C71.2503 33.2809 71.4375 33.25 71.6035 33.1914C71.7728 33.1296 71.916 33.0417 72.0332 32.9277C72.1374 32.8301 72.2188 32.7096 72.2773 32.5664C72.3359 32.4232 72.3652 32.2604 72.3652 32.0781C72.3652 31.873 72.3327 31.694 72.2676 31.541C72.2057 31.3848 72.113 31.2546 71.9893 31.1504C71.8753 31.0527 71.737 30.9795 71.5742 30.9307C71.4115 30.8786 71.2292 30.8509 71.0273 30.8477H69.9434V33.2842ZM78.9424 33.8115H76.0029V36.0332H79.4355V37H74.8262V29.8906H79.4111V30.8623H76.0029V32.8643H78.9424V33.8115ZM83.1562 34.2412H81.9551V37H80.7832V29.8906H83.0391C83.4069 29.8939 83.7454 29.9411 84.0547 30.0322C84.3639 30.1234 84.6309 30.2568 84.8555 30.4326C85.0768 30.6117 85.2493 30.8346 85.373 31.1016C85.4967 31.3652 85.5586 31.6745 85.5586 32.0293C85.5586 32.2734 85.526 32.4948 85.4609 32.6934C85.3991 32.8919 85.3112 33.071 85.1973 33.2305C85.0833 33.39 84.9466 33.5299 84.7871 33.6504C84.6276 33.7708 84.4502 33.875 84.2549 33.9629L85.7734 36.9365V37H84.5186L83.1562 34.2412ZM81.9551 33.2842H83.0537C83.262 33.2809 83.4492 33.25 83.6152 33.1914C83.7845 33.1296 83.9277 33.0417 84.0449 32.9277C84.1491 32.8301 84.2305 32.7096 84.2891 32.5664C84.3477 32.4232 84.377 32.2604 84.377 32.0781C84.377 31.873 84.3444 31.694 84.2793 31.541C84.2174 31.3848 84.1247 31.2546 84.001 31.1504C83.887 31.0527 83.7487 30.9795 83.5859 30.9307C83.4232 30.8786 83.2409 30.8509 83.0391 30.8477H81.9551V33.2842Z" fill="white"/>
<path d="M42.9072 33.8115V34.0115H43.1072V33.8115H42.9072ZM39.9678 33.8115V33.6115H39.7678V33.8115H39.9678ZM39.9678 36.0332H39.7678V36.2332H39.9678V36.0332ZM43.4004 36.0332H43.6004V35.8332H43.4004V36.0332ZM43.4004 37V37.2H43.6004V37H43.4004ZM38.791 37H38.591V37.2H38.791V37ZM38.791 29.8906V29.6906H38.591V29.8906H38.791ZM43.376 29.8906H43.576V29.6906H43.376V29.8906ZM43.376 30.8623V31.0623H43.576V30.8623H43.376ZM39.9678 30.8623V30.6623H39.7678V30.8623H39.9678ZM39.9678 32.8643H39.7678V33.0643H39.9678V32.8643ZM42.9072 32.8643H43.1072V32.6643H42.9072V32.8643ZM42.9072 33.6115H39.9678V34.0115H42.9072V33.6115ZM39.7678 33.8115V36.0332H40.1678V33.8115H39.7678ZM39.9678 36.2332H43.4004V35.8332H39.9678V36.2332ZM43.2004 36.0332V37H43.6004V36.0332H43.2004ZM43.4004 36.8H38.791V37.2H43.4004V36.8ZM38.991 37V29.8906H38.591V37H38.991ZM38.791 30.0906H43.376V29.6906H38.791V30.0906ZM43.176 29.8906V30.8623H43.576V29.8906H43.176ZM43.376 30.6623H39.9678V31.0623H43.376V30.6623ZM39.7678 30.8623V32.8643H40.1678V30.8623H39.7678ZM39.9678 33.0643H42.9072V32.6643H39.9678V33.0643ZM42.7072 32.8643V33.8115H43.1072V32.8643H42.7072ZM47.0527 32.542L46.8747 32.6331L47.0512 32.9778L47.2301 32.6344L47.0527 32.542ZM48.4346 29.8906V29.6906H48.3133L48.2572 29.7982L48.4346 29.8906ZM49.8115 29.8906L49.9849 29.9903L50.1572 29.6906H49.8115V29.8906ZM47.7852 33.416L47.6118 33.3163L47.5543 33.4164L47.6121 33.5162L47.7852 33.416ZM49.8604 37V37.2H50.2073L50.0334 36.8998L49.8604 37ZM48.4932 37L48.3162 37.0933L48.3725 37.2H48.4932V37ZM47.0723 34.3047L47.2492 34.2114L47.072 33.8752L46.8952 34.2117L47.0723 34.3047ZM45.6562 37V37.2H45.7771L45.8333 37.093L45.6562 37ZM44.2695 37L44.0966 36.8996L43.9222 37.2H44.2695V37ZM46.3496 33.416L46.5226 33.5164L46.5806 33.4165L46.523 33.3163L46.3496 33.416ZM44.3232 29.8906V29.6906H43.9776L44.1498 29.9903L44.3232 29.8906ZM45.6953 29.8906L45.8733 29.7995L45.8176 29.6906H45.6953V29.8906ZM47.2301 32.6344L48.6119 29.9831L48.2572 29.7982L46.8754 32.4496L47.2301 32.6344ZM48.4346 30.0906H49.8115V29.6906H48.4346V30.0906ZM49.6381 29.791L47.6118 33.3163L47.9586 33.5157L49.9849 29.9903L49.6381 29.791ZM47.6121 33.5162L49.6873 37.1002L50.0334 36.8998L47.9582 33.3158L47.6121 33.5162ZM49.8604 36.8H48.4932V37.2H49.8604V36.8ZM48.6701 36.9067L47.2492 34.2114L46.8953 34.398L48.3162 37.0933L48.6701 36.9067ZM46.8952 34.2117L45.4792 36.907L45.8333 37.093L47.2493 34.3977L46.8952 34.2117ZM45.6562 36.8H44.2695V37.2H45.6562V36.8ZM44.4425 37.1004L46.5226 33.5164L46.1766 33.3156L44.0966 36.8996L44.4425 37.1004ZM46.523 33.3163L44.4966 29.791L44.1498 29.9903L46.1762 33.5157L46.523 33.3163ZM44.3232 30.0906H45.6953V29.6906H44.3232V30.0906ZM45.5173 29.9818L46.8747 32.6331L47.2308 32.4508L45.8733 29.7995L45.5173 29.9818ZM51.999 34.29V34.09H51.799V34.29H51.999ZM51.999 37V37.2H52.199V37H51.999ZM50.8271 37H50.6271V37.2H50.8271V37ZM50.8271 29.8906V29.6906H50.6271V29.8906H50.8271ZM53.2051 29.8906L53.2069 29.6906H53.2051V29.8906ZM54.1914 30.0518L54.1257 30.2407L54.1263 30.2409L54.1914 30.0518ZM54.9727 30.4961L54.8405 30.6462L54.9727 30.4961ZM55.4805 33.0107L55.6624 33.0938L55.6628 33.093L55.4805 33.0107ZM54.9727 33.6895L54.8418 33.5382L54.8405 33.5394L54.9727 33.6895ZM54.1914 34.1338L54.1263 33.9447L54.1257 33.9449L54.1914 34.1338ZM51.999 33.333H51.799V33.533H51.999V33.333ZM53.2051 33.333V33.533L53.2084 33.533L53.2051 33.333ZM53.7373 33.2402L53.8075 33.4275L53.8096 33.4267L53.7373 33.2402ZM54.3916 32.6055L54.2059 32.5312L54.2045 32.5348L54.3916 32.6055ZM54.3916 31.6143L54.203 31.681L54.2048 31.6858L54.3916 31.6143ZM53.7373 30.9453L53.6637 31.1313L53.665 31.1318L53.7373 30.9453ZM53.2051 30.8477L53.2084 30.6477H53.2051V30.8477ZM51.999 30.8477V30.6477H51.799V30.8477H51.999ZM51.799 34.29V37H52.199V34.29H51.799ZM51.999 36.8H50.8271V37.2H51.999V36.8ZM51.0271 37V29.8906H50.6271V37H51.0271ZM50.8271 30.0906H53.2051V29.6906H50.8271V30.0906ZM53.2033 30.0906C53.5424 30.0937 53.8492 30.1445 54.1257 30.2407L54.2571 29.8629C53.9346 29.7507 53.5839 29.6941 53.2069 29.6906L53.2033 30.0906ZM54.1263 30.2409C54.4069 30.3374 54.6439 30.4731 54.8405 30.6462L55.1048 30.346C54.8652 30.135 54.5814 29.9744 54.2565 29.8626L54.1263 30.2409ZM54.8405 30.6462C55.0362 30.8185 55.1884 31.0273 55.2974 31.275L55.6635 31.1137C55.5317 30.8145 55.3453 30.5578 55.1048 30.346L54.8405 30.6462ZM55.2974 31.275C55.4052 31.5196 55.4611 31.7992 55.4611 32.1172H55.8611C55.8611 31.7516 55.7966 31.416 55.6635 31.1137L55.2974 31.275ZM55.4611 32.1172C55.4611 32.4211 55.4056 32.6904 55.2982 32.9285L55.6628 33.093C55.7962 32.7972 55.8611 32.4708 55.8611 32.1172H55.4611ZM55.2985 32.9276C55.19 33.1653 55.038 33.3683 54.8418 33.5382L55.1036 33.8407C55.3435 33.633 55.5301 33.3835 55.6624 33.0938L55.2985 32.9276ZM54.8405 33.5394C54.6439 33.7125 54.4069 33.8481 54.1263 33.9447L54.2565 34.3229C54.5814 34.2111 54.8652 34.0505 55.1048 33.8396L54.8405 33.5394ZM54.1257 33.9449C53.8499 34.0408 53.5436 34.09 53.2051 34.09V34.49C53.5827 34.49 53.934 34.4351 54.2571 34.3227L54.1257 33.9449ZM53.2051 34.09H51.999V34.49H53.2051V34.09ZM51.999 33.533H53.2051V33.133H51.999V33.533ZM53.2084 33.533C53.4256 33.5294 53.6262 33.4955 53.8075 33.4275L53.6671 33.053C53.5359 33.1022 53.3817 33.1301 53.2018 33.133L53.2084 33.533ZM53.8096 33.4267C53.9914 33.3562 54.15 33.2579 54.2819 33.1298L54.0033 32.8428C53.9138 32.9296 53.8023 33.0005 53.665 33.0538L53.8096 33.4267ZM54.2819 33.1298C54.414 33.0016 54.5131 32.8497 54.5787 32.6761L54.2045 32.5348C54.1594 32.6542 54.0925 32.7562 54.0033 32.8428L54.2819 33.1298ZM54.5773 32.6797C54.6462 32.5075 54.6795 32.3225 54.6795 32.127H54.2795C54.2795 32.2764 54.2542 32.4105 54.2059 32.5312L54.5773 32.6797ZM54.6795 32.127C54.6795 31.9174 54.6469 31.7218 54.5784 31.5427L54.2048 31.6858C54.2535 31.8127 54.2795 31.9589 54.2795 32.127H54.6795ZM54.5801 31.5475C54.5156 31.3653 54.4177 31.2051 54.286 31.0696L53.9991 31.3483C54.0888 31.4407 54.1569 31.5507 54.2031 31.681L54.5801 31.5475ZM54.286 31.0696C54.1538 30.9335 53.9938 30.8303 53.8096 30.7588L53.665 31.1318C53.7998 31.184 53.91 31.2566 53.9991 31.3483L54.286 31.0696ZM53.8109 30.7594C53.6286 30.6872 53.4267 30.6513 53.2084 30.6477L53.2018 31.0476C53.3806 31.0506 53.5335 31.0797 53.6637 31.1313L53.8109 30.7594ZM53.2051 30.6477H51.999V31.0477H53.2051V30.6477ZM51.799 30.8477V33.333H52.199V30.8477H51.799ZM58.0244 36.0332H57.8244V36.2332H58.0244V36.0332ZM61.418 36.0332H61.618V35.8332H61.418V36.0332ZM61.418 37V37.2H61.618V37H61.418ZM56.8477 37H56.6477V37.2H56.8477V37ZM56.8477 29.8906V29.6906H56.6477V29.8906H56.8477ZM58.0244 29.8906H58.2244V29.6906H58.0244V29.8906ZM58.0244 36.2332H61.418V35.8332H58.0244V36.2332ZM61.218 36.0332V37H61.618V36.0332H61.218ZM61.418 36.8H56.8477V37.2H61.418V36.8ZM57.0477 37V29.8906H56.6477V37H57.0477ZM56.8477 30.0906H58.0244V29.6906H56.8477V30.0906ZM57.8244 29.8906V36.0332H58.2244V29.8906H57.8244ZM67.4922 34.749L67.2959 34.7107L67.2955 34.713L67.4922 34.749ZM67.2773 35.5059L67.4615 35.5841L67.4632 35.5797L67.2773 35.5059ZM66.9014 36.165L67.0611 36.2855L67.062 36.2842L66.9014 36.165ZM66.3838 36.6777L66.4974 36.8424L66.5021 36.839L66.3838 36.6777ZM65.7539 36.9854L65.6923 36.7951L65.6915 36.7953L65.7539 36.9854ZM64.2207 36.9805L64.1551 37.1694L64.1582 37.1705L64.2207 36.9805ZM63.5908 36.6484L63.4699 36.8078L63.4704 36.8081L63.5908 36.6484ZM63.0928 36.1309L62.9284 36.2448L62.9297 36.2466L63.0928 36.1309ZM62.7412 35.4668L62.9274 35.3938L62.9273 35.3934L62.7412 35.4668ZM62.5361 34.7295L62.3391 34.7636L62.3391 34.764L62.5361 34.7295ZM62.541 32.1416L62.3442 32.106L62.541 32.1416ZM62.7607 31.375L62.5756 31.2994L62.5754 31.2999L62.7607 31.375ZM63.1074 30.7402L62.9449 30.6237L62.9445 30.6242L63.1074 30.7402ZM63.6006 30.2324L63.7215 30.3918L63.7224 30.3911L63.6006 30.2324ZM64.2207 29.9102L64.2823 30.1004L64.2839 30.0999L64.2207 29.9102ZM66.9062 30.7305L66.7456 30.8496L66.9062 30.7305ZM67.2578 31.3506L67.0734 31.4281L67.0742 31.43L67.2578 31.3506ZM67.4922 32.127L67.2956 32.164L67.2957 32.1644L67.4922 32.127ZM66.3887 32.9717H66.5887L66.5886 32.968L66.3887 32.9717ZM66.3545 32.4443L66.1553 32.4631L66.1558 32.4668L66.3545 32.4443ZM66.2666 31.9512L66.4596 31.8989L66.4596 31.8985L66.2666 31.9512ZM66.0713 31.4629L65.8939 31.5554L65.8965 31.56L66.0713 31.4629ZM65.7832 31.082L65.9182 30.9344L65.9173 30.9336L65.7832 31.082ZM64.5625 30.8672L64.6343 31.0539L64.6384 31.0522L64.5625 30.8672ZM64.2305 31.0723L64.0942 30.9259L64.0933 30.9267L64.2305 31.0723ZM63.9424 31.458L64.1189 31.5521L64.1197 31.5505L63.9424 31.458ZM63.7617 31.9512L63.9558 31.9997L63.9565 31.9964L63.7617 31.9512ZM63.6738 32.4492L63.475 32.4271L63.4747 32.4304L63.6738 32.4492ZM63.7568 34.9199L63.9513 34.8731L63.9509 34.8714L63.7568 34.9199ZM63.9277 35.4131L63.7465 35.4979L63.7488 35.5025L63.9277 35.4131ZM64.1963 35.7939L64.0548 35.9354L64.0572 35.9377L64.1963 35.7939ZM64.543 36.0283L64.4609 36.2108L64.4664 36.2131L64.543 36.0283ZM65.4512 36.0283L65.3761 35.8429L65.3746 35.8436L65.4512 36.0283ZM65.8027 35.8037L65.6655 35.6582L65.6637 35.6599L65.8027 35.8037ZM66.0859 35.4229L65.9086 35.3303L65.9079 35.3318L66.0859 35.4229ZM66.2715 34.9297L66.4653 34.979L66.4655 34.9782L66.2715 34.9297ZM66.3545 34.4414L66.1557 34.4189L66.1554 34.4223L66.3545 34.4414ZM66.3887 33.9189L66.5887 33.9226V33.9189H66.3887ZM67.3703 33.9189C67.3703 34.1932 67.3454 34.4571 67.2959 34.7107L67.6885 34.7873C67.7432 34.5071 67.7703 34.2176 67.7703 33.9189H67.3703ZM67.2955 34.713C67.2488 34.9678 67.1807 35.2073 67.0915 35.432L67.4632 35.5797C67.5628 35.3291 67.6379 35.0641 67.6889 34.785L67.2955 34.713ZM67.0933 35.4277C66.9984 35.6512 66.8808 35.8571 66.7407 36.0459L67.062 36.2842C67.2214 36.0694 67.3545 35.8358 67.4614 35.584L67.0933 35.4277ZM66.7417 36.0446C66.6034 36.228 66.4447 36.3851 66.2655 36.5165L66.5021 36.839C66.7135 36.6839 66.8999 36.4992 67.0611 36.2855L66.7417 36.0446ZM66.2702 36.5131C66.0983 36.6317 65.906 36.7258 65.6923 36.7951L65.8155 37.1756C66.064 37.0951 66.2916 36.9842 66.4973 36.8424L66.2702 36.5131ZM65.6915 36.7953C65.4864 36.8627 65.2571 36.8977 65.002 36.8977V37.2977C65.2937 37.2977 65.5657 37.2577 65.8163 37.1754L65.6915 36.7953ZM65.002 36.8977C64.7372 36.8977 64.4982 36.8612 64.2832 36.7905L64.1582 37.1705C64.4185 37.256 64.7003 37.2977 65.002 37.2977V36.8977ZM64.2863 36.7915C64.0703 36.7165 63.8791 36.6154 63.7113 36.4888L63.4704 36.8081C63.6737 36.9615 63.9024 37.0816 64.1551 37.1694L64.2863 36.7915ZM63.7117 36.4891C63.5398 36.3587 63.3879 36.2011 63.2559 36.0151L62.9297 36.2466C63.0842 36.4643 63.2642 36.6517 63.4699 36.8078L63.7117 36.4891ZM63.2571 36.0169C63.1265 35.8285 63.0165 35.621 62.9274 35.3938L62.555 35.5398C62.6548 35.7944 62.7791 36.0296 62.9284 36.2448L63.2571 36.0169ZM62.9273 35.3934C62.8414 35.1756 62.7765 34.943 62.7331 34.695L62.3391 34.764C62.3869 35.0368 62.4588 35.2957 62.5552 35.5402L62.9273 35.3934ZM62.7332 34.6954C62.6896 34.4434 62.6678 34.1846 62.6678 33.9189H62.2678C62.2678 34.2067 62.2915 34.4883 62.3391 34.7636L62.7332 34.6954ZM62.6678 33.9189V32.9814H62.2678V33.9189H62.6678ZM62.6678 32.9814C62.6678 32.703 62.6912 32.435 62.7378 32.1772L62.3442 32.106C62.2931 32.3886 62.2678 32.6805 62.2678 32.9814H62.6678ZM62.7378 32.1772C62.7843 31.9198 62.8539 31.6776 62.9461 31.4501L62.5754 31.2999C62.4723 31.5542 62.3953 31.8231 62.3442 32.106L62.7378 32.1772ZM62.9459 31.4506C63.0348 31.2329 63.1431 31.035 63.2704 30.8562L62.9445 30.6242C62.7983 30.8296 62.6755 31.0548 62.5756 31.2994L62.9459 31.4506ZM63.27 30.8567C63.3985 30.6775 63.5488 30.5227 63.7215 30.3918L63.4797 30.0731C63.2747 30.2286 63.0963 30.4124 62.9449 30.6237L63.27 30.8567ZM63.7224 30.3911C63.8856 30.2658 64.0717 30.1687 64.2823 30.1004L64.1591 29.7199C63.9075 29.8014 63.6802 29.9191 63.4788 30.0738L63.7224 30.3911ZM64.2839 30.0999C64.4954 30.0294 64.7309 29.993 64.9922 29.993V29.593C64.6936 29.593 64.4147 29.6347 64.1575 29.7204L64.2839 30.0999ZM64.9922 29.993C65.2569 29.993 65.496 30.0295 65.711 30.1002L65.8359 29.7202C65.5756 29.6346 65.2938 29.593 64.9922 29.593V29.993ZM65.711 30.1002C65.9296 30.172 66.1234 30.2715 66.294 30.398L66.5322 30.0766C66.3251 29.9231 66.0926 29.8045 65.8359 29.7202L65.711 30.1002ZM66.294 30.398C66.467 30.5262 66.6173 30.6766 66.7456 30.8496L67.0669 30.6114C66.9152 30.4067 66.7368 30.2283 66.5322 30.0766L66.294 30.398ZM66.7456 30.8496C66.8757 31.025 66.985 31.2177 67.0734 31.4281L67.4422 31.2731C67.3418 31.0343 67.2168 30.8135 67.0669 30.6114L66.7456 30.8496ZM67.0742 31.43C67.1721 31.6563 67.2461 31.9008 67.2956 32.164L67.6887 32.09C67.6341 31.7997 67.5518 31.5266 67.4414 31.2712L67.0742 31.43ZM67.2957 32.1644C67.3453 32.4247 67.3703 32.697 67.3703 32.9814H67.7703C67.7703 32.6735 67.7432 32.3761 67.6887 32.0895L67.2957 32.1644ZM67.3703 32.9814V33.9189H67.7703V32.9814H67.3703ZM66.5886 32.968C66.5853 32.7829 66.5735 32.6008 66.5532 32.4218L66.1558 32.4668C66.1746 32.6329 66.1856 32.8024 66.1887 32.9753L66.5886 32.968ZM66.5536 32.4256C66.5363 32.2425 66.5051 32.0669 66.4596 31.8989L66.0736 32.0035C66.1127 32.148 66.1401 32.3011 66.1554 32.4631L66.5536 32.4256ZM66.4596 31.8985C66.4069 31.7056 66.3361 31.5277 66.2461 31.3658L65.8965 31.56C65.9692 31.691 66.0286 31.8386 66.0736 32.0038L66.4596 31.8985ZM66.2486 31.3704C66.1607 31.2019 66.0509 31.0558 65.9182 30.9344L65.6482 31.2296C65.7434 31.3166 65.8256 31.4244 65.894 31.5554L66.2486 31.3704ZM65.9173 30.9336C65.7982 30.8261 65.6623 30.7421 65.5108 30.6815L65.3622 31.0529C65.4712 31.0965 65.5663 31.1557 65.6491 31.2305L65.9173 30.9336ZM65.5108 30.6815C65.3531 30.6184 65.1791 30.5891 64.9922 30.5891V30.9891C65.1373 30.9891 65.2596 31.0118 65.3622 31.0529L65.5108 30.6815ZM64.9922 30.5891C64.8108 30.5891 64.6412 30.6187 64.4866 30.6822L64.6384 31.0522C64.7377 31.0115 64.8545 30.9891 64.9922 30.9891V30.5891ZM64.4907 30.6805C64.3412 30.738 64.2083 30.8196 64.0942 30.9259L64.3668 31.2186C64.4414 31.1491 64.5299 31.094 64.6343 31.0539L64.4907 30.6805ZM64.0933 30.9267C63.9619 31.0506 63.8527 31.1975 63.7651 31.3655L64.1197 31.5505C64.1883 31.419 64.2712 31.3087 64.3677 31.2178L64.0933 30.9267ZM63.7659 31.3639C63.6786 31.5276 63.6127 31.7088 63.5669 31.9059L63.9565 31.9964C63.9954 31.829 64.0499 31.6814 64.1189 31.5521L63.7659 31.3639ZM63.5677 31.9027C63.5263 32.0684 63.4955 32.2433 63.4751 32.4271L63.8726 32.4713C63.8912 32.3036 63.9191 32.1464 63.9557 31.9997L63.5677 31.9027ZM63.4747 32.4304C63.4578 32.6093 63.4494 32.7897 63.4494 32.9717H63.8494C63.8494 32.8021 63.8573 32.6342 63.8729 32.468L63.4747 32.4304ZM63.4494 32.9717V33.9189H63.8494V32.9717H63.4494ZM63.4494 33.9189C63.4494 34.0978 63.4578 34.2751 63.4747 34.4508L63.8729 34.4125C63.8573 34.2497 63.8494 34.0852 63.8494 33.9189H63.4494ZM63.4747 34.4508C63.4919 34.6294 63.5212 34.802 63.5628 34.9684L63.9509 34.8714C63.9143 34.7253 63.8883 34.5724 63.8729 34.4125L63.4747 34.4508ZM63.5624 34.9667C63.6076 35.1547 63.6689 35.3319 63.7466 35.4979L64.1089 35.3283C64.0433 35.1883 63.9907 35.0367 63.9513 34.8731L63.5624 34.9667ZM63.7488 35.5025C63.832 35.6689 63.9336 35.8141 64.0549 35.9354L64.3377 35.6525C64.2507 35.5655 64.1732 35.4567 64.1066 35.3236L63.7488 35.5025ZM64.0572 35.9377C64.175 36.0517 64.31 36.1428 64.4609 36.2107L64.625 35.8459C64.5156 35.7967 64.4194 35.7315 64.3354 35.6502L64.0572 35.9377ZM64.4664 36.2131C64.6283 36.2802 64.8081 36.3113 65.002 36.3113V35.9113C64.8507 35.9113 64.7245 35.8871 64.6196 35.8436L64.4664 36.2131ZM65.002 36.3113C65.1904 36.3113 65.3667 36.2799 65.5278 36.2131L65.3746 35.8436C65.2687 35.8875 65.1456 35.9113 65.002 35.9113V36.3113ZM65.5262 36.2137C65.6847 36.1496 65.8241 36.0612 65.9417 35.9475L65.6637 35.6599C65.5861 35.735 65.4911 35.7964 65.3761 35.8429L65.5262 36.2137ZM65.9399 35.9492C66.0713 35.8253 66.1793 35.6797 66.264 35.5139L65.9079 35.3318C65.8429 35.459 65.762 35.5672 65.6655 35.6582L65.9399 35.9492ZM66.2633 35.5154C66.3492 35.3507 66.4163 35.1717 66.4653 34.979L66.0777 34.8804C66.0356 35.0458 65.979 35.1955 65.9086 35.3303L66.2633 35.5154ZM66.4655 34.9782C66.5071 34.8118 66.5364 34.6392 66.5536 34.4605L66.1554 34.4223C66.14 34.5822 66.114 34.7351 66.0775 34.8812L66.4655 34.9782ZM66.5532 34.4639C66.5735 34.2851 66.5853 34.1046 66.5886 33.9226L66.1887 33.9152C66.1856 34.0848 66.1746 34.2527 66.1558 34.4189L66.5532 34.4639ZM66.5887 33.9189V32.9717H66.1887V33.9189H66.5887ZM71.1445 34.2412L71.3239 34.1527L71.2688 34.0412H71.1445V34.2412ZM69.9434 34.2412V34.0412H69.7434V34.2412H69.9434ZM69.9434 37V37.2H70.1434V37H69.9434ZM68.7715 37H68.5715V37.2H68.7715V37ZM68.7715 29.8906V29.6906H68.5715V29.8906H68.7715ZM71.0273 29.8906L71.0291 29.6906H71.0273V29.8906ZM72.8438 30.4326L72.9695 30.2771L72.967 30.2751L72.8438 30.4326ZM73.3613 31.1016L73.1799 31.1857L73.1803 31.1865L73.3613 31.1016ZM73.4492 32.6934L73.2592 32.631L73.2583 32.6339L73.4492 32.6934ZM72.2432 33.9629L72.1611 33.7805L71.9695 33.8667L72.065 34.0539L72.2432 33.9629ZM73.7617 36.9365H73.9617V36.8884L73.9398 36.8456L73.7617 36.9365ZM73.7617 37V37.2H73.9617V37H73.7617ZM72.5068 37L72.3275 37.0886L72.3825 37.2H72.5068V37ZM69.9434 33.2842H69.7434V33.4842H69.9434V33.2842ZM71.042 33.2842V33.4842L71.0451 33.4842L71.042 33.2842ZM71.6035 33.1914L71.6701 33.38L71.6722 33.3793L71.6035 33.1914ZM72.0332 32.9277L71.8964 32.7818L71.8938 32.7843L72.0332 32.9277ZM72.2676 31.541L72.0816 31.6146L72.0835 31.6193L72.2676 31.541ZM71.9893 31.1504L71.8591 31.3022L71.8604 31.3034L71.9893 31.1504ZM71.5742 30.9307L71.5133 31.1212L71.5168 31.1222L71.5742 30.9307ZM71.0273 30.8477L71.0306 30.6477H71.0273V30.8477ZM69.9434 30.8477V30.6477H69.7434V30.8477H69.9434ZM71.1445 34.0412H69.9434V34.4412H71.1445V34.0412ZM69.7434 34.2412V37H70.1434V34.2412H69.7434ZM69.9434 36.8H68.7715V37.2H69.9434V36.8ZM68.9715 37V29.8906H68.5715V37H68.9715ZM68.7715 30.0906H71.0273V29.6906H68.7715V30.0906ZM71.0256 30.0906C71.3774 30.0937 71.6973 30.1388 71.9864 30.2241L72.0995 29.8404C71.7702 29.7433 71.4129 29.694 71.0291 29.6906L71.0256 30.0906ZM71.9864 30.2241C72.2746 30.309 72.5182 30.4318 72.7205 30.5901L72.967 30.2751C72.7201 30.0819 72.4298 29.9377 72.0995 29.8404L71.9864 30.2241ZM72.718 30.5881C72.9147 30.7473 73.0686 30.9455 73.1799 31.1857L73.5428 31.0175C73.4067 30.7238 73.2155 30.476 72.9695 30.2771L72.718 30.5881ZM73.1803 31.1865C73.2891 31.4184 73.3469 31.6976 73.3469 32.0293H73.7469C73.7469 31.6514 73.681 31.312 73.5424 31.0166L73.1803 31.1865ZM73.3469 32.0293C73.3469 32.2558 73.3167 32.4557 73.2592 32.631L73.6393 32.7557C73.712 32.5339 73.7469 32.2911 73.7469 32.0293H73.3469ZM73.2583 32.6339C73.2024 32.8134 73.1236 32.973 73.0228 33.1142L73.3483 33.3467C73.4753 33.1689 73.5724 32.9705 73.6402 32.7528L73.2583 32.6339ZM73.0228 33.1142C72.9209 33.2569 72.7985 33.3823 72.6549 33.4908L72.8959 33.81C73.0713 33.6776 73.2223 33.5231 73.3483 33.3467L73.0228 33.1142ZM72.6549 33.4908C72.5081 33.6016 72.3437 33.6983 72.1611 33.7805L72.3252 34.1453C72.5332 34.0517 72.7237 33.9401 72.8959 33.81L72.6549 33.4908ZM72.065 34.0539L73.5836 37.0275L73.9398 36.8456L72.4213 33.8719L72.065 34.0539ZM73.5617 36.9365V37H73.9617V36.9365H73.5617ZM73.7617 36.8H72.5068V37.2H73.7617V36.8ZM72.6862 36.9114L71.3239 34.1527L70.9652 34.3298L72.3275 37.0886L72.6862 36.9114ZM69.9434 33.4842H71.042V33.0842H69.9434V33.4842ZM71.0451 33.4842C71.2712 33.4806 71.4803 33.447 71.6701 33.38L71.537 33.0028C71.3947 33.053 71.2294 33.0812 71.0389 33.0842L71.0451 33.4842ZM71.6722 33.3793C71.8652 33.3087 72.0332 33.2066 72.1726 33.0711L71.8938 32.7843C71.7988 32.8767 71.6804 32.9504 71.5349 33.0036L71.6722 33.3793ZM72.17 33.0736C72.2968 32.9547 72.3939 32.8097 72.4625 32.6421L72.0922 32.4907C72.0436 32.6096 71.9779 32.7054 71.8964 32.7818L72.17 33.0736ZM72.4625 32.6421C72.5325 32.471 72.5652 32.2818 72.5652 32.0781H72.1652C72.1652 32.239 72.1394 32.3754 72.0922 32.4907L72.4625 32.6421ZM72.5652 32.0781C72.5652 31.8522 72.5294 31.6455 72.4516 31.4627L72.0835 31.6193C72.136 31.7425 72.1652 31.8939 72.1652 32.0781H72.5652ZM72.4535 31.4674C72.38 31.2816 72.2681 31.1237 72.1181 30.9974L71.8604 31.3034C71.9578 31.3854 72.0315 31.4879 72.0816 31.6146L72.4535 31.4674ZM72.1194 30.9985C71.9817 30.8805 71.8176 30.7949 71.6317 30.7391L71.5168 31.1222C71.6563 31.1641 71.769 31.225 71.8591 31.3022L72.1194 30.9985ZM71.6352 30.7402C71.4507 30.6812 71.2486 30.6512 71.0306 30.6477L71.0241 31.0476C71.2098 31.0506 71.3722 31.076 71.5133 31.1211L71.6352 30.7402ZM71.0273 30.6477H69.9434V31.0477H71.0273V30.6477ZM69.7434 30.8477V33.2842H70.1434V30.8477H69.7434ZM78.9424 33.8115V34.0115H79.1424V33.8115H78.9424ZM76.0029 33.8115V33.6115H75.8029V33.8115H76.0029ZM76.0029 36.0332H75.8029V36.2332H76.0029V36.0332ZM79.4355 36.0332H79.6355V35.8332H79.4355V36.0332ZM79.4355 37V37.2H79.6355V37H79.4355ZM74.8262 37H74.6262V37.2H74.8262V37ZM74.8262 29.8906V29.6906H74.6262V29.8906H74.8262ZM79.4111 29.8906H79.6111V29.6906H79.4111V29.8906ZM79.4111 30.8623V31.0623H79.6111V30.8623H79.4111ZM76.0029 30.8623V30.6623H75.8029V30.8623H76.0029ZM76.0029 32.8643H75.8029V33.0643H76.0029V32.8643ZM78.9424 32.8643H79.1424V32.6643H78.9424V32.8643ZM78.9424 33.6115H76.0029V34.0115H78.9424V33.6115ZM75.8029 33.8115V36.0332H76.2029V33.8115H75.8029ZM76.0029 36.2332H79.4355V35.8332H76.0029V36.2332ZM79.2355 36.0332V37H79.6355V36.0332H79.2355ZM79.4355 36.8H74.8262V37.2H79.4355V36.8ZM75.0262 37V29.8906H74.6262V37H75.0262ZM74.8262 30.0906H79.4111V29.6906H74.8262V30.0906ZM79.2111 29.8906V30.8623H79.6111V29.8906H79.2111ZM79.4111 30.6623H76.0029V31.0623H79.4111V30.6623ZM75.8029 30.8623V32.8643H76.2029V30.8623H75.8029ZM76.0029 33.0643H78.9424V32.6643H76.0029V33.0643ZM78.7424 32.8643V33.8115H79.1424V32.8643H78.7424ZM83.1562 34.2412L83.3356 34.1527L83.2805 34.0412H83.1562V34.2412ZM81.9551 34.2412V34.0412H81.7551V34.2412H81.9551ZM81.9551 37V37.2H82.1551V37H81.9551ZM80.7832 37H80.5832V37.2H80.7832V37ZM80.7832 29.8906V29.6906H80.5832V29.8906H80.7832ZM83.0391 29.8906L83.0408 29.6906H83.0391V29.8906ZM84.8555 30.4326L84.9813 30.2771L84.9787 30.2751L84.8555 30.4326ZM85.373 31.1016L85.1916 31.1857L85.192 31.1865L85.373 31.1016ZM85.4609 32.6934L85.2709 32.631L85.27 32.6339L85.4609 32.6934ZM84.2549 33.9629L84.1728 33.7805L83.9812 33.8667L84.0768 34.0539L84.2549 33.9629ZM85.7734 36.9365H85.9734V36.8884L85.9516 36.8456L85.7734 36.9365ZM85.7734 37V37.2H85.9734V37H85.7734ZM84.5186 37L84.3392 37.0886L84.3943 37.2H84.5186V37ZM81.9551 33.2842H81.7551V33.4842H81.9551V33.2842ZM83.0537 33.2842V33.4842L83.0568 33.4842L83.0537 33.2842ZM83.6152 33.1914L83.6818 33.38L83.6839 33.3793L83.6152 33.1914ZM84.0449 32.9277L83.9081 32.7818L83.9055 32.7843L84.0449 32.9277ZM84.2793 31.541L84.0933 31.6146L84.0953 31.6193L84.2793 31.541ZM84.001 31.1504L83.8708 31.3022L83.8722 31.3034L84.001 31.1504ZM83.5859 30.9307L83.525 31.1212L83.5285 31.1222L83.5859 30.9307ZM83.0391 30.8477L83.0423 30.6477H83.0391V30.8477ZM81.9551 30.8477V30.6477H81.7551V30.8477H81.9551ZM83.1562 34.0412H81.9551V34.4412H83.1562V34.0412ZM81.7551 34.2412V37H82.1551V34.2412H81.7551ZM81.9551 36.8H80.7832V37.2H81.9551V36.8ZM80.9832 37V29.8906H80.5832V37H80.9832ZM80.7832 30.0906H83.0391V29.6906H80.7832V30.0906ZM83.0373 30.0906C83.3891 30.0937 83.709 30.1388 83.9981 30.2241L84.1112 29.8404C83.7819 29.7433 83.4247 29.694 83.0408 29.6906L83.0373 30.0906ZM83.9981 30.2241C84.2863 30.309 84.5299 30.4318 84.7322 30.5901L84.9787 30.2751C84.7318 30.0819 84.4415 29.9377 84.1112 29.8404L83.9981 30.2241ZM84.7297 30.5881C84.9265 30.7473 85.0803 30.9455 85.1916 31.1857L85.5545 31.0175C85.4184 30.7238 85.2272 30.476 84.9812 30.2771L84.7297 30.5881ZM85.192 31.1865C85.3008 31.4184 85.3586 31.6976 85.3586 32.0293H85.7586C85.7586 31.6514 85.6927 31.312 85.5541 31.0166L85.192 31.1865ZM85.3586 32.0293C85.3586 32.2558 85.3284 32.4557 85.2709 32.631L85.651 32.7557C85.7237 32.5339 85.7586 32.2911 85.7586 32.0293H85.3586ZM85.27 32.6339C85.2141 32.8134 85.1354 32.973 85.0345 33.1142L85.36 33.3467C85.487 33.1689 85.5841 32.9705 85.6519 32.7528L85.27 32.6339ZM85.0345 33.1142C84.9326 33.2569 84.8102 33.3823 84.6666 33.4908L84.9076 33.81C85.083 33.6776 85.2341 33.5231 85.36 33.3467L85.0345 33.1142ZM84.6666 33.4908C84.5198 33.6016 84.3555 33.6983 84.1728 33.7805L84.337 34.1453C84.5449 34.0517 84.7354 33.9401 84.9076 33.81L84.6666 33.4908ZM84.0768 34.0539L85.5953 37.0275L85.9516 36.8456L84.433 33.8719L84.0768 34.0539ZM85.5734 36.9365V37H85.9734V36.9365H85.5734ZM85.7734 36.8H84.5186V37.2H85.7734V36.8ZM84.6979 36.9114L83.3356 34.1527L82.9769 34.3298L84.3392 37.0886L84.6979 36.9114ZM81.9551 33.4842H83.0537V33.0842H81.9551V33.4842ZM83.0568 33.4842C83.2829 33.4806 83.492 33.447 83.6818 33.38L83.5487 33.0028C83.4064 33.053 83.2412 33.0812 83.0506 33.0842L83.0568 33.4842ZM83.6839 33.3793C83.8769 33.3087 84.045 33.2066 84.1843 33.0711L83.9055 32.7843C83.8105 32.8767 83.6921 32.9504 83.5466 33.0036L83.6839 33.3793ZM84.1817 33.0736C84.3085 32.9547 84.4056 32.8097 84.4742 32.6421L84.104 32.4907C84.0553 32.6096 83.9896 32.7054 83.9081 32.7818L84.1817 33.0736ZM84.4742 32.6421C84.5442 32.471 84.577 32.2818 84.577 32.0781H84.177C84.177 32.239 84.1511 32.3754 84.104 32.4907L84.4742 32.6421ZM84.577 32.0781C84.577 31.8522 84.5411 31.6455 84.4633 31.4627L84.0953 31.6193C84.1477 31.7425 84.177 31.8939 84.177 32.0781H84.577ZM84.4653 31.4674C84.3917 31.2816 84.2798 31.1237 84.1298 30.9974L83.8722 31.3034C83.9695 31.3854 84.0432 31.4879 84.0933 31.6146L84.4653 31.4674ZM84.1311 30.9985C83.9934 30.8805 83.8294 30.7949 83.6434 30.7391L83.5285 31.1222C83.668 31.1641 83.7807 31.225 83.8708 31.3022L84.1311 30.9985ZM83.6469 30.7402C83.4624 30.6812 83.2603 30.6512 83.0423 30.6477L83.0358 31.0476C83.2215 31.0506 83.3839 31.076 83.525 31.1211L83.6469 30.7402ZM83.0391 30.6477H81.9551V31.0477H83.0391V30.6477ZM81.7551 30.8477V33.2842H82.1551V30.8477H81.7551Z" fill="white"/>
<defs>
<linearGradient id="paint0_linear_565_143" x1="18.9699" y1="5.57813" x2="18.9699" y2="36.5799" gradientUnits="userSpaceOnUse">
<stop stop-color="#FF906D"/>
<stop offset="0.515625" stop-color="#FF7171"/>
<stop offset="1" stop-color="#FF5588"/>
</linearGradient>
</defs>
</svg>
