<svg width="120" height="44" viewBox="0 0 120 44" fill="none" xmlns="http://www.w3.org/2000/svg">
  <path d="M48.942 22.3a8.7 8.7 0 0 1-2.613 1.536q-1.441.528-3 .527a8.4 8.4 0 0 1-2.309-.316 8.6 8.6 0 0 1-2.062-.867 9.3 9.3 0 0 1-1.758-1.36 8.7 8.7 0 0 1-1.36-1.758 9 9 0 0 1-.879-2.085 8.7 8.7 0 0 1-.304-2.309q0-1.195.304-2.297a9 9 0 0 1 .88-2.062A8.3 8.3 0 0 1 37.2 9.55a8.6 8.6 0 0 1 3.82-2.227 8.4 8.4 0 0 1 2.309-.316q1.559 0 3 .539 1.44.527 2.613 1.523L47.184 12a5.6 5.6 0 0 0-1.758-1.207 5.1 5.1 0 0 0-2.097-.445q-1.102 0-2.075.422a5.5 5.5 0 0 0-1.687 1.148 5.3 5.3 0 0 0-1.148 1.688 5.1 5.1 0 0 0-.422 2.062q0 1.114.422 2.086a5.44 5.44 0 0 0 2.835 2.848q.973.42 2.075.421.633 0 1.23-.152a5.7 5.7 0 0 0 1.137-.422v-4.781h3.246zm12.48-5.015v-3.363q0-.692-.27-1.3a3.3 3.3 0 0 0-.714-1.079 3.3 3.3 0 0 0-1.078-.715 3.2 3.2 0 0 0-1.3-.27q-.693 0-1.313.27-.61.258-1.067.715a3.5 3.5 0 0 0-.726 1.078q-.258.61-.258 1.3v3.364zM64.786 24h-3.364v-3.363h-6.726V24h-3.352V13.922q0-1.394.528-2.613a6.9 6.9 0 0 1 1.43-2.145q.914-.915 2.132-1.441a6.6 6.6 0 0 1 2.625-.528q1.394 0 2.613.528 1.23.527 2.145 1.441t1.441 2.145q.528 1.218.528 2.613zm19.593 0h-3.351V12q0-.351-.14-.656a1.55 1.55 0 0 0-.364-.528 1.6 1.6 0 0 0-.527-.363 1.7 1.7 0 0 0-.657-.129 1.67 1.67 0 0 0-1.195.492 1.67 1.67 0 0 0-.48 1.184v12H74.3V12q0-.351-.129-.656a1.6 1.6 0 0 0-.363-.528 1.6 1.6 0 0 0-.527-.363 1.7 1.7 0 0 0-.656-.129 1.67 1.67 0 0 0-1.196.492A1.67 1.67 0 0 0 70.95 12v12h-3.364V12q0-1.043.387-1.957a5 5 0 0 1 2.684-2.684 4.9 4.9 0 0 1 1.969-.398q.936 0 1.804.34.867.329 1.559.96.69-.631 1.547-.96a4.9 4.9 0 0 1 1.804-.34q1.044 0 1.957.398a4.8 4.8 0 0 1 1.606 1.079q.69.68 1.078 1.605.398.915.398 1.957zm16.454-5.04q0 1.044-.399 1.958a5.13 5.13 0 0 1-2.683 2.684 4.8 4.8 0 0 1-1.957.398H87.39V7.195h8.402q1.044 0 1.957.399.915.398 1.594 1.09.691.68 1.09 1.593.399.915.399 1.957 0 .47-.129.961a4.6 4.6 0 0 1-.364.95 4 4 0 0 1-.562.832q-.328.375-.727.62.41.224.739.61a4.2 4.2 0 0 1 .914 1.793q.129.492.129.96m-10.079 1.677h5.04a1.67 1.67 0 0 0 1.546-1.02q.13-.305.13-.656t-.13-.656a1.6 1.6 0 0 0-.363-.528 1.6 1.6 0 0 0-.527-.363 1.7 1.7 0 0 0-.657-.129h-5.039zm0-6.715h5.04a1.67 1.67 0 0 0 1.183-.48q.234-.236.363-.54.13-.315.13-.668 0-.351-.13-.656a1.6 1.6 0 0 0-.363-.527 1.6 1.6 0 0 0-.527-.364 1.7 1.7 0 0 0-.657-.128h-5.039zm22.512 3.363v-3.363q0-.692-.269-1.3a3.3 3.3 0 0 0-.715-1.079 3.3 3.3 0 0 0-1.078-.715q-.61-.27-1.301-.27-.692 0-1.313.27-.609.258-1.066.715a3.5 3.5 0 0 0-.727 1.078 3.3 3.3 0 0 0-.257 1.3v3.364zM116.629 24h-3.363v-3.363h-6.726V24h-3.352V13.922q0-1.394.527-2.613a6.9 6.9 0 0 1 1.43-2.145 6.8 6.8 0 0 1 2.133-1.441 6.6 6.6 0 0 1 2.625-.528q1.395 0 2.613.528 1.23.527 2.145 1.441a6.8 6.8 0 0 1 1.441 2.145q.528 1.218.527 2.613z" fill="#fff"/>
  <path d="M3.496 31.205s3.744-4.13 9.61-4.075c0 0-.3-2.092.406-3.737 0 0-6.704-1.728-7.01-9.376.001 0-7.65 6.455-3.006 17.188" fill="url(#a)"/>
  <path d="M4.528 32.79c3.117 4.969 8.974 6.538 8.974 6.538l.012-.13c-.665-3.69 2.634-7.68 2.634-7.68-1.397-.869-2.318-2.554-2.318-2.554-.083.004-.15-.002-.217-.008-5.48.013-9.085 3.835-9.085 3.835" fill="url(#b)"/>
  <path d="M15.51 39.762c4.934.915 8.428-1.106 8.428-1.106-2.678-2.228-2.815-5.8-2.815-5.8-2.162.06-3.229-.47-3.229-.47-3.23 3.041-2.384 7.376-2.384 7.376" fill="url(#c)"/>
  <path d="m24.907 32.216-1.876.55s-.004 2.72 2.91 4.975c0 0 2.133-1.414 2.257-1.647 0 0 7.232-1.844 7.802-10.865 0 0-1.578.058-3.754 1.205l.865-3.909s-7.489 2.294-8.204 9.691" fill="url(#d)"/>
  <path d="M22.61 13.284c0 .824-.683 1.492-1.525 1.492s-1.524-.668-1.524-1.492.683-1.492 1.524-1.492c.842 0 1.524.668 1.524 1.492" fill="url(#e)"/>
  <path d="M24.984 5.034c-1.184.801-2.476 1.598-3.839 2.267s-2.773 1.217-4.165 1.57l-3.015.745c-.7.188-1.418.345-2.11.509-.725.181-2.31.679-3.46 1.959 0 0-1.076 5.35 3.769 8.747 0 0 1.865 1.365 5.271 1.053a11.6 11.6 0 0 0 4.382-1.333c1.1-.61 2.653-1.547 3.637-2.552.087-.109.184-.202.28-.295.072-.06.169-.153.272-.27l6.179-6.343a1.207 1.207 0 0 0-1.658-.273l-3.379 2.33c.363-2.269-1.328-7.794-1.328-7.794-.103-.298-.372-.361-.58-.353-.15-.003-.256.033-.256.033m-6.88 8.234c-.011-1.613 1.336-2.916 2.983-2.927 1.638.013 2.986 1.324 2.972 2.929.012 1.612-1.327 2.931-2.982 2.927-1.63.002-2.977-1.308-2.972-2.93" fill="url(#f)"/>
  <path d="M22.61 13.283c0 .825-.683 1.493-1.525 1.493s-1.524-.668-1.524-1.493c0-.824.683-1.492 1.524-1.492.842 0 1.524.668 1.524 1.492" fill="url(#g)"/>
  <path d="M22.61 13.283c0 .825-.683 1.493-1.525 1.493s-1.524-.668-1.524-1.493c0-.824.683-1.492 1.524-1.492.842 0 1.524.668 1.524 1.492" fill="url(#h)"/>
  <rect x="84" y="27" width="34" height="13" rx="6.5" fill="#05FFA5"/>
  <path d="M90.129 31.4v2.802h1.401q.288 0 .542-.107.255-.113.445-.303t.297-.444a1.4 1.4 0 0 0 .113-.547q0-.288-.113-.542a1.37 1.37 0 0 0-.742-.747 1.3 1.3 0 0 0-.542-.113zm0 5.6h-1.401v-7.002h2.802q.386 0 .742.103.358.098.664.283.314.18.567.44.258.252.44.566.185.312.283.669.102.356.102.742 0 .576-.22 1.089a2.82 2.82 0 0 1-1.494 1.49 2.7 2.7 0 0 1-1.084.219h-1.4zm9.927 0h-4.903v-7.002h1.402v5.6h3.501zm4.853-2.798v-1.401q0-.288-.112-.542a1.4 1.4 0 0 0-.298-.45 1.4 1.4 0 0 0-.449-.297 1.3 1.3 0 0 0-.542-.113q-.288 0-.547.113a1.4 1.4 0 0 0-.747.747 1.4 1.4 0 0 0-.108.542v1.401zM106.311 37h-1.402v-1.401h-2.803V37h-1.396v-4.2q0-.58.22-1.088.22-.513.595-.894.382-.381.889-.6.513-.22 1.094-.22.58 0 1.089.22.512.219.893.6.38.381.601.894.22.507.22 1.089zm4.287 0h-1.397v-2.192a2.8 2.8 0 0 1-.854-.376 2.8 2.8 0 0 1-.664-.616 2.9 2.9 0 0 1-.435-.796 2.8 2.8 0 0 1-.151-.922v-2.1h1.401v2.1q0 .288.107.547a1.46 1.46 0 0 0 .748.747q.258.107.546.107a1.38 1.38 0 0 0 .992-.41q.19-.19.297-.444.113-.26.113-.547v-2.1h1.396v2.1q0 .484-.156.922-.151.435-.43.796a2.8 2.8 0 0 1-.664.616q-.386.258-.849.376z" fill="#000"/>
  <defs>
    <linearGradient id="a" x1="14.759" y1="38.489" x2="6.117" y2="22.374" gradientUnits="userSpaceOnUse">
      <stop stop-color="#FF1653"/>
      <stop offset="1" stop-color="#FF7A53"/>
    </linearGradient>
    <linearGradient id="b" x1="14.082" y1="38.85" x2="5.441" y2="22.735" gradientUnits="userSpaceOnUse">
      <stop stop-color="#FF1653"/>
      <stop offset="1" stop-color="#FF7A53"/>
    </linearGradient>
    <linearGradient id="c" x1="18.437" y1="36.516" x2="9.795" y2="20.402" gradientUnits="userSpaceOnUse">
      <stop stop-color="#FF1653"/>
      <stop offset="1" stop-color="#FF7A53"/>
    </linearGradient>
    <linearGradient id="d" x1="29.952" y1="30.339" x2="21.311" y2="14.225" gradientUnits="userSpaceOnUse">
      <stop stop-color="#FF1653"/>
      <stop offset="1" stop-color="#FF7A53"/>
    </linearGradient>
    <linearGradient id="e" x1="30.472" y1="30.064" x2="21.831" y2="13.95" gradientUnits="userSpaceOnUse">
      <stop stop-color="#FF1653"/>
      <stop offset="1" stop-color="#FF7A53"/>
    </linearGradient>
    <linearGradient id="f" x1="29.74" y1="30.452" x2="21.099" y2="14.338" gradientUnits="userSpaceOnUse">
      <stop stop-color="#FF1653"/>
      <stop offset="1" stop-color="#FF7A53"/>
    </linearGradient>
    <linearGradient id="g" x1="30.472" y1="30.063" x2="21.831" y2="13.948" gradientUnits="userSpaceOnUse">
      <stop stop-color="#FF1653"/>
      <stop offset="1" stop-color="#FF7A53"/>
    </linearGradient>
    <linearGradient id="h" x1="30.472" y1="30.063" x2="21.831" y2="13.948" gradientUnits="userSpaceOnUse">
      <stop stop-color="#FF1653"/>
      <stop offset="1" stop-color="#FF7A53"/>
    </linearGradient>
  </defs>
</svg>
