<svg width="462" height="462" viewBox="0 0 462 462" fill="none" xmlns="http://www.w3.org/2000/svg">
<path fill-rule="evenodd" clip-rule="evenodd" d="M312.677 195.436C312.677 192.769 314.839 190.606 317.506 190.606C320.173 190.606 322.335 192.769 322.335 195.436V214.452C322.335 217.119 320.173 219.281 317.506 219.281C314.839 219.281 312.677 217.119 312.677 214.452V195.436ZM285.294 210.42C283.408 208.534 283.408 205.476 285.294 203.59C287.18 201.704 290.238 201.704 292.124 203.59L305.57 217.037C307.456 218.923 307.456 221.981 305.57 223.867C303.684 225.753 300.627 225.753 298.741 223.867L285.294 210.42ZM316.815 231.72C314.259 229.164 310.115 229.164 307.559 231.72L287.681 251.598L281.896 245.814C277.991 241.909 271.659 241.909 267.754 245.814L261.6 251.968C234.433 238.99 200.909 243.752 178.407 266.254C149.864 294.796 149.864 341.072 178.407 369.614C206.949 398.156 253.225 398.156 281.767 369.614C304.076 347.305 308.948 314.162 296.382 287.121L302.721 280.781C306.627 276.876 306.627 270.545 302.721 266.639L296.937 260.855L316.815 240.976C319.371 238.42 319.371 234.276 316.815 231.72ZM324.89 243.186C323.004 245.072 323.004 248.13 324.89 250.016L338.336 263.462C340.222 265.348 343.28 265.348 345.166 263.462C347.052 261.576 347.052 258.519 345.166 256.633L331.72 243.186C329.834 241.3 326.776 241.3 324.89 243.186ZM357.555 230.655C357.555 227.988 355.393 225.826 352.725 225.826H333.709C331.042 225.826 328.88 227.988 328.88 230.655C328.88 233.323 331.042 235.485 333.709 235.485H352.725C355.393 235.485 357.555 233.323 357.555 230.655ZM340.317 201.019C342.203 199.133 345.261 199.133 347.147 201.019C349.033 202.905 349.033 205.963 347.147 207.849L333.7 221.295C331.814 223.181 328.756 223.181 326.87 221.295C324.984 219.409 324.984 216.352 326.87 214.466L340.317 201.019ZM214.532 285.41C223.407 276.535 237.796 276.535 246.67 285.41C250.576 289.315 256.907 289.315 260.813 285.41C264.718 281.504 264.718 275.173 260.813 271.267C244.127 254.582 217.075 254.582 200.39 271.267C196.484 275.173 196.484 281.504 200.39 285.41C204.295 289.315 210.627 289.315 214.532 285.41Z" fill="white" fill-opacity="0.3"/>
<path d="M57.5029 124.421C57.2706 121.524 60.881 120.022 62.7716 122.229L84.406 147.484C85.2515 148.472 86.6364 148.802 87.8365 148.303L118.541 135.532C121.224 134.416 123.768 137.385 122.253 139.865L104.92 168.245C104.242 169.354 104.356 170.773 105.201 171.761L126.836 197.016C128.726 199.223 126.688 202.56 123.861 201.886L91.5141 194.17C90.2499 193.869 88.9353 194.415 88.2578 195.524L70.9239 223.904C69.4091 226.384 65.6056 225.477 65.3733 222.58L62.7155 189.432C62.6116 188.136 61.6853 187.055 60.4211 186.754L28.0739 179.038C25.247 178.364 24.9345 174.466 27.6178 173.35L58.3224 160.579C59.5224 160.08 60.2646 158.864 60.1607 157.569L57.5029 124.421Z" fill="white" fill-opacity="0.3"/>
<path d="M254.007 21.3314C255.195 19.5562 257.805 19.5562 258.993 21.3314L297.883 79.4377C298.559 80.4475 298.559 81.7652 297.883 82.775L258.993 140.881C257.805 142.656 255.195 142.656 254.007 140.881L215.117 82.775C214.441 81.7652 214.441 80.4475 215.117 79.4377L254.007 21.3314Z" fill="white" fill-opacity="0.3"/>
<circle cx="387" cy="390" r="29" fill="white" fill-opacity="0.3"/>
</svg>
