<svg width="120" height="43" viewBox="0 0 120 43" fill="none" xmlns="http://www.w3.org/2000/svg">
<path fill-rule="evenodd" clip-rule="evenodd" d="M32.7466 20.3239C32.7466 27.675 26.6053 34.2214 19.3475 34.2214H13.9309C13.7366 34.2214 13.5604 34.3337 13.4642 34.5046C12.5954 36.0491 11.3713 36.5825 8.23919 36.5799C7.87927 36.5796 7.637 36.2088 7.7818 35.8751L10.8726 32.7446L7.69802 29.5292C7.5885 29.2016 7.83406 28.8671 8.17551 28.869C10.8581 28.8835 12.2794 29.2137 13.4563 30.8588C13.5576 31.0005 13.718 31.0896 13.8907 31.0896H15.5468C20.4726 31.0896 23.7155 28.3727 24.8238 25.1522H20.654C19.8613 25.1522 19.2186 24.5095 19.2186 23.7167C19.2186 22.924 19.8613 22.2813 20.654 22.2813H25.2386C25.2032 21.5719 25.0648 20.8688 24.8191 20.1934H19.2368C18.444 20.1934 17.8014 19.5507 17.8014 18.758C17.8014 17.9652 18.444 17.3225 19.2368 17.3225H22.8753C21.1565 15.7589 18.4705 14.7127 14.7093 14.7127C14.6416 14.7127 14.5745 14.7119 14.5081 14.7104C14.4851 14.7119 14.4618 14.7127 14.4384 14.7127H6.21924C5.64268 14.7127 5.17529 14.2453 5.17529 13.6687C5.17529 13.0922 5.64268 12.6248 6.21924 12.6248H9.90758C8.7211 11.216 8.13442 9.32575 7.63208 7.70727C7.47294 7.19455 7.32227 6.70911 7.16367 6.27488C7.04019 5.93678 7.28834 5.57812 7.64425 5.57812H19.4763C27.1116 6.36874 33.1365 13.7879 32.7466 20.3239ZM18.9609 9.88438C18.9609 11.614 17.5766 13.0162 15.8688 13.0162C14.1611 13.0162 12.7767 11.614 12.7767 9.88438C12.7767 8.15471 14.1611 6.75253 15.8688 6.75253C17.5766 6.75253 18.9609 8.15471 18.9609 9.88438ZM15.8688 11.1894C16.5804 11.1894 17.1572 10.6051 17.1572 9.88444C17.1572 9.16375 16.5804 8.57951 15.8688 8.57951C15.1573 8.57951 14.5804 9.16375 14.5804 9.88444C14.5804 10.6051 15.1573 11.1894 15.8688 11.1894Z" fill="#FF6847"/>
<mask id="path-2-outside-1_569_162" maskUnits="userSpaceOnUse" x="37" y="6" width="79" height="21" fill="black">
<rect fill="white" x="37" y="6" width="79" height="21"/>
<path d="M51.2664 23.4906C51.2665 23.5485 51.2469 23.6048 51.209 23.6485C50.9864 23.9057 50.6925 24.1664 50.3271 24.4307C49.9294 24.7184 49.4596 24.9766 48.918 25.2051C48.3678 25.4421 47.7542 25.6325 47.0771 25.7764C46.4001 25.9202 45.6722 25.9922 44.8936 25.9922C44.2165 25.9922 43.5775 25.9118 42.9766 25.751C42.3841 25.5986 41.8382 25.3743 41.3389 25.0781C40.848 24.7734 40.3994 24.401 39.9932 23.9609C39.5954 23.5208 39.2568 23.0173 38.9775 22.4502C38.6559 21.8239 38.4105 21.1172 38.2412 20.3301C38.0804 19.543 38 18.6882 38 17.7656V15.252C38 14.3717 38.0804 13.555 38.2412 12.8018C38.402 12.04 38.6305 11.3503 38.9268 10.7324C39.2061 10.1823 39.5277 9.68717 39.8916 9.24707C40.264 8.80697 40.6702 8.42611 41.1104 8.10449C41.6266 7.74056 42.1895 7.46549 42.7988 7.2793C43.4082 7.0931 44.0514 7 44.7285 7C45.7695 7 46.6751 7.13118 47.4453 7.39355C48.224 7.65592 48.8799 8.03255 49.4131 8.52344C49.9463 9.02279 50.361 9.62793 50.6572 10.3389C50.9301 10.9755 51.1181 11.6834 51.2213 12.4626C51.2407 12.6097 51.1247 12.7383 50.9763 12.7383H47.9945C47.8691 12.7383 47.7636 12.6452 47.7435 12.5214C47.6847 12.1605 47.6022 11.835 47.4961 11.5449C47.3776 11.1979 47.2126 10.9059 47.001 10.6689C46.764 10.4066 46.4635 10.2119 46.0996 10.085C45.7441 9.94954 45.3167 9.88184 44.8174 9.88184C44.5465 9.88184 44.2842 9.92415 44.0303 10.0088C43.7764 10.0934 43.5394 10.2161 43.3193 10.377C43.0316 10.597 42.7692 10.8848 42.5322 11.2402C42.3037 11.5957 42.1133 12.0146 41.9609 12.4971C41.8424 12.8695 41.7493 13.2842 41.6816 13.7412C41.6224 14.1982 41.5928 14.6934 41.5928 15.2266V17.7656C41.5928 18.4342 41.6351 19.0436 41.7197 19.5938C41.8128 20.1439 41.9398 20.6305 42.1006 21.0537C42.2021 21.2992 42.3164 21.5277 42.4434 21.7393C42.5788 21.9424 42.7269 22.1243 42.8877 22.2852C43.1585 22.556 43.4717 22.7633 43.8271 22.9072C44.1911 23.0426 44.6016 23.1146 45.0586 23.123C45.3379 23.123 45.613 23.1019 45.8838 23.0596C46.1546 23.0173 46.4085 22.958 46.6455 22.8818C46.8825 22.8057 47.0898 22.721 47.2676 22.6279C47.4161 22.5469 47.535 22.4632 47.6242 22.3769C47.6665 22.336 47.6866 22.2783 47.6869 22.2195L47.6983 19.2099C47.6988 19.0715 47.5867 18.959 47.4483 18.959H44.8896C44.7516 18.959 44.6396 18.8471 44.6396 18.709V16.543C44.6396 16.4049 44.7516 16.293 44.8896 16.293H51.0043C51.1422 16.293 51.2541 16.4046 51.2543 16.5425L51.2664 23.4906Z"/>
<path d="M63.3148 22.0616C63.2846 21.9536 63.1861 21.8789 63.074 21.8789H57.9049C57.793 21.8789 57.6948 21.9532 57.6643 22.0609L56.6755 25.5563C56.645 25.664 56.5468 25.7383 56.4349 25.7383H53.2112C53.0411 25.7383 52.9207 25.5721 52.9736 25.4104L58.8655 7.42607C58.8991 7.32336 58.995 7.25391 59.103 7.25391H61.9769C62.0855 7.25391 62.1817 7.32402 62.2149 7.4274L67.9956 25.4118C68.0475 25.5732 67.9271 25.7383 67.7576 25.7383H64.5325C64.4203 25.7383 64.3219 25.6636 64.2917 25.5556L63.3148 22.0616ZM58.6827 18.5261C58.6372 18.6858 58.7571 18.8447 58.9231 18.8447H62.0968C62.2622 18.8447 62.382 18.6871 62.3377 18.5278L60.7719 12.895C60.7043 12.6519 60.3599 12.6507 60.2906 12.8934L58.6827 18.5261Z"/>
<path d="M73.9742 7.25391C74.0887 7.25391 74.1886 7.33171 74.2166 7.44275L75.694 13.299C75.7565 13.5467 76.1063 13.5523 76.1767 13.3069L77.8621 7.43494C77.8929 7.32776 77.9909 7.25391 78.1024 7.25391H82.0947C82.2328 7.25391 82.3447 7.36584 82.3447 7.50391V25.4883C82.3447 25.6264 82.2328 25.7383 82.0947 25.7383H79.3193C79.1813 25.7383 79.0693 25.6264 79.0693 25.4883V20.2666L79.1899 13.4218C79.1951 13.1316 78.7846 13.0672 78.7007 13.345L76.8506 19.4669C76.8187 19.5724 76.7215 19.6445 76.6113 19.6445H75.2214C75.1095 19.6445 75.0112 19.5702 74.9808 19.4625L73.3873 13.8249C73.3076 13.5429 72.8914 13.6045 72.8968 13.8975L73.0137 20.2666V25.4883C73.0137 25.6264 72.9017 25.7383 72.7637 25.7383H69.9883C69.8502 25.7383 69.7383 25.6264 69.7383 25.4883V7.50391C69.7383 7.36584 69.8502 7.25391 69.9883 7.25391H73.9742Z"/>
<path d="M85.6289 25.7383C85.4908 25.7383 85.3789 25.6264 85.3789 25.4883V7.50391C85.3789 7.36584 85.4908 7.25391 85.6289 7.25391H91.5869C92.5941 7.25391 93.5081 7.35547 94.3291 7.55859C95.1585 7.76172 95.8652 8.07064 96.4492 8.48535C97.0332 8.90007 97.4818 9.4248 97.7949 10.0596C98.1165 10.6943 98.2773 11.4434 98.2773 12.3066C98.2689 12.8652 98.1673 13.3942 97.9727 13.8936C97.7865 14.3844 97.5072 14.8161 97.1348 15.1885C96.9316 15.3916 96.6989 15.5778 96.4365 15.7471C96.1841 15.9153 95.9025 16.0585 95.5916 16.1766C95.5882 16.1779 95.5859 16.1811 95.5859 16.1848C95.5859 16.1887 95.5886 16.1921 95.5924 16.1932C96.1987 16.3622 96.679 16.5774 97.0332 16.8389C97.3971 17.1012 97.7018 17.4059 97.9473 17.7529C98.2012 18.1253 98.3874 18.5316 98.5059 18.9717C98.6328 19.4033 98.6963 19.8519 98.6963 20.3174C98.6963 21.2061 98.5439 21.9889 98.2393 22.666C97.9346 23.3431 97.4987 23.9102 96.9316 24.3672C96.3646 24.8242 95.6748 25.167 94.8623 25.3955C94.0498 25.624 93.1357 25.7383 92.1201 25.7383H85.6289ZM89.209 17.5879C89.0709 17.5879 88.959 17.6998 88.959 17.8379V22.6064C88.959 22.7445 89.0709 22.8564 89.209 22.8564H92.1328C92.5983 22.8564 93.013 22.7972 93.377 22.6787C93.7493 22.5602 94.0583 22.3994 94.3037 22.1963C94.5745 21.9678 94.7777 21.6927 94.9131 21.3711C95.057 21.0495 95.1289 20.6898 95.1289 20.292C95.1289 19.8773 95.0739 19.5049 94.9639 19.1748C94.8623 18.8447 94.6973 18.5654 94.4688 18.3369C94.2402 18.0999 93.944 17.918 93.5801 17.791C93.2161 17.6641 92.7845 17.5964 92.2852 17.5879H89.209ZM88.959 14.7607C88.959 14.8988 89.0709 15.0107 89.209 15.0107H91.6123C92.154 15.0023 92.6322 14.9388 93.0469 14.8203C93.4616 14.6934 93.7959 14.5072 94.0498 14.2617C94.2614 14.0671 94.4222 13.8301 94.5322 13.5508C94.6507 13.2715 94.71 12.9541 94.71 12.5986C94.71 12.2262 94.6592 11.9004 94.5576 11.6211C94.4645 11.3418 94.3206 11.109 94.126 10.9229C93.8721 10.6605 93.5293 10.4701 93.0977 10.3516C92.6745 10.2331 92.1751 10.1696 91.5996 10.1611H89.209C89.0709 10.1611 88.959 10.2731 88.959 10.4111V14.7607Z"/>
<path d="M110.16 22.0616C110.13 21.9536 110.032 21.8789 109.92 21.8789H104.751C104.639 21.8789 104.541 21.9532 104.51 22.0609L103.521 25.5563C103.491 25.664 103.393 25.7383 103.281 25.7383H100.057C99.8868 25.7383 99.7664 25.5721 99.8193 25.4104L105.711 7.42607C105.745 7.32336 105.841 7.25391 105.949 7.25391H108.823C108.931 7.25391 109.027 7.32402 109.061 7.4274L114.841 25.4118C114.893 25.5732 114.773 25.7383 114.603 25.7383H111.378C111.266 25.7383 111.168 25.6636 111.137 25.5556L110.16 22.0616ZM105.528 18.5261C105.483 18.6858 105.603 18.8447 105.769 18.8447H108.943C109.108 18.8447 109.228 18.6871 109.183 18.5278L107.618 12.895C107.55 12.6519 107.206 12.6507 107.136 12.8934L105.528 18.5261Z"/>
</mask>
<path d="M51.2664 23.4906C51.2665 23.5485 51.2469 23.6048 51.209 23.6485C50.9864 23.9057 50.6925 24.1664 50.3271 24.4307C49.9294 24.7184 49.4596 24.9766 48.918 25.2051C48.3678 25.4421 47.7542 25.6325 47.0771 25.7764C46.4001 25.9202 45.6722 25.9922 44.8936 25.9922C44.2165 25.9922 43.5775 25.9118 42.9766 25.751C42.3841 25.5986 41.8382 25.3743 41.3389 25.0781C40.848 24.7734 40.3994 24.401 39.9932 23.9609C39.5954 23.5208 39.2568 23.0173 38.9775 22.4502C38.6559 21.8239 38.4105 21.1172 38.2412 20.3301C38.0804 19.543 38 18.6882 38 17.7656V15.252C38 14.3717 38.0804 13.555 38.2412 12.8018C38.402 12.04 38.6305 11.3503 38.9268 10.7324C39.2061 10.1823 39.5277 9.68717 39.8916 9.24707C40.264 8.80697 40.6702 8.42611 41.1104 8.10449C41.6266 7.74056 42.1895 7.46549 42.7988 7.2793C43.4082 7.0931 44.0514 7 44.7285 7C45.7695 7 46.6751 7.13118 47.4453 7.39355C48.224 7.65592 48.8799 8.03255 49.4131 8.52344C49.9463 9.02279 50.361 9.62793 50.6572 10.3389C50.9301 10.9755 51.1181 11.6834 51.2213 12.4626C51.2407 12.6097 51.1247 12.7383 50.9763 12.7383H47.9945C47.8691 12.7383 47.7636 12.6452 47.7435 12.5214C47.6847 12.1605 47.6022 11.835 47.4961 11.5449C47.3776 11.1979 47.2126 10.9059 47.001 10.6689C46.764 10.4066 46.4635 10.2119 46.0996 10.085C45.7441 9.94954 45.3167 9.88184 44.8174 9.88184C44.5465 9.88184 44.2842 9.92415 44.0303 10.0088C43.7764 10.0934 43.5394 10.2161 43.3193 10.377C43.0316 10.597 42.7692 10.8848 42.5322 11.2402C42.3037 11.5957 42.1133 12.0146 41.9609 12.4971C41.8424 12.8695 41.7493 13.2842 41.6816 13.7412C41.6224 14.1982 41.5928 14.6934 41.5928 15.2266V17.7656C41.5928 18.4342 41.6351 19.0436 41.7197 19.5938C41.8128 20.1439 41.9398 20.6305 42.1006 21.0537C42.2021 21.2992 42.3164 21.5277 42.4434 21.7393C42.5788 21.9424 42.7269 22.1243 42.8877 22.2852C43.1585 22.556 43.4717 22.7633 43.8271 22.9072C44.1911 23.0426 44.6016 23.1146 45.0586 23.123C45.3379 23.123 45.613 23.1019 45.8838 23.0596C46.1546 23.0173 46.4085 22.958 46.6455 22.8818C46.8825 22.8057 47.0898 22.721 47.2676 22.6279C47.4161 22.5469 47.535 22.4632 47.6242 22.3769C47.6665 22.336 47.6866 22.2783 47.6869 22.2195L47.6983 19.2099C47.6988 19.0715 47.5867 18.959 47.4483 18.959H44.8896C44.7516 18.959 44.6396 18.8471 44.6396 18.709V16.543C44.6396 16.4049 44.7516 16.293 44.8896 16.293H51.0043C51.1422 16.293 51.2541 16.4046 51.2543 16.5425L51.2664 23.4906Z" fill="white"/>
<path d="M63.3148 22.0616C63.2846 21.9536 63.1861 21.8789 63.074 21.8789H57.9049C57.793 21.8789 57.6948 21.9532 57.6643 22.0609L56.6755 25.5563C56.645 25.664 56.5468 25.7383 56.4349 25.7383H53.2112C53.0411 25.7383 52.9207 25.5721 52.9736 25.4104L58.8655 7.42607C58.8991 7.32336 58.995 7.25391 59.103 7.25391H61.9769C62.0855 7.25391 62.1817 7.32402 62.2149 7.4274L67.9956 25.4118C68.0475 25.5732 67.9271 25.7383 67.7576 25.7383H64.5325C64.4203 25.7383 64.3219 25.6636 64.2917 25.5556L63.3148 22.0616ZM58.6827 18.5261C58.6372 18.6858 58.7571 18.8447 58.9231 18.8447H62.0968C62.2622 18.8447 62.382 18.6871 62.3377 18.5278L60.7719 12.895C60.7043 12.6519 60.3599 12.6507 60.2906 12.8934L58.6827 18.5261Z" fill="white"/>
<path d="M73.9742 7.25391C74.0887 7.25391 74.1886 7.33171 74.2166 7.44275L75.694 13.299C75.7565 13.5467 76.1063 13.5523 76.1767 13.3069L77.8621 7.43494C77.8929 7.32776 77.9909 7.25391 78.1024 7.25391H82.0947C82.2328 7.25391 82.3447 7.36584 82.3447 7.50391V25.4883C82.3447 25.6264 82.2328 25.7383 82.0947 25.7383H79.3193C79.1813 25.7383 79.0693 25.6264 79.0693 25.4883V20.2666L79.1899 13.4218C79.1951 13.1316 78.7846 13.0672 78.7007 13.345L76.8506 19.4669C76.8187 19.5724 76.7215 19.6445 76.6113 19.6445H75.2214C75.1095 19.6445 75.0112 19.5702 74.9808 19.4625L73.3873 13.8249C73.3076 13.5429 72.8914 13.6045 72.8968 13.8975L73.0137 20.2666V25.4883C73.0137 25.6264 72.9017 25.7383 72.7637 25.7383H69.9883C69.8502 25.7383 69.7383 25.6264 69.7383 25.4883V7.50391C69.7383 7.36584 69.8502 7.25391 69.9883 7.25391H73.9742Z" fill="white"/>
<path d="M85.6289 25.7383C85.4908 25.7383 85.3789 25.6264 85.3789 25.4883V7.50391C85.3789 7.36584 85.4908 7.25391 85.6289 7.25391H91.5869C92.5941 7.25391 93.5081 7.35547 94.3291 7.55859C95.1585 7.76172 95.8652 8.07064 96.4492 8.48535C97.0332 8.90007 97.4818 9.4248 97.7949 10.0596C98.1165 10.6943 98.2773 11.4434 98.2773 12.3066C98.2689 12.8652 98.1673 13.3942 97.9727 13.8936C97.7865 14.3844 97.5072 14.8161 97.1348 15.1885C96.9316 15.3916 96.6989 15.5778 96.4365 15.7471C96.1841 15.9153 95.9025 16.0585 95.5916 16.1766C95.5882 16.1779 95.5859 16.1811 95.5859 16.1848C95.5859 16.1887 95.5886 16.1921 95.5924 16.1932C96.1987 16.3622 96.679 16.5774 97.0332 16.8389C97.3971 17.1012 97.7018 17.4059 97.9473 17.7529C98.2012 18.1253 98.3874 18.5316 98.5059 18.9717C98.6328 19.4033 98.6963 19.8519 98.6963 20.3174C98.6963 21.2061 98.5439 21.9889 98.2393 22.666C97.9346 23.3431 97.4987 23.9102 96.9316 24.3672C96.3646 24.8242 95.6748 25.167 94.8623 25.3955C94.0498 25.624 93.1357 25.7383 92.1201 25.7383H85.6289ZM89.209 17.5879C89.0709 17.5879 88.959 17.6998 88.959 17.8379V22.6064C88.959 22.7445 89.0709 22.8564 89.209 22.8564H92.1328C92.5983 22.8564 93.013 22.7972 93.377 22.6787C93.7493 22.5602 94.0583 22.3994 94.3037 22.1963C94.5745 21.9678 94.7777 21.6927 94.9131 21.3711C95.057 21.0495 95.1289 20.6898 95.1289 20.292C95.1289 19.8773 95.0739 19.5049 94.9639 19.1748C94.8623 18.8447 94.6973 18.5654 94.4688 18.3369C94.2402 18.0999 93.944 17.918 93.5801 17.791C93.2161 17.6641 92.7845 17.5964 92.2852 17.5879H89.209ZM88.959 14.7607C88.959 14.8988 89.0709 15.0107 89.209 15.0107H91.6123C92.154 15.0023 92.6322 14.9388 93.0469 14.8203C93.4616 14.6934 93.7959 14.5072 94.0498 14.2617C94.2614 14.0671 94.4222 13.8301 94.5322 13.5508C94.6507 13.2715 94.71 12.9541 94.71 12.5986C94.71 12.2262 94.6592 11.9004 94.5576 11.6211C94.4645 11.3418 94.3206 11.109 94.126 10.9229C93.8721 10.6605 93.5293 10.4701 93.0977 10.3516C92.6745 10.2331 92.1751 10.1696 91.5996 10.1611H89.209C89.0709 10.1611 88.959 10.2731 88.959 10.4111V14.7607Z" fill="white"/>
<path d="M110.16 22.0616C110.13 21.9536 110.032 21.8789 109.92 21.8789H104.751C104.639 21.8789 104.541 21.9532 104.51 22.0609L103.521 25.5563C103.491 25.664 103.393 25.7383 103.281 25.7383H100.057C99.8868 25.7383 99.7664 25.5721 99.8193 25.4104L105.711 7.42607C105.745 7.32336 105.841 7.25391 105.949 7.25391H108.823C108.931 7.25391 109.027 7.32402 109.061 7.4274L114.841 25.4118C114.893 25.5732 114.773 25.7383 114.603 25.7383H111.378C111.266 25.7383 111.168 25.6636 111.137 25.5556L110.16 22.0616ZM105.528 18.5261C105.483 18.6858 105.603 18.8447 105.769 18.8447H108.943C109.108 18.8447 109.228 18.6871 109.183 18.5278L107.618 12.895C107.55 12.6519 107.206 12.6507 107.136 12.8934L105.528 18.5261Z" fill="white"/>
<path d="M51.2664 23.4906C51.2665 23.5485 51.2469 23.6048 51.209 23.6485C50.9864 23.9057 50.6925 24.1664 50.3271 24.4307C49.9294 24.7184 49.4596 24.9766 48.918 25.2051C48.3678 25.4421 47.7542 25.6325 47.0771 25.7764C46.4001 25.9202 45.6722 25.9922 44.8936 25.9922C44.2165 25.9922 43.5775 25.9118 42.9766 25.751C42.3841 25.5986 41.8382 25.3743 41.3389 25.0781C40.848 24.7734 40.3994 24.401 39.9932 23.9609C39.5954 23.5208 39.2568 23.0173 38.9775 22.4502C38.6559 21.8239 38.4105 21.1172 38.2412 20.3301C38.0804 19.543 38 18.6882 38 17.7656V15.252C38 14.3717 38.0804 13.555 38.2412 12.8018C38.402 12.04 38.6305 11.3503 38.9268 10.7324C39.2061 10.1823 39.5277 9.68717 39.8916 9.24707C40.264 8.80697 40.6702 8.42611 41.1104 8.10449C41.6266 7.74056 42.1895 7.46549 42.7988 7.2793C43.4082 7.0931 44.0514 7 44.7285 7C45.7695 7 46.6751 7.13118 47.4453 7.39355C48.224 7.65592 48.8799 8.03255 49.4131 8.52344C49.9463 9.02279 50.361 9.62793 50.6572 10.3389C50.9301 10.9755 51.1181 11.6834 51.2213 12.4626C51.2407 12.6097 51.1247 12.7383 50.9763 12.7383H47.9945C47.8691 12.7383 47.7636 12.6452 47.7435 12.5214C47.6847 12.1605 47.6022 11.835 47.4961 11.5449C47.3776 11.1979 47.2126 10.9059 47.001 10.6689C46.764 10.4066 46.4635 10.2119 46.0996 10.085C45.7441 9.94954 45.3167 9.88184 44.8174 9.88184C44.5465 9.88184 44.2842 9.92415 44.0303 10.0088C43.7764 10.0934 43.5394 10.2161 43.3193 10.377C43.0316 10.597 42.7692 10.8848 42.5322 11.2402C42.3037 11.5957 42.1133 12.0146 41.9609 12.4971C41.8424 12.8695 41.7493 13.2842 41.6816 13.7412C41.6224 14.1982 41.5928 14.6934 41.5928 15.2266V17.7656C41.5928 18.4342 41.6351 19.0436 41.7197 19.5938C41.8128 20.1439 41.9398 20.6305 42.1006 21.0537C42.2021 21.2992 42.3164 21.5277 42.4434 21.7393C42.5788 21.9424 42.7269 22.1243 42.8877 22.2852C43.1585 22.556 43.4717 22.7633 43.8271 22.9072C44.1911 23.0426 44.6016 23.1146 45.0586 23.123C45.3379 23.123 45.613 23.1019 45.8838 23.0596C46.1546 23.0173 46.4085 22.958 46.6455 22.8818C46.8825 22.8057 47.0898 22.721 47.2676 22.6279C47.4161 22.5469 47.535 22.4632 47.6242 22.3769C47.6665 22.336 47.6866 22.2783 47.6869 22.2195L47.6983 19.2099C47.6988 19.0715 47.5867 18.959 47.4483 18.959H44.8896C44.7516 18.959 44.6396 18.8471 44.6396 18.709V16.543C44.6396 16.4049 44.7516 16.293 44.8896 16.293H51.0043C51.1422 16.293 51.2541 16.4046 51.2543 16.5425L51.2664 23.4906Z" stroke="white" stroke-width="0.4" mask="url(#path-2-outside-1_569_162)"/>
<path d="M63.3148 22.0616C63.2846 21.9536 63.1861 21.8789 63.074 21.8789H57.9049C57.793 21.8789 57.6948 21.9532 57.6643 22.0609L56.6755 25.5563C56.645 25.664 56.5468 25.7383 56.4349 25.7383H53.2112C53.0411 25.7383 52.9207 25.5721 52.9736 25.4104L58.8655 7.42607C58.8991 7.32336 58.995 7.25391 59.103 7.25391H61.9769C62.0855 7.25391 62.1817 7.32402 62.2149 7.4274L67.9956 25.4118C68.0475 25.5732 67.9271 25.7383 67.7576 25.7383H64.5325C64.4203 25.7383 64.3219 25.6636 64.2917 25.5556L63.3148 22.0616ZM58.6827 18.5261C58.6372 18.6858 58.7571 18.8447 58.9231 18.8447H62.0968C62.2622 18.8447 62.382 18.6871 62.3377 18.5278L60.7719 12.895C60.7043 12.6519 60.3599 12.6507 60.2906 12.8934L58.6827 18.5261Z" stroke="white" stroke-width="0.4" mask="url(#path-2-outside-1_569_162)"/>
<path d="M73.9742 7.25391C74.0887 7.25391 74.1886 7.33171 74.2166 7.44275L75.694 13.299C75.7565 13.5467 76.1063 13.5523 76.1767 13.3069L77.8621 7.43494C77.8929 7.32776 77.9909 7.25391 78.1024 7.25391H82.0947C82.2328 7.25391 82.3447 7.36584 82.3447 7.50391V25.4883C82.3447 25.6264 82.2328 25.7383 82.0947 25.7383H79.3193C79.1813 25.7383 79.0693 25.6264 79.0693 25.4883V20.2666L79.1899 13.4218C79.1951 13.1316 78.7846 13.0672 78.7007 13.345L76.8506 19.4669C76.8187 19.5724 76.7215 19.6445 76.6113 19.6445H75.2214C75.1095 19.6445 75.0112 19.5702 74.9808 19.4625L73.3873 13.8249C73.3076 13.5429 72.8914 13.6045 72.8968 13.8975L73.0137 20.2666V25.4883C73.0137 25.6264 72.9017 25.7383 72.7637 25.7383H69.9883C69.8502 25.7383 69.7383 25.6264 69.7383 25.4883V7.50391C69.7383 7.36584 69.8502 7.25391 69.9883 7.25391H73.9742Z" stroke="white" stroke-width="0.4" mask="url(#path-2-outside-1_569_162)"/>
<path d="M85.6289 25.7383C85.4908 25.7383 85.3789 25.6264 85.3789 25.4883V7.50391C85.3789 7.36584 85.4908 7.25391 85.6289 7.25391H91.5869C92.5941 7.25391 93.5081 7.35547 94.3291 7.55859C95.1585 7.76172 95.8652 8.07064 96.4492 8.48535C97.0332 8.90007 97.4818 9.4248 97.7949 10.0596C98.1165 10.6943 98.2773 11.4434 98.2773 12.3066C98.2689 12.8652 98.1673 13.3942 97.9727 13.8936C97.7865 14.3844 97.5072 14.8161 97.1348 15.1885C96.9316 15.3916 96.6989 15.5778 96.4365 15.7471C96.1841 15.9153 95.9025 16.0585 95.5916 16.1766C95.5882 16.1779 95.5859 16.1811 95.5859 16.1848C95.5859 16.1887 95.5886 16.1921 95.5924 16.1932C96.1987 16.3622 96.679 16.5774 97.0332 16.8389C97.3971 17.1012 97.7018 17.4059 97.9473 17.7529C98.2012 18.1253 98.3874 18.5316 98.5059 18.9717C98.6328 19.4033 98.6963 19.8519 98.6963 20.3174C98.6963 21.2061 98.5439 21.9889 98.2393 22.666C97.9346 23.3431 97.4987 23.9102 96.9316 24.3672C96.3646 24.8242 95.6748 25.167 94.8623 25.3955C94.0498 25.624 93.1357 25.7383 92.1201 25.7383H85.6289ZM89.209 17.5879C89.0709 17.5879 88.959 17.6998 88.959 17.8379V22.6064C88.959 22.7445 89.0709 22.8564 89.209 22.8564H92.1328C92.5983 22.8564 93.013 22.7972 93.377 22.6787C93.7493 22.5602 94.0583 22.3994 94.3037 22.1963C94.5745 21.9678 94.7777 21.6927 94.9131 21.3711C95.057 21.0495 95.1289 20.6898 95.1289 20.292C95.1289 19.8773 95.0739 19.5049 94.9639 19.1748C94.8623 18.8447 94.6973 18.5654 94.4688 18.3369C94.2402 18.0999 93.944 17.918 93.5801 17.791C93.2161 17.6641 92.7845 17.5964 92.2852 17.5879H89.209ZM88.959 14.7607C88.959 14.8988 89.0709 15.0107 89.209 15.0107H91.6123C92.154 15.0023 92.6322 14.9388 93.0469 14.8203C93.4616 14.6934 93.7959 14.5072 94.0498 14.2617C94.2614 14.0671 94.4222 13.8301 94.5322 13.5508C94.6507 13.2715 94.71 12.9541 94.71 12.5986C94.71 12.2262 94.6592 11.9004 94.5576 11.6211C94.4645 11.3418 94.3206 11.109 94.126 10.9229C93.8721 10.6605 93.5293 10.4701 93.0977 10.3516C92.6745 10.2331 92.1751 10.1696 91.5996 10.1611H89.209C89.0709 10.1611 88.959 10.2731 88.959 10.4111V14.7607Z" stroke="white" stroke-width="0.4" mask="url(#path-2-outside-1_569_162)"/>
<path d="M110.16 22.0616C110.13 21.9536 110.032 21.8789 109.92 21.8789H104.751C104.639 21.8789 104.541 21.9532 104.51 22.0609L103.521 25.5563C103.491 25.664 103.393 25.7383 103.281 25.7383H100.057C99.8868 25.7383 99.7664 25.5721 99.8193 25.4104L105.711 7.42607C105.745 7.32336 105.841 7.25391 105.949 7.25391H108.823C108.931 7.25391 109.027 7.32402 109.061 7.4274L114.841 25.4118C114.893 25.5732 114.773 25.7383 114.603 25.7383H111.378C111.266 25.7383 111.168 25.6636 111.137 25.5556L110.16 22.0616ZM105.528 18.5261C105.483 18.6858 105.603 18.8447 105.769 18.8447H108.943C109.108 18.8447 109.228 18.6871 109.183 18.5278L107.618 12.895C107.55 12.6519 107.206 12.6507 107.136 12.8934L105.528 18.5261Z" stroke="white" stroke-width="0.4" mask="url(#path-2-outside-1_569_162)"/>
<rect x="85" y="28" width="34" height="13" rx="6.5" fill="#05FFA5"/>
<path d="M90.4896 38L91.72 30.8906L93.4388 30.8955C93.7545 30.902 94.041 30.9508 94.2981 31.042C94.5586 31.1299 94.7897 31.2503 94.9915 31.4033C95.1608 31.54 95.3121 31.6979 95.4456 31.877C95.5823 32.056 95.6914 32.2513 95.7728 32.4629C95.8704 32.7103 95.9339 32.9788 95.9632 33.2686C95.9957 33.555 95.9941 33.8512 95.9583 34.1572L95.8753 34.7432C95.833 35.0296 95.7646 35.3079 95.6702 35.5781C95.5758 35.8451 95.4586 36.0941 95.3187 36.3252C95.1624 36.5889 94.9769 36.8281 94.762 37.043C94.5504 37.2546 94.316 37.432 94.0589 37.5752C93.8245 37.7119 93.569 37.8177 93.2923 37.8926C93.0156 37.9674 92.7226 38.0033 92.4134 38H90.4896ZM92.8772 32.0039L92.0276 36.8965L92.472 36.9062C92.6315 36.9062 92.7812 36.89 92.9212 36.8574C93.0644 36.8216 93.1946 36.7728 93.3118 36.7109C93.5039 36.61 93.6699 36.4831 93.8099 36.3301C93.9498 36.1771 94.0784 35.9899 94.1956 35.7686C94.277 35.6156 94.3421 35.4512 94.3909 35.2754C94.443 35.0996 94.4821 34.9222 94.5081 34.7432L94.5911 34.1426C94.6106 33.9863 94.6204 33.8268 94.6204 33.6641C94.6237 33.498 94.6139 33.3369 94.5911 33.1807C94.5651 33.0244 94.5228 32.8779 94.4642 32.7412C94.4088 32.6012 94.334 32.4775 94.2396 32.3701C94.1419 32.266 94.0231 32.1829 93.8831 32.1211C93.7431 32.056 93.5771 32.0186 93.3851 32.0088L92.8772 32.0039ZM101.178 34.8848H98.346L97.9944 36.8916H101.31L101.115 38H96.4612L97.6966 30.8906H102.335L102.14 32.0088H98.844L98.5315 33.8008H101.368L101.178 34.8848ZM105.114 30.8906L105.299 33.542L106.5 30.8906H108.18L106.945 38H105.714L106.09 35.8418L106.696 32.6777L105.304 35.6562H104.635L104.337 32.6533L103.82 35.9492L103.463 38H102.233L103.468 30.8906H105.114ZM113.478 34.9629C113.436 35.2266 113.374 35.4886 113.292 35.749C113.211 36.0094 113.108 36.2568 112.985 36.4912C112.858 36.7256 112.71 36.9437 112.54 37.1455C112.374 37.3441 112.186 37.515 111.974 37.6582C111.762 37.8014 111.53 37.9121 111.276 37.9902C111.022 38.0684 110.745 38.1042 110.446 38.0977C110.162 38.0911 109.91 38.0439 109.689 37.9561C109.471 37.8649 109.282 37.7428 109.122 37.5898C108.96 37.4401 108.826 37.266 108.722 37.0674C108.618 36.8656 108.538 36.6491 108.483 36.418C108.427 36.1901 108.395 35.9525 108.385 35.7051C108.375 35.4577 108.387 35.2119 108.419 34.9678L108.58 33.9326C108.619 33.6722 108.678 33.4134 108.756 33.1562C108.838 32.8958 108.938 32.6484 109.059 32.4141C109.176 32.1797 109.316 31.9616 109.479 31.7598C109.642 31.5579 109.825 31.3838 110.031 31.2373C110.236 31.0941 110.464 30.9834 110.714 30.9053C110.965 30.8239 111.238 30.7865 111.534 30.793C111.821 30.7995 112.075 30.8467 112.296 30.9346C112.521 31.0225 112.718 31.1413 112.887 31.291C113.053 31.444 113.191 31.6214 113.302 31.8232C113.413 32.0218 113.499 32.235 113.561 32.4629C113.619 32.694 113.655 32.9349 113.668 33.1855C113.681 33.4362 113.672 33.6852 113.639 33.9326L113.478 34.9629ZM112.282 33.918C112.298 33.7975 112.311 33.6657 112.321 33.5225C112.33 33.3792 112.332 33.2344 112.325 33.0879C112.316 32.9447 112.295 32.8047 112.262 32.668C112.229 32.5312 112.179 32.4092 112.111 32.3018C112.042 32.1943 111.953 32.1064 111.842 32.0381C111.731 31.9697 111.593 31.9323 111.427 31.9258C111.248 31.9193 111.09 31.9453 110.953 32.0039C110.817 32.0592 110.698 32.1374 110.597 32.2383C110.493 32.3424 110.403 32.4629 110.328 32.5996C110.254 32.7331 110.192 32.8747 110.143 33.0244C110.091 33.1742 110.048 33.3271 110.016 33.4834C109.983 33.6364 109.957 33.7829 109.938 33.9229L109.777 34.9727C109.76 35.0866 109.746 35.2135 109.733 35.3535C109.723 35.4935 109.72 35.6367 109.723 35.7832C109.723 35.9297 109.736 36.0729 109.762 36.2129C109.788 36.3529 109.832 36.4782 109.894 36.5889C109.956 36.6995 110.039 36.7907 110.143 36.8623C110.25 36.9307 110.387 36.9681 110.553 36.9746C110.729 36.9811 110.887 36.9567 111.027 36.9014C111.167 36.8428 111.292 36.763 111.403 36.6621C111.51 36.5612 111.604 36.4424 111.686 36.3057C111.767 36.1689 111.837 36.0241 111.896 35.8711C111.951 35.7214 111.997 35.5684 112.033 35.4121C112.068 35.2559 112.098 35.1077 112.12 34.9678L112.282 33.918Z" fill="black"/>
<path d="M90.4896 38L90.2925 37.9659L90.252 38.2H90.4896V38ZM91.72 30.8906L91.7206 30.6906L91.5517 30.6901L91.5229 30.8565L91.72 30.8906ZM93.4388 30.8955L93.4429 30.6955L93.4393 30.6955L93.4388 30.8955ZM94.2981 31.042L94.2313 31.2305L94.2342 31.2315L94.2981 31.042ZM94.9915 31.4033L95.1172 31.2477L95.1123 31.2439L94.9915 31.4033ZM95.4456 31.877L95.2852 31.9965L95.2867 31.9983L95.4456 31.877ZM95.7728 32.4629L95.5861 32.5347L95.5867 32.5363L95.7728 32.4629ZM95.9632 33.2686L95.7642 33.2887L95.7645 33.2911L95.9632 33.2686ZM95.9583 34.1572L96.1564 34.1853L96.1569 34.1805L95.9583 34.1572ZM95.8753 34.7432L96.0731 34.7724L96.0733 34.7712L95.8753 34.7432ZM95.6702 35.5781L95.8588 35.6448L95.859 35.6441L95.6702 35.5781ZM95.3187 36.3252L95.1476 36.2216L95.1466 36.2232L95.3187 36.3252ZM94.0589 37.5752L93.9616 37.4004L93.9581 37.4024L94.0589 37.5752ZM92.4134 38L92.4155 37.8H92.4134V38ZM92.8772 32.0039L92.8792 31.8039L92.7093 31.8023L92.6802 31.9697L92.8772 32.0039ZM92.0276 36.8965L91.8306 36.8623L91.7908 37.0913L92.0232 37.0964L92.0276 36.8965ZM92.472 36.9062L92.4676 37.1063H92.472V36.9062ZM92.9212 36.8574L92.9665 37.0522L92.9697 37.0515L92.9212 36.8574ZM93.3118 36.7109L93.2188 36.5339L93.2185 36.5341L93.3118 36.7109ZM94.1956 35.7686L94.019 35.6746L94.0188 35.675L94.1956 35.7686ZM94.3909 35.2754L94.1991 35.2186L94.1982 35.2219L94.3909 35.2754ZM94.5081 34.7432L94.706 34.772L94.7062 34.7705L94.5081 34.7432ZM94.5911 34.1426L94.7892 34.17L94.7896 34.1674L94.5911 34.1426ZM94.6204 33.6641L94.4204 33.6601V33.6641H94.6204ZM94.5911 33.1807L94.7891 33.1518L94.7884 33.1478L94.5911 33.1807ZM94.4642 32.7412L94.2781 32.8148L94.2803 32.82L94.4642 32.7412ZM94.2396 32.3701L94.3899 32.238L94.3855 32.2333L94.2396 32.3701ZM93.8831 32.1211L93.7987 32.3025L93.8023 32.304L93.8831 32.1211ZM93.3851 32.0088L93.3952 31.8089L93.387 31.8088L93.3851 32.0088ZM90.6866 38.0341L91.9171 30.9247L91.5229 30.8565L90.2925 37.9659L90.6866 38.0341ZM91.7195 31.0906L93.4382 31.0955L93.4393 30.6955L91.7206 30.6906L91.7195 31.0906ZM93.4346 31.0955C93.7323 31.1016 93.9972 31.1475 94.2313 31.2305L94.365 30.8535C94.0848 30.7542 93.7767 30.7024 93.4429 30.6956L93.4346 31.0955ZM94.2342 31.2315C94.4759 31.3131 94.6875 31.4238 94.8707 31.5627L95.1123 31.2439C94.8919 31.0768 94.6412 30.9467 94.3621 30.8525L94.2342 31.2315ZM94.8658 31.5589C95.0217 31.6848 95.1615 31.8305 95.2853 31.9965L95.606 31.7574C95.4627 31.5653 95.2998 31.3952 95.1172 31.2477L94.8658 31.5589ZM95.2867 31.9983C95.4117 32.1621 95.5115 32.3407 95.5861 32.5347L95.9594 32.3911C95.8713 32.1619 95.7529 31.9498 95.6046 31.7556L95.2867 31.9983ZM95.5867 32.5363C95.677 32.7651 95.7366 33.0155 95.7642 33.2887L96.1622 33.2484C96.1312 32.9422 96.0638 32.6555 95.9588 32.3895L95.5867 32.5363ZM95.7645 33.2911C95.7952 33.5614 95.7938 33.8422 95.7597 34.134L96.1569 34.1805C96.1944 33.8603 96.1963 33.5487 96.1619 33.246L95.7645 33.2911ZM95.7603 34.1292L95.6773 34.7151L96.0733 34.7712L96.1563 34.1853L95.7603 34.1292ZM95.6774 34.7139C95.6369 34.988 95.5716 35.254 95.4814 35.5122L95.859 35.6441C95.9576 35.3618 96.029 35.0712 96.0731 34.7724L95.6774 34.7139ZM95.4817 35.5114C95.3916 35.7661 95.2802 36.0027 95.1476 36.2216L95.4897 36.4288C95.6371 36.1855 95.76 35.924 95.8588 35.6448L95.4817 35.5114ZM95.1466 36.2232C94.9988 36.4727 94.8235 36.6986 94.6206 36.9015L94.9034 37.1844C95.1302 36.9576 95.326 36.7051 95.4907 36.4272L95.1466 36.2232ZM94.6206 36.9015C94.4219 37.1003 94.2023 37.2664 93.9616 37.4005L94.1562 37.7499C94.4298 37.5975 94.679 37.4088 94.9034 37.1844L94.6206 36.9015ZM93.9581 37.4024C93.7398 37.5298 93.5007 37.629 93.24 37.6995L93.3445 38.0856C93.6373 38.0064 93.9092 37.894 94.1597 37.748L93.9581 37.4024ZM93.24 37.6995C92.9824 37.7692 92.7078 37.8031 92.4155 37.8L92.4113 38.2C92.7374 38.2034 93.0488 38.1657 93.3445 38.0856L93.24 37.6995ZM92.4134 37.8H90.4896V38.2H92.4134V37.8ZM92.6802 31.9697L91.8306 36.8623L92.2247 36.9307L93.0743 32.0381L92.6802 31.9697ZM92.0232 37.0964L92.4676 37.1062L92.4764 36.7063L92.032 36.6965L92.0232 37.0964ZM92.472 37.1063C92.6451 37.1063 92.8101 37.0886 92.9665 37.0522L92.8759 36.6626C92.7523 36.6914 92.6179 36.7062 92.472 36.7062V37.1063ZM92.9697 37.0515C93.1268 37.0122 93.2723 36.958 93.4052 36.8878L93.2185 36.5341C93.117 36.5876 93.0021 36.631 92.8727 36.6634L92.9697 37.0515ZM93.4048 36.888C93.6164 36.7768 93.8011 36.6359 93.9574 36.4651L93.6623 36.1951C93.5387 36.3302 93.3913 36.4432 93.2188 36.5339L93.4048 36.888ZM93.9574 36.4651C94.1109 36.2973 94.2488 36.0955 94.3724 35.8621L94.0188 35.675C93.908 35.8843 93.7887 36.0569 93.6623 36.1951L93.9574 36.4651ZM94.3722 35.8625C94.4607 35.696 94.5311 35.518 94.5836 35.3289L94.1982 35.2219C94.1531 35.3844 94.0932 35.5351 94.019 35.6746L94.3722 35.8625ZM94.5827 35.3322C94.6374 35.1474 94.6786 34.9606 94.706 34.772L94.3102 34.7144C94.2855 34.8838 94.2486 35.0519 94.1992 35.2186L94.5827 35.3322ZM94.7062 34.7705L94.7892 34.17L94.393 34.1152L94.31 34.7158L94.7062 34.7705ZM94.7896 34.1674C94.8102 34.0026 94.8204 33.8348 94.8204 33.6641H94.4204C94.4204 33.8188 94.4111 33.97 94.3927 34.1178L94.7896 34.1674ZM94.8204 33.668C94.8238 33.4916 94.8135 33.3194 94.789 33.1518L94.3932 33.2095C94.4143 33.3544 94.4235 33.5045 94.4204 33.6601L94.8204 33.668ZM94.7884 33.1478C94.7599 32.9768 94.7133 32.8148 94.648 32.6624L94.2803 32.82C94.3322 32.9411 94.3703 33.0721 94.3938 33.2135L94.7884 33.1478ZM94.6502 32.6677C94.5868 32.5074 94.5002 32.3637 94.3898 32.2381L94.0893 32.5021C94.1677 32.5914 94.2308 32.695 94.2782 32.8147L94.6502 32.6677ZM94.3855 32.2333C94.2681 32.1082 94.1267 32.0101 93.9639 31.9382L93.8023 32.304C93.9195 32.3558 94.0156 32.4237 94.0936 32.5069L94.3855 32.2333ZM93.9675 31.9397C93.7992 31.8615 93.6069 31.8198 93.3952 31.809L93.3749 32.2085C93.5474 32.2173 93.6871 32.2505 93.7988 32.3024L93.9675 31.9397ZM93.387 31.8088L92.8792 31.8039L92.8753 32.2039L93.3831 32.2088L93.387 31.8088ZM101.178 34.8848V35.0848H101.346L101.375 34.9194L101.178 34.8848ZM98.346 34.8848V34.6848H98.178L98.149 34.8503L98.346 34.8848ZM97.9944 36.8916L97.7974 36.8571L97.7564 37.0916H97.9944V36.8916ZM101.31 36.8916L101.507 36.9263L101.548 36.6916H101.31V36.8916ZM101.115 38V38.2H101.282L101.312 38.0347L101.115 38ZM96.4612 38L96.2642 37.9658L96.2235 38.2H96.4612V38ZM97.6966 30.8906V30.6906H97.5283L97.4995 30.8564L97.6966 30.8906ZM102.335 30.8906L102.532 30.925L102.573 30.6906H102.335V30.8906ZM102.14 32.0088V32.2088H102.308L102.337 32.0432L102.14 32.0088ZM98.844 32.0088V31.8088H98.6759L98.647 31.9744L98.844 32.0088ZM98.5315 33.8008L98.3345 33.7664L98.2936 34.0008H98.5315V33.8008ZM101.368 33.8008L101.565 33.8354L101.607 33.6008H101.368V33.8008ZM101.178 34.6848H98.346V35.0848H101.178V34.6848ZM98.149 34.8503L97.7974 36.8571L98.1914 36.9261L98.543 34.9193L98.149 34.8503ZM97.9944 37.0916H101.31V36.6916H97.9944V37.0916ZM101.113 36.8569L100.918 37.9653L101.312 38.0347L101.507 36.9263L101.113 36.8569ZM101.115 37.8H96.4612V38.2H101.115V37.8ZM96.6583 38.0342L97.8936 30.9249L97.4995 30.8564L96.2642 37.9658L96.6583 38.0342ZM97.6966 31.0906H102.335V30.6906H97.6966V31.0906ZM102.138 30.8562L101.943 31.9744L102.337 32.0432L102.532 30.925L102.138 30.8562ZM102.14 31.8088H98.844V32.2088H102.14V31.8088ZM98.647 31.9744L98.3345 33.7664L98.7286 33.8351L99.0411 32.0431L98.647 31.9744ZM98.5315 34.0008H101.368V33.6008H98.5315V34.0008ZM101.171 33.7662L100.981 34.8502L101.375 34.9194L101.565 33.8354L101.171 33.7662ZM105.114 30.8906L105.313 30.8767L105.3 30.6906H105.114V30.8906ZM105.299 33.542L105.1 33.556L105.481 33.6245L105.299 33.542ZM106.5 30.8906V30.6906H106.371L106.318 30.8081L106.5 30.8906ZM108.18 30.8906L108.377 30.9249L108.418 30.6906H108.18V30.8906ZM106.945 38V38.2H107.113L107.142 38.0342L106.945 38ZM105.714 38L105.517 37.9657L105.476 38.2H105.714V38ZM106.09 35.8418L105.894 35.8042L105.893 35.8075L106.09 35.8418ZM106.696 32.6777L106.892 32.7153L106.514 32.5931L106.696 32.6777ZM105.304 35.6562V35.8563H105.431L105.485 35.7409L105.304 35.6562ZM104.635 35.6562L104.436 35.676L104.454 35.8563H104.635V35.6562ZM104.337 32.6533L104.536 32.6336L104.14 32.6223L104.337 32.6533ZM103.82 35.9492L104.017 35.9835L104.017 35.9802L103.82 35.9492ZM103.463 38V38.2H103.631L103.66 38.0342L103.463 38ZM102.233 38L102.036 37.9658L101.995 38.2H102.233V38ZM103.468 30.8906V30.6906H103.3L103.271 30.8564L103.468 30.8906ZM104.914 30.9046L105.1 33.556L105.499 33.528L105.313 30.8767L104.914 30.9046ZM105.481 33.6245L106.682 30.9732L106.318 30.8081L105.117 33.4595L105.481 33.6245ZM106.5 31.0906H108.18V30.6906H106.5V31.0906ZM107.983 30.8564L106.748 37.9658L107.142 38.0342L108.377 30.9249L107.983 30.8564ZM106.945 37.8H105.714V38.2H106.945V37.8ZM105.911 38.0343L106.287 35.8761L105.893 35.8075L105.517 37.9657L105.911 38.0343ZM106.287 35.8794L106.892 32.7153L106.499 32.6401L105.894 35.8042L106.287 35.8794ZM106.514 32.5931L105.123 35.5716L105.485 35.7409L106.877 32.7624L106.514 32.5931ZM105.304 35.4562H104.635V35.8563H105.304V35.4562ZM104.834 35.6365L104.536 32.6336L104.138 32.6731L104.436 35.676L104.834 35.6365ZM104.14 32.6223L103.622 35.9182L104.017 35.9802L104.535 32.6843L104.14 32.6223ZM103.623 35.915L103.266 37.9658L103.66 38.0342L104.017 35.9835L103.623 35.915ZM103.463 37.8H102.233V38.2H103.463V37.8ZM102.43 38.0342L103.665 30.9249L103.271 30.8564L102.036 37.9658L102.43 38.0342ZM103.468 31.0906H105.114V30.6906H103.468V31.0906ZM113.478 34.9629L113.675 34.9946L113.675 34.9938L113.478 34.9629ZM112.985 36.4912L113.161 36.5865L113.162 36.5846L112.985 36.4912ZM112.54 37.1455L112.387 37.017L112.387 37.0172L112.54 37.1455ZM111.974 37.6582L111.862 37.4926L111.974 37.6582ZM110.446 38.0977L110.441 38.2976L110.441 38.2976L110.446 38.0977ZM109.689 37.9561L109.612 38.1406L109.615 38.1419L109.689 37.9561ZM109.122 37.5898L109.261 37.4455L109.258 37.4427L109.122 37.5898ZM108.722 37.0674L108.544 37.1591L108.545 37.1603L108.722 37.0674ZM108.483 36.418L108.677 36.3714L108.677 36.3708L108.483 36.418ZM108.419 34.9678L108.222 34.937L108.221 34.9413L108.419 34.9678ZM108.58 33.9326L108.778 33.9634L108.778 33.9623L108.58 33.9326ZM108.756 33.1562L108.565 33.0966L108.565 33.0981L108.756 33.1562ZM109.059 32.4141L109.237 32.5055L109.238 32.5035L109.059 32.4141ZM110.031 31.2373L109.916 31.0733L109.914 31.0746L110.031 31.2373ZM110.714 30.9053L110.774 31.0962L110.776 31.0955L110.714 30.9053ZM111.534 30.793L111.539 30.593L111.539 30.593L111.534 30.793ZM112.296 30.9346L112.222 31.1205L112.223 31.1208L112.296 30.9346ZM112.887 31.291L113.023 31.1439L113.02 31.1412L112.887 31.291ZM113.302 31.8232L113.127 31.9194L113.127 31.9206L113.302 31.8232ZM113.561 32.4629L113.755 32.4137L113.754 32.4105L113.561 32.4629ZM113.639 33.9326L113.837 33.9635L113.837 33.9587L113.639 33.9326ZM112.282 33.918L112.479 33.9483L112.48 33.9448L112.282 33.918ZM112.325 33.0879L112.525 33.079L112.525 33.0743L112.325 33.0879ZM111.427 31.9258L111.435 31.7259L111.434 31.7259L111.427 31.9258ZM110.953 32.0039L111.028 32.1893L111.032 32.1877L110.953 32.0039ZM110.597 32.2383L110.738 32.3797L110.597 32.2383ZM110.328 32.5996L110.503 32.6975L110.504 32.6957L110.328 32.5996ZM110.143 33.0244L110.332 33.0901L110.333 33.0864L110.143 33.0244ZM110.016 33.4834L110.212 33.525L110.212 33.5242L110.016 33.4834ZM109.938 33.9229L110.135 33.9532L110.136 33.9505L109.938 33.9229ZM109.777 34.9727L109.579 34.9423L109.579 34.9444L109.777 34.9727ZM109.733 35.3535L109.534 35.335L109.533 35.3396L109.733 35.3535ZM109.723 35.7832H109.923L109.923 35.7788L109.723 35.7832ZM110.143 36.8623L110.029 37.0272L110.035 37.031L110.143 36.8623ZM110.553 36.9746L110.545 37.1745L110.546 37.1745L110.553 36.9746ZM111.027 36.9014L111.1 37.0874L111.104 37.0859L111.027 36.9014ZM111.403 36.6621L111.537 36.8099L111.54 36.8079L111.403 36.6621ZM111.896 35.8711L112.083 35.9426L112.083 35.9404L111.896 35.8711ZM112.12 34.9678L112.318 34.9999L112.318 34.9981L112.12 34.9678ZM113.28 34.9312C113.24 35.1852 113.18 35.4379 113.101 35.6894L113.483 35.8087C113.567 35.5393 113.631 35.2679 113.675 34.9946L113.28 34.9312ZM113.101 35.6894C113.024 35.9385 112.926 36.1746 112.808 36.3979L113.162 36.5846C113.291 36.3391 113.398 36.0804 113.483 35.8087L113.101 35.6894ZM112.809 36.396C112.688 36.6187 112.548 36.8256 112.387 37.017L112.694 37.274C112.872 37.0618 113.027 36.8325 113.161 36.5865L112.809 36.396ZM112.387 37.0172C112.233 37.2017 112.058 37.3599 111.862 37.4926L112.086 37.8238C112.313 37.67 112.516 37.4865 112.694 37.2738L112.387 37.0172ZM111.862 37.4926C111.667 37.6243 111.453 37.7265 111.217 37.7991L111.335 38.1814C111.607 38.0977 111.857 37.9786 112.086 37.8238L111.862 37.4926ZM111.217 37.7991C110.986 37.8702 110.731 37.9038 110.45 37.8977L110.441 38.2976C110.759 38.3045 111.058 38.2666 111.335 38.1814L111.217 37.7991ZM110.45 37.8977C110.186 37.8916 109.958 37.8478 109.763 37.7702L109.615 38.1419C109.862 38.2401 110.138 38.2906 110.441 38.2976L110.45 37.8977ZM109.766 37.7715C109.569 37.6892 109.401 37.5803 109.261 37.4455L108.984 37.7342C109.162 37.9054 109.372 38.0406 109.612 38.1406L109.766 37.7715ZM109.258 37.4427C109.112 37.3087 108.993 37.153 108.899 36.9745L108.545 37.1603C108.66 37.3789 108.807 37.5715 108.987 37.737L109.258 37.4427ZM108.9 36.9757C108.803 36.7888 108.729 36.5876 108.677 36.3714L108.288 36.4645C108.347 36.7106 108.432 36.9423 108.544 37.1591L108.9 36.9757ZM108.677 36.3708C108.625 36.1565 108.594 35.9321 108.585 35.6972L108.185 35.713C108.195 35.9729 108.23 36.2237 108.288 36.4652L108.677 36.3708ZM108.585 35.6972C108.576 35.4612 108.586 35.2269 108.617 34.9942L108.221 34.9413C108.187 35.1969 108.175 35.4542 108.185 35.713L108.585 35.6972ZM108.617 34.9985L108.778 33.9634L108.383 33.9019L108.222 34.937L108.617 34.9985ZM108.778 33.9623C108.816 33.7117 108.872 33.4624 108.948 33.2144L108.565 33.0981C108.484 33.3644 108.423 33.6327 108.383 33.9029L108.778 33.9623ZM108.947 33.2159C109.025 32.966 109.122 32.7293 109.237 32.5055L108.881 32.3226C108.755 32.5676 108.65 32.8256 108.565 33.0966L108.947 33.2159ZM109.238 32.5035C109.349 32.2818 109.481 32.0759 109.634 31.8853L109.323 31.6342C109.151 31.8473 109.004 32.0775 108.88 32.3246L109.238 32.5035ZM109.634 31.8853C109.786 31.6972 109.957 31.5357 110.147 31.4001L109.914 31.0746C109.694 31.2319 109.497 31.4187 109.323 31.6342L109.634 31.8853ZM110.145 31.4013C110.333 31.2704 110.542 31.1685 110.774 31.0962L110.655 30.7143C110.385 30.7983 110.139 30.9178 109.916 31.0733L110.145 31.4013ZM110.776 31.0955C111.003 31.0219 111.254 30.9868 111.53 30.9929L111.539 30.593C111.223 30.5861 110.927 30.6259 110.652 30.715L110.776 31.0955ZM111.53 30.9929C111.797 30.999 112.027 31.0429 112.222 31.1205L112.37 30.7487C112.123 30.6505 111.845 30.6 111.539 30.593L111.53 30.9929ZM112.223 31.1208C112.428 31.2007 112.604 31.3077 112.754 31.4408L113.02 31.1412C112.832 30.9749 112.614 30.8442 112.369 30.7483L112.223 31.1208ZM112.751 31.4381C112.901 31.5761 113.026 31.7362 113.127 31.9194L113.477 31.7271C113.357 31.5066 113.205 31.3119 113.023 31.1439L112.751 31.4381ZM113.127 31.9206C113.23 32.1044 113.31 32.3025 113.368 32.5153L113.754 32.4105C113.688 32.1676 113.596 31.9392 113.477 31.7259L113.127 31.9206ZM113.367 32.512C113.422 32.7298 113.456 32.9577 113.469 33.1959L113.868 33.1752C113.854 32.9121 113.817 32.6582 113.755 32.4137L113.367 32.512ZM113.469 33.1959C113.481 33.4345 113.472 33.6713 113.441 33.9065L113.837 33.9587C113.871 33.6992 113.882 33.4379 113.868 33.1752L113.469 33.1959ZM113.441 33.9017L113.28 34.932L113.675 34.9938L113.837 33.9635L113.441 33.9017ZM112.48 33.9448C112.497 33.8192 112.51 33.6829 112.52 33.5361L112.121 33.5089C112.112 33.6484 112.099 33.7758 112.083 33.8912L112.48 33.9448ZM112.52 33.5361C112.53 33.3852 112.532 33.2328 112.525 33.079L112.126 33.0968C112.132 33.2359 112.13 33.3733 112.121 33.5089L112.52 33.5361ZM112.525 33.0743C112.515 32.9203 112.492 32.7693 112.457 32.6216L112.067 32.7143C112.097 32.84 112.117 32.9691 112.126 33.1015L112.525 33.0743ZM112.457 32.6216C112.419 32.4655 112.361 32.3224 112.279 32.1944L111.942 32.4091C111.997 32.4959 112.04 32.597 112.067 32.7143L112.457 32.6216ZM112.279 32.1944C112.194 32.0609 112.083 31.9518 111.947 31.8679L111.737 32.2082C111.823 32.2611 111.89 32.3277 111.942 32.4091L112.279 32.1944ZM111.947 31.8679C111.8 31.7771 111.626 31.7334 111.435 31.7259L111.419 32.1256C111.56 32.1312 111.663 32.1623 111.737 32.2082L111.947 31.8679ZM111.434 31.7259C111.232 31.7185 111.043 31.7477 110.875 31.8201L111.032 32.1877C111.137 32.1429 111.264 32.12 111.42 32.1256L111.434 31.7259ZM110.878 31.8185C110.718 31.8836 110.576 31.9764 110.456 32.0969L110.738 32.3797C110.82 32.2984 110.916 32.2349 111.028 32.1893L110.878 31.8185ZM110.456 32.0969C110.337 32.2152 110.236 32.3511 110.153 32.5035L110.504 32.6957C110.57 32.5746 110.648 32.4697 110.738 32.3797L110.456 32.0969ZM110.154 32.5018C110.073 32.647 110.005 32.8006 109.953 32.9624L110.333 33.0864C110.378 32.9487 110.435 32.8192 110.503 32.6975L110.154 32.5018ZM109.954 32.9587C109.899 33.1167 109.854 33.278 109.82 33.4426L110.212 33.5242C110.243 33.3763 110.283 33.2317 110.332 33.0901L109.954 32.9587ZM109.82 33.4418C109.787 33.5989 109.76 33.7501 109.74 33.8952L110.136 33.9505C110.155 33.8157 110.18 33.6739 110.212 33.525L109.82 33.4418ZM109.74 33.8925L109.579 34.9423L109.974 35.003L110.135 33.9532L109.74 33.8925ZM109.579 34.9444C109.562 35.0622 109.547 35.1924 109.534 35.335L109.932 35.372C109.945 35.2346 109.959 35.111 109.975 35.0009L109.579 34.9444ZM109.533 35.3396C109.523 35.4859 109.52 35.6353 109.523 35.7876L109.923 35.7788C109.92 35.6381 109.923 35.501 109.932 35.3674L109.533 35.3396ZM109.523 35.7832C109.523 35.9416 109.537 36.0971 109.565 36.2495L109.959 36.1763C109.935 36.0487 109.923 35.9178 109.923 35.7832H109.523ZM109.565 36.2495C109.595 36.4082 109.646 36.5546 109.719 36.6864L110.068 36.4913C110.018 36.4018 109.981 36.2975 109.959 36.1763L109.565 36.2495ZM109.719 36.6864C109.796 36.8239 109.9 36.938 110.03 37.0271L110.256 36.6975C110.177 36.6433 110.115 36.5752 110.068 36.4913L109.719 36.6864ZM110.035 37.031C110.181 37.1233 110.354 37.167 110.545 37.1745L110.561 36.7748C110.42 36.7692 110.32 36.738 110.25 36.6936L110.035 37.031ZM110.546 37.1745C110.744 37.1818 110.931 37.1544 111.1 37.0874L110.953 36.7154C110.843 36.759 110.713 36.7804 110.56 36.7747L110.546 37.1745ZM111.104 37.0859C111.265 37.0185 111.41 36.9265 111.537 36.8099L111.268 36.5143C111.174 36.5996 111.069 36.667 110.949 36.7169L111.104 37.0859ZM111.54 36.8079C111.662 36.6932 111.768 36.5595 111.858 36.408L111.514 36.2034C111.441 36.3253 111.358 36.4292 111.266 36.5163L111.54 36.8079ZM111.858 36.408C111.945 36.2611 112.02 36.106 112.083 35.9426L111.709 35.7996C111.654 35.9422 111.589 36.0767 111.514 36.2034L111.858 36.408ZM112.083 35.9404C112.142 35.7826 112.19 35.6214 112.227 35.4568L111.838 35.3674C111.804 35.5154 111.761 35.6601 111.708 35.8018L112.083 35.9404ZM112.227 35.4568C112.264 35.2969 112.294 35.1446 112.318 34.9999L111.923 34.9356C111.901 35.0709 111.873 35.2148 111.838 35.3674L112.227 35.4568ZM112.318 34.9981L112.479 33.9483L112.084 33.8876L111.923 34.9374L112.318 34.9981Z" fill="black"/>
</svg>
