<svg width="91" height="100" viewBox="0 0 91 100" fill="none" xmlns="http://www.w3.org/2000/svg">
<path fill-rule="evenodd" clip-rule="evenodd" d="M90.0772 47.5641C90.0772 71.2759 70.0131 92.3922 46.3013 92.3922H28.6051C27.9704 92.3922 27.3946 92.7542 27.0804 93.3056C24.2419 98.2877 20.2427 100.008 10.0099 100C8.834 99.9987 8.0425 98.8029 8.51558 97.7262L18.6134 87.6287L8.24185 77.2572C7.88407 76.2002 8.6863 75.1214 9.80183 75.1273C18.566 75.174 23.2093 76.239 27.0546 81.5459C27.3856 82.0026 27.9095 82.2901 28.4737 82.2901H33.8842C49.9773 82.2901 60.5723 73.5265 64.193 63.1382H50.5106C47.9535 63.1382 45.8804 61.0652 45.8804 58.5081C45.8804 55.951 47.9535 53.8779 50.5106 53.8779H65.548C65.4326 51.5898 64.9806 49.3219 64.1775 47.1432H45.8804C43.3233 47.1432 41.2503 45.0702 41.2503 42.5131C41.2503 39.9559 43.3233 37.8829 45.8804 37.8829H57.827C52.2115 32.8393 43.4361 29.4645 31.1482 29.4645C30.9367 29.4645 30.7273 29.4623 30.52 29.4578C30.4494 29.4623 30.3781 29.4645 30.3063 29.4645H3.36737C1.50762 29.4645 0 27.9569 0 26.0971C0 24.2374 1.50762 22.7298 3.36737 22.7298H15.4606C11.5843 18.1855 9.6676 12.0884 8.02642 6.86784C7.5065 5.214 7.01423 3.64811 6.49612 2.24746C6.09267 1.15689 6.90341 0 8.0662 0H46.7223C71.6673 2.55021 91.3509 26.4816 90.0772 47.5641ZM45.0386 13.8904C45.0386 19.4696 40.5157 23.9925 34.9365 23.9925C29.3572 23.9925 24.8344 19.4696 24.8344 13.8904C24.8344 8.31118 29.3572 3.78829 34.9365 3.78829C40.5157 3.78829 45.0386 8.31118 45.0386 13.8904ZM34.9365 18.0996C37.2612 18.0996 39.1457 16.2151 39.1457 13.8904C39.1457 11.5657 37.2612 9.68119 34.9365 9.68119C32.6118 9.68119 30.7273 11.5657 30.7273 13.8904C30.7273 16.2151 32.6118 18.0996 34.9365 18.0996Z" fill="url(#paint0_linear_517_210)"/>
<defs>
<linearGradient id="paint0_linear_517_210" x1="45.0678" y1="0" x2="45.0678" y2="100" gradientUnits="userSpaceOnUse">
<stop stop-color="#FF7C53"/>
<stop offset="0.515625" stop-color="#FF5555"/>
<stop offset="1" stop-color="#FF0A53"/>
</linearGradient>
</defs>
</svg>
