<svg width="587" height="199" viewBox="0 0 587 199" fill="none" xmlns="http://www.w3.org/2000/svg">
<path fill-rule="evenodd" clip-rule="evenodd" d="M155.977 92.7459C155.977 126.292 127.592 156.166 94.046 156.166H69.0104C68.1125 156.166 67.2979 156.678 66.8534 157.458C62.8376 164.507 57.1799 166.94 42.7031 166.929C41.0395 166.927 39.9197 165.235 40.589 163.712L54.8748 149.426L40.2018 134.754C39.6956 133.259 40.8306 131.732 42.4087 131.741C54.8077 131.807 61.3769 133.314 66.8169 140.821C67.2852 141.467 68.0264 141.874 68.8246 141.874H76.479C99.2464 141.874 114.235 129.476 119.358 114.779H100.001C96.3833 114.779 93.4506 111.846 93.4506 108.229C93.4506 104.611 96.3833 101.678 100.001 101.678H121.275C121.112 98.4411 120.472 95.2324 119.336 92.1502H93.4506C89.8329 92.1502 86.9001 89.2174 86.9001 85.5997C86.9001 81.982 89.8329 79.0493 93.4506 79.0493H110.351C102.407 71.914 89.9925 67.1396 72.6082 67.1396C72.3094 67.1396 72.0135 67.1365 71.7205 67.1302C71.6202 67.1365 71.5191 67.1397 71.4173 67.1397H33.3057C30.6746 67.1397 28.5417 65.0068 28.5417 62.3758C28.5417 59.7447 30.6746 57.6118 33.3057 57.6118H50.4144C44.9305 51.1828 42.2188 42.557 39.897 35.1712L39.897 35.1712C39.1614 32.8315 38.465 30.6162 37.732 28.6347C37.1613 27.0918 38.3082 25.4551 39.9532 25.4551H94.6415C129.932 29.063 157.779 62.9196 155.977 92.7459ZM92.2596 45.1063C92.2596 52.9995 85.8609 59.3981 77.9678 59.3981C70.0746 59.3981 63.6759 52.9995 63.6759 45.1063C63.6759 37.2131 70.0746 30.8145 77.9678 30.8145C85.8609 30.8145 92.2596 37.2131 92.2596 45.1063ZM77.9678 51.0612C81.2566 51.0612 83.9227 48.3951 83.9227 45.1063C83.9227 41.8175 81.2566 39.1514 77.9678 39.1514C74.6789 39.1514 72.0128 41.8175 72.0128 45.1063C72.0128 48.3951 74.6789 51.0612 77.9678 51.0612Z" fill="#FF6847"/>
<path d="M257.328 133.039C256.273 134.328 254.828 135.637 252.992 136.965C251.156 138.293 248.988 139.484 246.488 140.539C243.949 141.633 241.117 142.512 237.992 143.176C234.867 143.84 231.508 144.172 227.914 144.172C224.789 144.172 221.84 143.801 219.066 143.059C216.332 142.355 213.812 141.32 211.508 139.953C209.242 138.547 207.172 136.828 205.297 134.797C203.461 132.766 201.898 130.441 200.609 127.824C199.125 124.934 197.992 121.672 197.211 118.039C196.469 114.406 196.098 110.461 196.098 106.203V94.6016C196.098 90.5391 196.469 86.7695 197.211 83.293C197.953 79.7773 199.008 76.5938 200.375 73.7422C201.664 71.2031 203.148 68.918 204.828 66.8867C206.547 64.8555 208.422 63.0977 210.453 61.6133C212.836 59.9336 215.434 58.6641 218.246 57.8047C221.059 56.9453 224.027 56.5156 227.152 56.5156C231.957 56.5156 236.137 57.1211 239.691 58.332C243.285 59.543 246.312 61.2812 248.773 63.5469C251.234 65.8516 253.148 68.6445 254.516 71.9258C255.922 75.207 256.84 78.8984 257.27 83H241.215C240.941 80.9297 240.512 79.0938 239.926 77.4922C239.379 75.8906 238.617 74.543 237.641 73.4492C236.547 72.2383 235.16 71.3398 233.48 70.7539C231.84 70.1289 229.867 69.8164 227.562 69.8164C226.312 69.8164 225.102 70.0117 223.93 70.4023C222.758 70.793 221.664 71.3594 220.648 72.1016C219.32 73.1172 218.109 74.4453 217.016 76.0859C215.961 77.7266 215.082 79.6602 214.379 81.8867C213.832 83.6055 213.402 85.5195 213.09 87.6289C212.816 89.7383 212.68 92.0234 212.68 94.4844V106.203C212.68 109.289 212.875 112.102 213.266 114.641C213.695 117.18 214.281 119.426 215.023 121.379C215.492 122.512 216.02 123.566 216.605 124.543C217.23 125.48 217.914 126.32 218.656 127.062C219.906 128.312 221.352 129.27 222.992 129.934C224.672 130.559 226.566 130.891 228.676 130.93C229.965 130.93 231.234 130.832 232.484 130.637C233.734 130.441 234.906 130.168 236 129.816C237.094 129.465 238.051 129.074 238.871 128.645C239.73 128.176 240.375 127.688 240.805 127.18L240.863 111.711H226.742V99.4062H257.27L257.328 133.039ZM312.699 125.188H287.094L282.055 143H264.711L292.66 57.6875H307.602L335.023 143H317.68L312.699 125.188ZM291.137 111.184H308.832L300.102 79.7773L291.137 111.184ZM363.031 57.6875L371.117 89.7383L380.316 57.6875H400.766V143H385.648V117.746L386.352 77.8438L375.16 114.875H367.016L356.996 79.4258L357.699 117.746V143H342.582V57.6875H363.031ZM414.77 143V57.6875H443.422C448.07 57.6875 452.289 58.1562 456.078 59.0938C459.906 60.0312 463.168 61.457 465.863 63.3711C468.559 65.2852 470.629 67.707 472.074 70.6367C473.559 73.5664 474.301 77.0234 474.301 81.0078C474.262 83.5859 473.793 86.0273 472.895 88.332C472.035 90.5977 470.746 92.5898 469.027 94.3086C468.09 95.2461 467.016 96.1055 465.805 96.8867C464.633 97.668 463.324 98.332 461.879 98.8789V98.9375C464.691 99.7188 466.918 100.715 468.559 101.926C470.238 103.137 471.645 104.543 472.777 106.145C473.949 107.863 474.809 109.738 475.355 111.77C475.941 113.762 476.234 115.832 476.234 117.98C476.234 122.082 475.531 125.695 474.125 128.82C472.719 131.945 470.707 134.562 468.09 136.672C465.473 138.781 462.289 140.363 458.539 141.418C454.789 142.473 450.57 143 445.883 143H414.77ZM431.293 105.383V129.699H445.941C448.09 129.699 450.004 129.426 451.684 128.879C453.402 128.332 454.828 127.59 455.961 126.652C457.211 125.598 458.148 124.328 458.773 122.844C459.438 121.359 459.77 119.699 459.77 117.863C459.77 115.949 459.516 114.23 459.008 112.707C458.539 111.184 457.777 109.895 456.723 108.84C455.668 107.746 454.301 106.906 452.621 106.32C450.941 105.734 448.949 105.422 446.645 105.383H431.293ZM431.293 93.4883H443.539C446.039 93.4492 448.246 93.1562 450.16 92.6094C452.074 92.0234 453.617 91.1641 454.789 90.0312C455.766 89.1328 456.508 88.0391 457.016 86.75C457.562 85.4609 457.836 83.9961 457.836 82.3555C457.836 80.6367 457.602 79.1328 457.133 77.8438C456.703 76.5547 456.039 75.4805 455.141 74.6211C453.969 73.4102 452.387 72.5312 450.395 71.9844C448.441 71.4375 446.137 71.1445 443.48 71.1055H431.293V93.4883ZM528.91 125.188H503.305L498.266 143H480.922L508.871 57.6875H523.812L551.234 143H533.891L528.91 125.188ZM507.348 111.184H525.043L516.312 79.7773L507.348 111.184Z" fill="white"/>
<rect x="446" y="138" width="141" height="59" rx="29.5" fill="#05FFA5"/>
<path d="M461.336 186L467.242 151.875L475.141 151.898C476.688 151.93 478.094 152.164 479.359 152.602C480.625 153.039 481.742 153.641 482.711 154.406C483.57 155.078 484.32 155.875 484.961 156.797C485.617 157.719 486.141 158.719 486.531 159.797C486.938 160.953 487.203 162.195 487.328 163.523C487.453 164.836 487.43 166.203 487.258 167.625L486.883 170.297C486.664 171.719 486.312 173.094 485.828 174.422C485.359 175.75 484.781 176.977 484.094 178.102C483.359 179.305 482.492 180.398 481.492 181.383C480.492 182.367 479.406 183.195 478.234 183.867C477.062 184.555 475.789 185.086 474.414 185.461C473.039 185.836 471.578 186.016 470.031 186H461.336ZM472.023 156.469L467.688 181.43L470.242 181.477C471.211 181.477 472.117 181.367 472.961 181.148C473.805 180.914 474.578 180.594 475.281 180.188C476.188 179.688 476.984 179.07 477.672 178.336C478.359 177.586 478.977 176.711 479.523 175.711C479.961 174.914 480.328 174.055 480.625 173.133C480.922 172.211 481.141 171.266 481.281 170.297L481.68 167.555C481.789 166.68 481.836 165.797 481.82 164.906C481.82 164.016 481.734 163.156 481.562 162.328C481.422 161.562 481.188 160.844 480.859 160.172C480.531 159.484 480.117 158.875 479.617 158.344C479.07 157.812 478.414 157.383 477.648 157.055C476.883 156.727 475.984 156.539 474.953 156.492L472.023 156.469ZM511.914 170.695H498.227L496.375 181.359H512.383L511.562 186H490.047L495.977 151.875H517.352L516.555 156.539H500.688L499.023 166.148H512.711L511.914 170.695ZM530.289 151.875L531.836 166.406L538.844 151.875H545.781L539.852 186H534.695L536.734 174.188L539.57 159.656L531.859 175.477H528.977L527.102 159.539L524.758 174.656L522.789 186H517.633L523.562 151.875H530.289ZM571.188 171.188C570.984 172.438 570.688 173.688 570.297 174.938C569.922 176.172 569.445 177.359 568.867 178.5C568.289 179.641 567.602 180.711 566.805 181.711C566.023 182.695 565.141 183.547 564.156 184.266C563.156 184.969 562.055 185.523 560.852 185.93C559.664 186.32 558.352 186.5 556.914 186.469C555.57 186.438 554.375 186.195 553.328 185.742C552.281 185.289 551.383 184.688 550.633 183.938C549.883 183.203 549.258 182.344 548.758 181.359C548.273 180.359 547.906 179.297 547.656 178.172C547.406 177.062 547.258 175.914 547.211 174.727C547.18 173.539 547.242 172.367 547.398 171.211L548.102 166.711C548.305 165.477 548.594 164.242 548.969 163.008C549.344 161.758 549.812 160.562 550.375 159.422C550.938 158.281 551.602 157.211 552.367 156.211C553.148 155.211 554.023 154.352 554.992 153.633C555.961 152.914 557.039 152.359 558.227 151.969C559.43 151.562 560.742 151.375 562.164 151.406C563.523 151.438 564.727 151.68 565.773 152.133C566.836 152.57 567.758 153.164 568.539 153.914C569.305 154.664 569.938 155.539 570.438 156.539C570.938 157.523 571.328 158.57 571.609 159.68C571.859 160.805 572.008 161.969 572.055 163.172C572.102 164.375 572.047 165.555 571.891 166.711L571.188 171.188ZM566.336 166.617C566.43 165.977 566.5 165.281 566.547 164.531C566.594 163.781 566.594 163.023 566.547 162.258C566.5 161.508 566.383 160.773 566.195 160.055C566.008 159.336 565.734 158.695 565.375 158.133C565 157.57 564.516 157.109 563.922 156.75C563.344 156.391 562.617 156.195 561.742 156.164C560.82 156.133 559.992 156.273 559.258 156.586C558.539 156.883 557.906 157.297 557.359 157.828C556.797 158.375 556.305 159 555.883 159.703C555.461 160.406 555.109 161.148 554.828 161.93C554.531 162.727 554.289 163.531 554.102 164.344C553.914 165.156 553.766 165.93 553.656 166.664L552.93 171.234C552.836 171.859 552.766 172.547 552.719 173.297C552.672 174.031 552.664 174.781 552.695 175.547C552.742 176.312 552.844 177.062 553 177.797C553.172 178.531 553.43 179.18 553.773 179.742C554.133 180.32 554.602 180.797 555.18 181.172C555.758 181.531 556.477 181.727 557.336 181.758C558.258 181.789 559.086 181.656 559.82 181.359C560.555 181.047 561.211 180.625 561.789 180.094C562.352 179.562 562.852 178.938 563.289 178.219C563.727 177.5 564.102 176.742 564.414 175.945C564.711 175.164 564.953 174.367 565.141 173.555C565.344 172.742 565.508 171.961 565.633 171.211L566.336 166.617Z" fill="black"/>
</svg>
