<svg width="924" height="500" viewBox="0 0 924 500" fill="none" xmlns="http://www.w3.org/2000/svg">
<rect width="924" height="500" fill="black"/>
<path fill-rule="evenodd" clip-rule="evenodd" d="M569 244C569 300.333 521.333 350.5 465 350.5H422.958C421.45 350.5 420.082 351.36 419.336 352.67C412.592 364.506 403.091 368.593 378.781 368.574C375.987 368.571 374.107 365.73 375.231 363.172L399.221 339.183L374.581 314.543C373.73 312.032 375.636 309.469 378.287 309.483C399.108 309.594 410.139 312.124 419.275 324.732C420.061 325.817 421.306 326.5 422.646 326.5H435.5C473.733 326.5 498.904 305.68 507.506 281H475C468.925 281 464 276.075 464 270C464 263.925 468.925 259 475 259H510.725C510.451 253.564 509.377 248.176 507.469 243H464C457.925 243 453 238.075 453 232C453 225.925 457.925 221 464 221H492.382C479.041 209.018 458.193 201 429 201C428.498 201 428 200.995 427.508 200.984C427.34 200.995 427.171 201 427 201H363C358.582 201 355 197.418 355 193C355 188.582 358.582 185 363 185H391.73C382.521 174.204 377.968 159.719 374.069 147.316L374.069 147.316L374.069 147.316C372.834 143.387 371.664 139.667 370.433 136.339C369.475 133.748 371.401 131 374.163 131H466C525.263 137.059 572.026 193.913 569 244ZM462 164C462 177.255 451.255 188 438 188C424.745 188 414 177.255 414 164C414 150.745 424.745 140 438 140C451.255 140 462 150.745 462 164ZM438 174C443.523 174 448 169.523 448 164C448 158.477 443.523 154 438 154C432.477 154 428 158.477 428 164C428 169.523 432.477 174 438 174Z" fill="url(#paint0_linear_317_171)"/>
<defs>
<linearGradient id="paint0_linear_317_171" x1="373.5" y1="369" x2="554" y2="190.5" gradientUnits="userSpaceOnUse">
<stop stop-color="#9945FF"/>
<stop offset="0.5" stop-color="#5999C9"/>
<stop offset="1" stop-color="#0FF392"/>
</linearGradient>
</defs>
</svg>
