<svg width="116" height="30" viewBox="0 0 116 30" fill="none" xmlns="http://www.w3.org/2000/svg">
<path d="M46.9414 22.3008C46.1602 22.9648 45.2891 23.4766 44.3281 23.8359C43.3672 24.1875 42.3672 24.3633 41.3281 24.3633C40.5312 24.3633 39.7617 24.2578 39.0195 24.0469C38.2852 23.8438 37.5977 23.5547 36.957 23.1797C36.3164 22.7969 35.7305 22.3438 35.1992 21.8203C34.668 21.2891 34.2148 20.7031 33.8398 20.0625C33.4648 19.4141 33.1719 18.7188 32.9609 17.9766C32.7578 17.2344 32.6562 16.4648 32.6562 15.668C32.6562 14.8711 32.7578 14.1055 32.9609 13.3711C33.1719 12.6367 33.4648 11.9492 33.8398 11.3086C34.2148 10.6602 34.668 10.0742 35.1992 9.55078C35.7305 9.01953 36.3164 8.56641 36.957 8.19141C37.5977 7.81641 38.2852 7.52734 39.0195 7.32422C39.7617 7.11328 40.5312 7.00781 41.3281 7.00781C42.3672 7.00781 43.3672 7.1875 44.3281 7.54688C45.2891 7.89844 46.1602 8.40625 46.9414 9.07031L45.1836 12C44.6758 11.4844 44.0898 11.082 43.4258 10.793C42.7617 10.4961 42.0625 10.3477 41.3281 10.3477C40.5938 10.3477 39.9023 10.4883 39.2539 10.7695C38.6133 11.0508 38.0508 11.4336 37.5664 11.918C37.082 12.3945 36.6992 12.957 36.418 13.6055C36.1367 14.2461 35.9961 14.9336 35.9961 15.668C35.9961 16.4102 36.1367 17.1055 36.418 17.7539C36.6992 18.4023 37.082 18.9688 37.5664 19.4531C38.0508 19.9375 38.6133 20.3203 39.2539 20.6016C39.9023 20.8828 40.5938 21.0234 41.3281 21.0234C41.75 21.0234 42.1602 20.9727 42.5586 20.8711C42.957 20.7695 43.3359 20.6289 43.6953 20.4492V15.668H46.9414V22.3008ZM59.4219 17.2852V13.9219C59.4219 13.4609 59.332 13.0273 59.1523 12.6211C58.9805 12.207 58.7422 11.8477 58.4375 11.543C58.1328 11.2383 57.7734 11 57.3594 10.8281C56.9531 10.6484 56.5195 10.5586 56.0586 10.5586C55.5977 10.5586 55.1602 10.6484 54.7461 10.8281C54.3398 11 53.9844 11.2383 53.6797 11.543C53.375 11.8477 53.1328 12.207 52.9531 12.6211C52.7812 13.0273 52.6953 13.4609 52.6953 13.9219V17.2852H59.4219ZM62.7852 24H59.4219V20.6367H52.6953V24H49.3438V13.9219C49.3438 12.9922 49.5195 12.1211 49.8711 11.3086C50.2227 10.4883 50.6992 9.77344 51.3008 9.16406C51.9102 8.55469 52.6211 8.07422 53.4336 7.72266C54.2539 7.37109 55.1289 7.19531 56.0586 7.19531C56.9883 7.19531 57.8594 7.37109 58.6719 7.72266C59.4922 8.07422 60.207 8.55469 60.8164 9.16406C61.4258 9.77344 61.9062 10.4883 62.2578 11.3086C62.6094 12.1211 62.7852 12.9922 62.7852 13.9219V24ZM82.3789 24H79.0273V12C79.0273 11.7656 78.9805 11.5469 78.8867 11.3438C78.8008 11.1406 78.6797 10.9648 78.5234 10.8164C78.375 10.6602 78.1992 10.5391 77.9961 10.4531C77.793 10.3672 77.5742 10.3242 77.3398 10.3242C77.1055 10.3242 76.8867 10.3672 76.6836 10.4531C76.4805 10.5391 76.3008 10.6602 76.1445 10.8164C75.9961 10.9648 75.8789 11.1406 75.793 11.3438C75.707 11.5469 75.6641 11.7656 75.6641 12V24H72.3008V12C72.3008 11.7656 72.2578 11.5469 72.1719 11.3438C72.0859 11.1406 71.9648 10.9648 71.8086 10.8164C71.6602 10.6602 71.4844 10.5391 71.2812 10.4531C71.0781 10.3672 70.8594 10.3242 70.625 10.3242C70.3906 10.3242 70.1719 10.3672 69.9688 10.4531C69.7656 10.5391 69.5859 10.6602 69.4297 10.8164C69.2812 10.9648 69.1641 11.1406 69.0781 11.3438C68.9922 11.5469 68.9492 11.7656 68.9492 12V24H65.5859V12C65.5859 11.3047 65.7148 10.6523 65.9727 10.043C66.2383 9.42578 66.5977 8.89062 67.0508 8.4375C67.5117 7.97656 68.0469 7.61719 68.6562 7.35938C69.2734 7.09375 69.9297 6.96094 70.625 6.96094C71.25 6.96094 71.8516 7.07422 72.4297 7.30078C73.0078 7.51953 73.5273 7.83984 73.9883 8.26172C74.4492 7.83984 74.9648 7.51953 75.5352 7.30078C76.1133 7.07422 76.7148 6.96094 77.3398 6.96094C78.0352 6.96094 78.6875 7.09375 79.2969 7.35938C79.9141 7.61719 80.4492 7.97656 80.9023 8.4375C81.3633 8.89062 81.7227 9.42578 81.9805 10.043C82.2461 10.6523 82.3789 11.3047 82.3789 12V24ZM98.832 18.9609C98.832 19.6562 98.6992 20.3086 98.4336 20.918C98.168 21.5273 97.8047 22.0625 97.3438 22.5234C96.8906 22.9766 96.3594 23.3359 95.75 23.6016C95.1406 23.8672 94.4883 24 93.793 24H85.3906V7.19531H93.793C94.4883 7.19531 95.1406 7.32812 95.75 7.59375C96.3594 7.85938 96.8906 8.22266 97.3438 8.68359C97.8047 9.13672 98.168 9.66797 98.4336 10.2773C98.6992 10.8867 98.832 11.5391 98.832 12.2344C98.832 12.5469 98.7891 12.8672 98.7031 13.1953C98.6172 13.5234 98.4961 13.8398 98.3398 14.1445C98.1836 14.4492 97.9961 14.7266 97.7773 14.9766C97.5586 15.2266 97.3164 15.4336 97.0508 15.5977C97.3242 15.7461 97.5703 15.9492 97.7891 16.207C98.0078 16.457 98.1953 16.7344 98.3516 17.0391C98.5078 17.3438 98.625 17.6641 98.7031 18C98.7891 18.3281 98.832 18.6484 98.832 18.9609ZM88.7539 20.6367H93.793C94.0273 20.6367 94.2461 20.5938 94.4492 20.5078C94.6523 20.4219 94.8281 20.3047 94.9766 20.1562C95.1328 20 95.2539 19.8203 95.3398 19.6172C95.4258 19.4141 95.4688 19.1953 95.4688 18.9609C95.4688 18.7266 95.4258 18.5078 95.3398 18.3047C95.2539 18.1016 95.1328 17.9258 94.9766 17.7773C94.8281 17.6211 94.6523 17.5 94.4492 17.4141C94.2461 17.3281 94.0273 17.2852 93.793 17.2852H88.7539V20.6367ZM88.7539 13.9219H93.793C94.0273 13.9219 94.2461 13.8789 94.4492 13.793C94.6523 13.707 94.8281 13.5898 94.9766 13.4414C95.1328 13.2852 95.2539 13.1055 95.3398 12.9023C95.4258 12.6914 95.4688 12.4688 95.4688 12.2344C95.4688 12 95.4258 11.7812 95.3398 11.5781C95.2539 11.375 95.1328 11.1992 94.9766 11.0508C94.8281 10.8945 94.6523 10.7734 94.4492 10.6875C94.2461 10.6016 94.0273 10.5586 93.793 10.5586H88.7539V13.9219ZM111.266 17.2852V13.9219C111.266 13.4609 111.176 13.0273 110.996 12.6211C110.824 12.207 110.586 11.8477 110.281 11.543C109.977 11.2383 109.617 11 109.203 10.8281C108.797 10.6484 108.363 10.5586 107.902 10.5586C107.441 10.5586 107.004 10.6484 106.59 10.8281C106.184 11 105.828 11.2383 105.523 11.543C105.219 11.8477 104.977 12.207 104.797 12.6211C104.625 13.0273 104.539 13.4609 104.539 13.9219V17.2852H111.266ZM114.629 24H111.266V20.6367H104.539V24H101.188V13.9219C101.188 12.9922 101.363 12.1211 101.715 11.3086C102.066 10.4883 102.543 9.77344 103.145 9.16406C103.754 8.55469 104.465 8.07422 105.277 7.72266C106.098 7.37109 106.973 7.19531 107.902 7.19531C108.832 7.19531 109.703 7.37109 110.516 7.72266C111.336 8.07422 112.051 8.55469 112.66 9.16406C113.27 9.77344 113.75 10.4883 114.102 11.3086C114.453 12.1211 114.629 12.9922 114.629 13.9219V24Z" fill="white"/>
<path d="M1.23169 21.7126C1.23169 21.7126 4.31529 18.2904 9.1456 18.3361C9.1456 18.3361 8.89845 16.6023 9.47986 15.2401C9.47986 15.2401 3.95947 13.8083 3.70811 7.4707C3.70811 7.4707 -2.59203 12.8194 1.23169 21.7126Z" fill="url(#paint0_linear_773_309)"/>
<path d="M2.08203 23.0269C4.64905 27.1431 9.47214 28.4433 9.47214 28.4433L9.48172 28.335C8.93425 25.278 11.6512 21.9726 11.6512 21.9726C10.5006 21.2525 9.74221 19.8565 9.74221 19.8565C9.67382 19.8591 9.61884 19.8543 9.56387 19.8496C5.0508 19.8606 2.08203 23.0269 2.08203 23.0269Z" fill="url(#paint1_linear_773_309)"/>
<path d="M11.126 28.8036C15.1887 29.5612 18.0669 27.8867 18.0669 27.8867C15.8609 26.0412 15.7482 23.0814 15.7482 23.0814C13.9676 23.1306 13.0893 22.6924 13.0893 22.6924C10.4284 25.2117 11.126 28.8036 11.126 28.8036Z" fill="url(#paint2_linear_773_309)"/>
<path d="M18.8639 22.5509L17.3196 23.0059C17.3196 23.0059 17.3161 25.2599 19.7156 27.1285C19.7156 27.1285 21.4725 25.9571 21.5747 25.7644C21.5747 25.7644 27.5302 24.2359 28 16.7619C28 16.7619 26.7005 16.8098 24.9079 17.7598L25.6206 14.5215C25.6206 14.5215 19.4532 16.4222 18.8639 22.5509Z" fill="url(#paint3_linear_773_309)"/>
<path d="M16.972 6.86341C16.972 7.54629 16.4102 8.09987 15.7171 8.09987C15.024 8.09987 14.4622 7.54629 14.4622 6.86341C14.4622 6.18053 15.024 5.62695 15.7171 5.62695C16.4102 5.62695 16.972 6.18053 16.972 6.86341Z" fill="url(#paint4_linear_773_309)"/>
<path d="M18.9278 0.0285106C17.9531 0.691988 16.8891 1.352 15.7664 1.90621C14.6436 2.46042 13.4828 2.91481 12.3364 3.20672L9.85312 3.82453C9.27688 3.98072 8.68594 4.11045 8.11577 4.24617C7.51876 4.39637 6.21255 4.80888 5.26654 5.86944C5.26654 5.86944 4.37996 10.3019 8.37016 13.1173C8.37016 13.1173 9.90616 14.2484 12.7113 13.9899C13.9875 13.8687 15.2058 13.4864 16.3199 12.8853C17.2253 12.3795 18.504 11.6037 19.3149 10.7708C19.3868 10.6804 19.466 10.6032 19.5453 10.5261C19.6051 10.4767 19.6843 10.3995 19.7697 10.3019L24.8577 5.04665C24.5467 4.61273 23.9334 4.51385 23.493 4.82024L20.7102 6.75147C21.0088 4.87125 19.6159 0.293338 19.6159 0.293338C19.5313 0.0467765 19.3101 -0.00581145 19.1391 0.000486174C19.0157 -0.00171824 18.9278 0.0285106 18.9278 0.0285106ZM13.2623 6.85034C13.2527 5.51457 14.3624 4.43449 15.7181 4.42504C17.0678 4.43606 18.1774 5.52213 18.1662 6.85192C18.1758 8.1877 17.0735 9.281 15.7104 9.27722C14.3681 9.27942 13.2585 8.19336 13.2623 6.85034Z" fill="url(#paint5_linear_773_309)"/>
<path d="M16.9723 6.86341C16.9723 7.54629 16.4104 8.09987 15.7173 8.09987C15.0243 8.09987 14.4624 7.54629 14.4624 6.86341C14.4624 6.18053 15.0243 5.62695 15.7173 5.62695C16.4104 5.62695 16.9723 6.18053 16.9723 6.86341Z" fill="url(#paint6_linear_773_309)"/>
<path d="M16.9723 6.86341C16.9723 7.54629 16.4104 8.09987 15.7173 8.09987C15.0243 8.09987 14.4624 7.54629 14.4624 6.86341C14.4624 6.18053 15.0243 5.62695 15.7173 5.62695C16.4104 5.62695 16.9723 6.18053 16.9723 6.86341Z" fill="url(#paint7_linear_773_309)"/>
<defs>
<linearGradient id="paint0_linear_773_309" x1="10.5071" y1="27.7474" x2="3.32278" y2="14.4321" gradientUnits="userSpaceOnUse">
<stop stop-color="#FF1653"/>
<stop offset="1" stop-color="#FF7A53"/>
</linearGradient>
<linearGradient id="paint1_linear_773_309" x1="9.9499" y1="28.0471" x2="2.76559" y2="14.7318" gradientUnits="userSpaceOnUse">
<stop stop-color="#FF1653"/>
<stop offset="1" stop-color="#FF7A53"/>
</linearGradient>
<linearGradient id="paint2_linear_773_309" x1="13.5363" y1="26.1139" x2="6.35195" y2="12.7985" gradientUnits="userSpaceOnUse">
<stop stop-color="#FF1653"/>
<stop offset="1" stop-color="#FF7A53"/>
</linearGradient>
<linearGradient id="paint3_linear_773_309" x1="23.0194" y1="20.9957" x2="15.835" y2="7.68034" gradientUnits="userSpaceOnUse">
<stop stop-color="#FF1653"/>
<stop offset="1" stop-color="#FF7A53"/>
</linearGradient>
<linearGradient id="paint4_linear_773_309" x1="23.4475" y1="20.7665" x2="16.2632" y2="7.45113" gradientUnits="userSpaceOnUse">
<stop stop-color="#FF1653"/>
<stop offset="1" stop-color="#FF7A53"/>
</linearGradient>
<linearGradient id="paint5_linear_773_309" x1="22.8447" y1="21.0887" x2="15.6604" y2="7.77336" gradientUnits="userSpaceOnUse">
<stop stop-color="#FF1653"/>
<stop offset="1" stop-color="#FF7A53"/>
</linearGradient>
<linearGradient id="paint6_linear_773_309" x1="23.4478" y1="20.7665" x2="16.2634" y2="7.45113" gradientUnits="userSpaceOnUse">
<stop stop-color="#FF1653"/>
<stop offset="1" stop-color="#FF7A53"/>
</linearGradient>
<linearGradient id="paint7_linear_773_309" x1="23.4478" y1="20.7665" x2="16.2634" y2="7.45113" gradientUnits="userSpaceOnUse">
<stop stop-color="#FF1653"/>
<stop offset="1" stop-color="#FF7A53"/>
</linearGradient>
</defs>
</svg>
