<svg version="1.2" xmlns="http://www.w3.org/2000/svg" viewBox="0 0 512 512" width="512" height="512"><style>.a{fill:#007b57}.b{fill:#00986b}.c{fill:#00a978}</style><path  d="m325 1.1c3.7-0.2 7.3 0 11-0.4 5.4-0.6 10.6 0.4 16 0.4 6.7 0.9 15.5 2.5 20.2 7.7 3.6 3.5 3.5 9.2 2 13.7-2.1 5.9-8 9.2-12.6 13.1-15.7 13.1-25.4 32.9-25.6 53.4 0.5 17 8.2 32.3 19.1 45 12.1 14.4 27.7 24.7 43.8 34.1 17.5 10.6 36.7 22.2 48.9 39 12.6 17.3 16.3 40.8 10.4 61.3-3.5 9.2-7.5 18.1-12.5 26.5 27.6 16 50 43.5 56.8 75.1 2.3 10.4 2.3 20.6 1.4 31.1-2.4 18.6-10.6 36-22.6 50.3-13.8 16.6-32.7 28.3-52.6 36.3-27.4 10.9-57.5 15.7-86.7 18.8-3.8 0.8-7.7 0.2-11.5 1.2-9.4 0.7-19 1.4-28.4 2.2-9 0.1-18 1.5-27.1 1.1-14.7 0.4-29.3 0.8-44 0.2-8.4-0.4-16.6 0.2-25-0.8-16.5-0.9-33.6-2.7-50-4.9-20.1-2.9-40.3-6.5-59.8-12.1-23.3-6.8-45.2-16.7-62.8-33.8-15.7-15.1-26.1-36.7-26.7-58.6-0.7-4.7 0.4-9.2 0.4-14 2.4-18.4 9.9-35.9 22.1-49.9 5.1-6.3 11.9-11.5 18.3-16.5 1.8-1.4 3.6-2.4 5.6-3.5-14.6-19.9-16.7-46.5-10.5-69.9 4.8-18.4 14.4-36.1 28.2-49.4 11.3-11.3 26.3-19.3 42.1-22 0.7-6.3 1.7-12.6 2.9-18.8 1.3-5.9 1.8-11.3 4.3-16.9 10.1-23.7 27.6-41.6 46.7-58.3 21.3-19 43.2-36.7 68-51 19.9-11.5 41.7-20.9 64.2-25.7 8.6-2 17.3-3 26-4z"/><path class="a" d="m328.1 29.1c-1.6 2.4-4.3 3.6-6.1 5.9-9.4 10.2-13.3 25.5-14.4 39-1.1 14 0.1 28.5 4.4 42 5.1 16.5 14.8 30.9 27 43 15.6 15.3 35.1 27.2 54 38 11.4 6.4 22.5 12.9 30.7 23.3 8.3 10.6 10.7 24.8 7.7 37.7-1.2 5.5-3.5 10.6-5.5 15.9-1.5 3.5-2.8 7-5 10.2-6.6-1.7-13.5-3.5-19.9-5.7l2-0.5c0.6-4.3 0.2-8.5-0.4-12.8-1.4-9.2-3-17.8-7.8-25.9-9.2-16.6-26.3-29.2-40.4-41.6-15.3-13.8-32.4-26.8-44.6-43.4-10.7-14.8-18.1-33.2-20.8-51.2-3.3-21.8 0.1-44.4 9.8-64.1 1-1.8 2-3.4 3.1-5l-2-0.2c9.2-2.4 18.8-3.7 28.2-4.6z"/><path class="b" d="m299.9 33.7l2 0.2c-1.1 1.6-2.1 3.2-3.1 5-9.7 19.7-13 42.3-9.8 64.1 2.7 18 10.1 36.4 20.8 51.2 12.2 16.6 29.3 29.6 44.6 43.4 14.1 12.4 31.2 25 40.4 41.6 4.8 8.1 6.4 16.7 7.8 25.9 0.6 4.3 1 8.5 0.4 12.8l-2 0.5c-5.5-1.9-11.2-4.3-17-4.7-5.4-0.3-11.2 1.3-15.4 4.9-3.3 3-5 7.6-4 11.9 1.2 5.7 5.8 9.8 10.9 12 7.2 3.2 15.6 4.8 23.3 6.2 1.1 1.7 2.2 3.4 3.7 4.8 10.3 10.5 19.8 22.3 26.7 35.2 15.5 29.2 14 66.1-3.6 93.9-4.5 6.9-9.5 13.5-14.4 20.1q1 0.7 2.1 1.5c-4.1 1-8 2.5-12.1 3.3-63.4 14.2-128.6 19.6-193.4 15.6-23.8-1.4-47.4-4-70.9-8.6q1.5-0.4 3.1-1c-3.1-0.7-6-1-8.7-2.8-6.3-4.4-11.6-9.6-17.2-14.7-9.9-8.7-19-17.9-26.2-28.9-14.7-22.9-14.7-54.5 1.6-76.7 5.9-7.8 13.8-14.1 22.9-18 3-1.3 6.2-1 9.1-2.4 7.7 1.2 14.4 5.9 22.5 6.5 7.1 0.3 13.8-6.5 13.7-13.5 0.2-6-4.3-11.5-9.4-14.3-9.1-5.2-20.1-6.8-30.4-8q1.5-0.7 3.1-1.3c-4.7-0.8-9.3-0.3-14-0.5-2.3 0.2-2.9-2.5-3.9-4-6-11.8-6.9-25.8-3.6-38.5 3-10.3 8.9-19.9 15.9-28 8.4-9.4 19.8-17.2 32.3-19.8 2.5-0.5 4.6 0.9 6.9-0.6 9 2.7 18.1 6.4 27.4 8.3 7.6 0.9 15.5-4.8 16.6-12.5 0.8-4.7-1.7-9.2-5-12.4-4.9-4.9-11.1-7-17.6-9q1-0.4 2-0.9c-2-0.6-3.9-1.3-5.8-1.8-0.1-5.3 1.4-10.6 2.9-15.6 2.4-7.7 6.6-13.6 10.4-20.5 17.1-29.5 35.7-59.2 59.7-83.4 3.4-3.6 7.6-5.4 11.7-8l-1.9-0.4c14.1-7.9 29.3-14 45-18.1z"/><path class="c" d="m255 51.8l1.9 0.4c-4.1 2.6-8.3 4.4-11.7 8-24 24.2-42.6 53.9-59.7 83.4-3.8 6.9-8 12.8-10.4 20.5-1.5 5-3 10.3-2.9 15.6 1.9 0.5 3.8 1.2 5.8 1.8q-1 0.5-2 0.9c-11.2-3.1-23.2-4-34.2-7.3 0.2-9.4 2.2-18.5 6.4-26.9 7.1-14.8 19.3-27.7 31.1-38.9 22.8-21.4 48.1-42.6 75.7-57.5z"/><path class="c" d="m154.6 208c-2.3 1.5-4.4 0.1-6.9 0.6-12.5 2.6-23.9 10.4-32.3 19.8-7 8.1-12.9 17.7-15.9 28-3.3 12.7-2.4 26.7 3.6 38.5 1 1.5 1.6 4.2 3.9 4 4.7 0.2 9.3-0.3 14 0.5q-1.6 0.6-3.1 1.3c-6.6-0.5-13.3-0.6-19.9 0.4-5.7 1.3-11.4 3-17.1 4.3-8.5-7.5-13.6-19.1-14.3-30.4-1.1-16.2 5.1-32.8 14.7-45.7 9.1-12.3 22.3-22.4 37.5-25.4 12.3-2 24.1 0.1 35.8 4.1z"/><path  d="m302.5 272.7c10.7-2.2 22.1 5.1 25.1 15.5 3.5 11.2-2.7 25.3-14.1 29.1-6.7 2.6-14.4 0.7-19.6-4.2-6-5.8-8.6-15-7.2-23.1 1.4-8.3 7.5-15.4 15.8-17.3z"/><path  d="m205.3 273.4c11-4 23.6 3.3 27.2 14 4 11.5-2.2 26.1-14 30-6.5 2.4-13.9 0.7-19-3.9-5-4.7-7.8-11.7-8-18.5-0.3-9.3 4.9-18.4 13.8-21.6z"/><path class="a" d="m398.8 308.7c8.8 1.4 17.3 3.2 25.3 7.2 16.7 8 32.1 20.4 42.1 36 8.9 13.9 13.2 30.6 10.9 47.1-2 15.6-9.4 30.4-20.6 41.5-11.5 11.6-27.7 19.2-43.2 23.7q-1.1-0.8-2.1-1.5c4.9-6.6 9.9-13.2 14.4-20.1 17.6-27.8 19.1-64.7 3.6-93.9-6.9-12.9-16.4-24.7-26.7-35.2-1.5-1.4-2.6-3.1-3.7-4.8z"/><path class="c" d="m121.5 330c-2.9 1.4-6.2 1.1-9.1 2.4-9.1 3.9-17 10.2-22.9 18-16.3 22.2-16.3 53.8-1.6 76.7 7.2 11 16.3 20.2 26.1 28.9 5.7 5.1 11 10.3 17.3 14.7 2.6 1.8 5.6 2.1 8.7 2.8q-1.6 0.6-3.1 1c-15.3-3-30.6-6.9-45.3-12-14.8-5.2-29.4-13.5-40.1-25-8.6-8.9-14.6-20.2-16.5-32.5-2.2-13.8 1.7-28 9.4-39.5 9.6-14.4 24.4-25.4 40.5-31.6 11.3-4.4 24.6-6.6 36.6-3.9z"/><path  d="m300 363.2c3.4-0.9 6.9-0.8 10 0.7 7.5 3.5 10.4 14 5.6 20.7-3.7 5.4-10.7 8.7-16.3 11.7-26.5 13.9-59.6 12.8-85.3-2.3-4.8-2.9-10.2-7.5-11.5-13.1-2.5-9.6 8.7-20 18.1-16.5 7.9 2.3 15.3 7.4 22.9 10.1 8.8 2.8 18.7 3 27.7 1.1 10.9-2.1 18.3-9.6 28.8-12.4z"/></svg>